<svg xmlns="http://www.w3.org/2000/svg" viewBox="0 0 746.87 824.18">
  <defs>
    <style>
      .cls-1 {
        fill: 	#87CEEB;
      }

      .cls-2 {
        fill: 	#87CEEB;
      }
    </style>
  </defs>
  <title>drop-down-splodge</title>
  <g id="Layer_2" data-name="Layer 2">
    <g id="Layer_1-2" data-name="Layer 1">
      <path class="cls-1" d="M181.44,45.81c61.85-15.21,137.39,4.41,199.9-8.87C456.41,19.2,537.75,20,612.76,21.2c-.14,9.08-6.6,22.59-.42,27.24,24.76,14,24.45,32.17,24.15,50.33-.15,9.08-18.69-.29-12.61,8.89-18.69-.31-49.9,3.79-31.34,13.13,6.09,9.17,31.12.48,37.12,14.19S623,162.12,629,175.82l24.85.42c6,9.2-6.68,27.14-.47,27.25,18.45,9.39,43.33,5.32,68.12,5.81-.17,9.08,5.84,18.28-6.64,22.58-108.51,2.37-218.53,7.75-328.45,11.1s-219.77,4.65-328.18-1.23c-24.81-4.33-6.4-22.64,12.09-36.41-6.16,4.6-6.27-9-12.45-4.43-.12-13.62,12.1-36.43,36.94-41.16l-18.65.14c-6.25-4.49-.11-13.62-.18-22.69,6.23-.05,12.44-.1,12.41-4.65l-.13-18.15-24.9.2c6.22-.05,12.45-.1,12.41-4.64s-.11-13.62-.14-18.17c12.44-4.65,31.19,4.34,43.64-.3l-.08-13.61c-12.51-4.46-31.19.18-43.66.3C81.74,73.58,81.7,69,81.63,60c18.69-4.68,37.5,8.83,56.14-4.9l-18.72.11C131.41,32.37,162.73,50.41,181.44,45.81Z" transform="translate(0 -1.63)"/>
      <path class="cls-1" d="M171.92,223.81c16.29-3.36,33.41-4.46,51-4.61,8.78-.06,17.66.16,26.6.52s17.94.8,26.95,1.29c36,2,72.15,3.81,104.89-2.72,39.29-8.83,80.09-13.18,120.88-15.62,20.4-1.15,40.79-1.92,61-2.32s40.18-.65,59.75-1c.13,9.08-6.23,22.79.38,27.24,26.36,13.24,26.68,31.4,27,49.56.15,9.08-19.71.28-13,9.27-9.86.14-23,1.47-31.2,3.84s-11.45,5.79-1.52,10.22c6.7,9,32.92-.46,39.71,13.06s-6.18,27.34.63,40.85l26.47-.45c6.77,9-6.14,27.37.49,27.25,10,4.35,21.66,5.3,34.1,5s25.68-1.71,38.93-2c.19,9.07,7.1,18-6.08,22.85-116.19,7.3-234.23,15.12-352.42,18.24s-236.49,1.58-352.64-9.65c-26.43-5.51-5.74-22.92,14.64-35.8-6.79,4.3-6.29-9.32-13.09-5,.52-13.62,14.62-35.78,41.18-39.4l-19.82-.71c-6.44-4.78.5-13.61.82-22.68,6.6.24,13.18.49,13.34-4.06l.63-18.14-26.31-1c6.57.24,13.15.49,13.31-4l.66-18.16c13.29-4,32.67,5.67,46,1.57l.44-13.6c-13-5-32.79-1-45.91-1.57,6.73-4.3,6.89-8.83,7.21-17.91,9.9-1.9,19.64.66,29.42,2.13s19.61,1.81,29.63-4.74L106.24,231c6.9-11.11,18.37-11.9,30.59-10.41S162,225.85,171.92,223.81Z" transform="translate(0 -1.63)"/>
      <path class="cls-1" d="M162.34,421.23a186,186,0,0,1,23.45-2.14c4-.14,8-.1,12-.12s8.08,0,12.16.19c8.15.28,16.38.84,24.66,1.55s16.63,1.23,25,1.93c33.37,2.88,67.09,4.57,97.37-2.33l3.41-.84,3.41-.88,6.84-1.69q6.85-1.64,13.74-3.09t13.82-2.71c2.31-.4,4.62-.85,6.93-1.31l6.95-1.3Q426,406,440,404.09c9.32-1.4,18.66-2.77,28-3.91q7-.87,14-1.64l14-1.75c9.31-1.12,18.6-2.1,27.84-3.05q13.84-1.7,27.54-3.18c4.56-.51,9.11-1,13.63-1.5l13.48-1.73c1.15,9-3.22,23.29,3.38,27,25.89,10.41,28.55,28.39,31,46.39,1.23,9-18.62,2.38-11.22,10.59-9.34,1.18-21.65,4-29.19,7.13s-10.34,6.8-.39,10.31c3.67,4.25,11.52,3.15,19.45,2.74s15.92-.32,20,6,3.42,13.3,2.73,20.25-1.4,13.91,2.72,20.24c6.46-.73,19.29-2.7,25.71-3.66,7.77,8-2.51,27.93,4,27A58.63,58.63,0,0,0,663,563.45a101.3,101.3,0,0,0,17.77-1.65c12.18-2.08,25-5.43,37.94-7.65.81,4.47,3.19,8.65,3.91,12.56a8.9,8.9,0,0,1-.58,5.66c-.93,1.82-2.73,3.56-5.81,5.25-56.93,12.5-114.8,23.35-173.4,31.72s-117.88,14.23-177.41,16.91A1514.49,1514.49,0,0,1,186.88,624,1274.43,1274.43,0,0,1,11.45,599.17c-25.8-8.47-2.88-23.37,18.61-33.92-7.19,3.52-5.14-10-12.33-6.44,1-6.73,5.69-15.21,13.3-22.1A48.82,48.82,0,0,1,44.6,528,51.61,51.61,0,0,1,62.27,524c-6.4-.76-12.76-1.8-19.15-2.74-5.71-5.44,2-13.48,3.27-22.46,6.31.95,12.62,1.89,13.24-2.61l2.51-18L37.2,474.5c6.23.94,12.47,1.87,13.12-2.62l2.62-18a27.13,27.13,0,0,1,10.39.28c3.64.71,7.43,1.7,11.22,2.78,7.58,2.12,15.18,4.24,21.65,2.78l1.67-13.51c-5.87-3-13.53-4-21.28-4.45-3.87-.23-7.77-.23-11.46-.45s-7.17-.43-10.23-.89c6.79-3.58,7.41-8.07,8.7-17.06a35.59,35.59,0,0,1,7,.08,52.63,52.63,0,0,1,6.81,1.11c4.51,1,9,2.44,13.45,3.59a50.06,50.06,0,0,0,13.68,1.9,29.69,29.69,0,0,0,7.07-1,31.83,31.83,0,0,0,7.3-3.17c-3-.35-6.09-.6-9.12-1l-9.1-1.17a20.42,20.42,0,0,1,13.25-8.75c5-1,10.48-.45,16.09.72s11.36,2.93,16.87,4.24a63.34,63.34,0,0,0,8,1.47A29.9,29.9,0,0,0,162.34,421.23Z" transform="translate(0 -1.63)"/>
      <path class="cls-1" d="M203.88,579c29.48-2.22,60.37,4.42,91.28,10.88S357,602.61,386,599.74c34.89-4.31,70.16-4.6,105-3.51s67,3.33,95.17,2.77c.09,4.54-1,10.22-1.54,15.34s-.49,9.65,2.05,11.9c10,6.57,15.44,14.26,18.46,22.57s3.68,17.4,4.25,26.46c.3,4.53-3.8,4.79-7.22,5s-6.2.22-3.26,4.66c-4.16.15-9,.64-13.73,1.22-2.36.31-4.67.7-6.84,1.15a52.87,52.87,0,0,0-6,1.44c-7.05,2.21-10,5.59-1.51,10.2,1.41,2.28,3.93,3.44,7,4.1a83.13,83.13,0,0,0,10.28.94c3.62.28,7.22.49,10.34,1.61a12.41,12.41,0,0,1,7.38,6.29c3.29,6.62,2.25,13.51,1.06,20.4s-2.45,13.79,1.05,20.4l12.7-.8,12.75-1.14c3.67,4.17,2.83,11.13,1.74,16.95s-2.32,10.47,1.05,10.16a58.78,58.78,0,0,0,17.06,2.51c3,0,6.12-.21,9.27-.51q2.36-.23,4.76-.54c1.61-.25,3.23-.54,4.86-.84,3.26-.61,6.56-1.31,9.89-2.06s6.72-1.75,10.11-2.67l5.11-1.39,5.15-1.54c3.44-1,6.9-2,10.37-3,1.27,4.36,3.94,8.31,5.05,12.12a9.48,9.48,0,0,1,.13,5.65c-.9,1.94-2.8,3.93-6.19,6l-6,1.82c-1,.3-2,.62-3,.9l-3,.8-12,3.17c-4,1-8,1.84-12,2.75s-8,1.69-11.92,2.46c-8,1.63-15.81,2.81-23.71,4.07-7.79,1-15.67,2.16-23.37,2.89-7.79.89-15.38,1.42-23.05,2-7.54.44-15.17.95-22.59,1.17s-14.83.42-22.22.58-14.6.1-21.72,0-14.23-.23-21.32-.39-14-.43-20.81-.73-13.63-.62-20.41-1-13.57-.65-20.31-1.11l-20.27-1.31c-6.75-.47-13.47-1-20.21-1.54l-10.11-.8-10.07-.91c-6.71-.62-13.44-1.21-20.13-1.89q-40.17-4-79.81-9.52t-78.53-12.48q-77.79-13.93-152.32-33.46c-22.13-8.86-1.45-23.38,18.34-33.45-6.6,3.36-4-10-10.63-6.66,2.57-13.38,18.33-33.45,42.17-33.53l-17.24-3.3c-4.89-5.56,2.57-13.38,4.27-22.29,5.75,1.1,11.48,2.2,12.34-2.27l3.41-17.83-22.94-4.4c5.73,1.1,11.47,2.2,12.32-2.25l3.42-17.85c12.31-2.26,27.79,10,40.09,7.65L141,599.62C130.45,593,112.43,594.17,101,592c6.59-3.37,7.44-7.82,9.15-16.75,18-1.18,32.62,15.48,52.26,5.3l-17.11-3.23c7.83-10.06,18-9.29,28.46-6.18S194.94,579.68,203.88,579Z" transform="translate(0 -1.63)"/>
      <path class="cls-2" d="M375,568.83l7.32-.84c-43.39-12.22-86.74-.73-128.53-20.49L242.54,534.9c-20.67-8.18-45-2.32-64,6.45-9.54,4.39-13.25,42.53-13.25,42.53-1.8,7.05-2.93,20.88.22,27.45,5.29,2.9,17.65,1.67,19,15.28.34,3.39-2.13,3.64-4.61,3.88,1.35,13.59-3.37,41.54-5.84,41.78-1.8,7.06-14.64,28.93-16.45,36-6.42,11,20.94,59.74,31.87,69,5.64,6.3,1.69,17,2.7,27.2,4.63-3.89,8.13,6.06,12.76,2.16.33,3.41,15.58,5.32,23,4.57,0,0,2.14-3.65,9.61-4.4,2.49-.25,2.15-3.66,1.81-7l.68,6.8c1.81-7,7.47-.75,9.62-4.41l.69,6.81c4.28-7.31,10-1,14.6-4.92l.69,6.81c2.5-.25,5-.51,5.33,2.88l.69,6.81c2.84,3.15,7.14-4.17,7.84,2.63l-.7-6.81c10-1,17.83,1.61,25.7,4.22,21.42,11.52,45.85,2,67.71-7.25,2.51-.28,4.27-7.35,1-13.86l7.53-.83c5-.57,1.37-10.48,6.39-11,19.12-10.73,39.19-13.08,59.4-14.65s40.58-2.42,60.07-10.12c-10.52-2.09-18.93-7.86-28.54-3.23-.43-3.39-1.28-10.16-3.79-9.84-15.47-1.5-32.2,7.4-41.33-5.29-2.91-3.09-6.61-13-14.1-12.09l7.49-.89-1.2-10.18c-10.38-2.19-23.23-4.17-33.57-6.41l-1.16-10.17-5,.56c-7.65-23.22,20-22.92,32-27.8l-1.6-13.56-4.95.59-.8-6.79c14.83-1.74,27.16-3.23,42-5.06l-9.88,1.21c-.41-3.38-.83-6.79-3.29-6.49,9.87-1.18,22.63.66,31.62-7.37,2-3.71-1.73-13.55-9.52-16l-19.66,2.44-.83-6.78c4.91-.59,12.69,1.86,17.18-2.13,2-3.71-6.18-9.56-4.15-13.26,2.45-.31,4.9-.61,6.93-4.31-7.35.91-16.71,5.54-24.49,3-2.86-3.09-5.72-6.2-6.54-13-11.8,4.89-22.83-4.16-32.13-20.25C394.1,563.17,382.29,568,375,568.83Z" transform="translate(0 -1.63)"/>
      <path class="cls-2" d="M418.85,22.46l.54,1.86q.62-.73,1.18-1.44l.54-.71.53-.64c.69-.84,1.3-1.66,1.84-2.46s1.08-1.4,1.53-2.09c.23-.32.44-.69.66-1l.63-.82a27.1,27.1,0,0,1,2.17-2.71A6.86,6.86,0,0,1,430.7,11a19.48,19.48,0,0,0,2.6-1.3,34.83,34.83,0,0,1,3.57-1.54,86.36,86.36,0,0,1,12.66-3.42C452.89,4.15,459.6,3,463,2.54c5-.81,6.72-1,6.3-.91s-2.93.25-6.23.34c-1.66.07-11.59.48-21,.72l-18.46.43c-6.53.09-19.55.22-26.25.64-3.54.55-4,1.79-17.32,2.52-3.31.18-3.22-.14-3.09-.44-6.63.31-16.47.52-24.59.51-4.06,0-7.7,0-10.31-.13a21.16,21.16,0,0,1-4.13-.29c-1.6,0-3.95-.21-6.66-.44l-4.3-.4-4.62-.48C315.79,4,309.22,3.2,305.83,3a103.57,103.57,0,0,0-14.51,0c-3.26.14-7,.38-10.89.68s-8,.67-12,1.09-8.14.9-12,1.42-7.59,1.09-11,1.66A120.55,120.55,0,0,0,230.59,11c-7.15,1.85-17.36.72-27.79,1.09,1.66.79-.14,1.5-1.92,2.23s-3.54,1.51-1.86,2.31c-3.5.14-7.13,5.87-7.07,8.74,0,0,3.41.64,3.5,3.43,0,.94,3.45.58,6.86.23l-6.83.7c6.86.22.12,2.81,3.59,3.36l-6.82.79c6.94,1.07.26,3.79,3.84,5.25l-6.79.93c.09,1,.19,1.93-3.19,2.42l-6.78,1C176,45,183,45.94,176.27,47l6.77-1c.49,3.94-2.42,7.47-5.27,11.13-6,5.3-6.74,10.38-4.79,14.89.12.28.25.56.39.84s.31.62.48.92c.34.61.71,1.21,1.12,1.81s.84,1.2,1.29,1.74.91,1,1.4,1.46a31.58,31.58,0,0,0,6.29,4.73c.2.7,7-.51,13.34-3.07l.58,2c.33,1.12,10-2.31,10.34-1.21.59.12,1.16.28,1.68.38s1,.19,1.46.3c.91.2,1.73.52,2.4.71a14.09,14.09,0,0,1,2.88,1.19c.63.45.85.6,1,.91,0,.11,0,.11-.05.18l0,0,0,0,2-.46,6.64-1.61q3.22-.76,6.46-1.47L238.82,80q4.59-1,9.24-1.93l7.73-1.45q1.72-.3,3.46-.57l1.74-.26,1.33-.22q2.61-.43,5.26-.73c1-.1,1.55-.19,2.24-.28l2-.22,3.67-.31q1.55-.13,3.13-.16c-1.05,0-2,.07-3,.15l-1.38.13-1.78.14c-1.19.1-2.37.24-3.58.4l-.47.06-.61.07-1.24.15-2.56.35-1.75.27-1,.17-.25,0-.33,0-.66.1-2.66.42c-1.78.29-3.56.62-5.32,1l-.66.13-.87.16-1.79.33-3.53.68c-2.33.47-4.61,1-6.81,1.47l-.72.15,0,0,.12,0,.37-.13,1.41-.42c1.28-.41,3.3-1.1,6.59-2,1.63-.5,4.93-1.41,7.78-2.32s5.24-1.88,5.13-2.31l.23.85,9.92-2.57c3-2,5.74-4.95,8.48-7.75l9.83-2.86-.28-1c11.34-3.86,16.61-4.16,19.5-3.38s3.41,2.64,5.37,3.34l13.21-3.47-.27-1,6.6-1.78c.84,3.14,1.5,5.82,2.11,9.14-.09-.56-.32-1.65-.43-2.2,3.34-.69,6.7-1.39,6.58-2,.24,1.19-.32,2.66-.11,4s1.25,2.57,4.82,3.47c3.46.28,13.61-1.49,16.65-4.36-.16-1.2-.32-2.13-.49-3.06L360.62,57l-.3-1.5,6.7-1.35c.15.76-.49,1.85-.74,2.93s-.07,2,1.72,2.6c3.53.37,9.87-3.31,13.38-3,.15.93.28,1.87,3.79,2.39-.4-3.07-4.4-6-1.58-9.18a48.62,48.62,0,0,1,13-4.61,2.41,2.41,0,0,1-.81-3.07,11.13,11.13,0,0,1,3.61-3.63,54.51,54.51,0,0,1,7.38-4.27c3-1.52,6.56-3.17,10.52-4.89,3.2-1.26,3.72-2.59,3.36-3.86a5.47,5.47,0,0,0-.92-1.66A5.92,5.92,0,0,1,418.85,22.46Z" transform="translate(0 -1.63)"/>
    </g>
  </g>
</svg>
