<svg xmlns="http://www.w3.org/2000/svg" viewBox="0 0 180.84 155.53">
  <defs>
    <style>
      .cls-1 {
        fill: 	#87CEEB;
      }

      .cls-2 {
        fill: #000;
      }
    </style>
  </defs>
  <title>hut and splodge</title>
  <g id="Layer_2" data-name="Layer 2">
    <g id="Layer_2-2" data-name="Layer 2">
      <path class="cls-1" d="M30.59,97.5A236.64,236.64,0,0,1,49.88,77.21Q55,72.44,60.42,68L63,65.9c.24-.2,2.85-2.24,1.42-1.14s1.21-.9,1.46-1.09q1.65-1.23,3.32-2.43a233.44,233.44,0,0,1,23-14.53q6.13-3.39,12.45-6.42c2.23-1.07,4.51-2,6.74-3.09,2.57-1.21-2.39.95.25-.12l3.82-1.54L95.07,9.11c-12,17-23.58,34.29-36,51-1.2,1.61-2.43,3.21-3.65,4.81-1,1.34,2.62-3.32.08-.13L53.73,67q-4.51,5.67-9.21,11.19c-7.68,9-15.65,17.84-23.7,26.56-6.39,6.92-7.36,18.7,0,25.46,7.63,7,17.82,6.58,25.46,0,19.44-16.75,37.95-34.55,57.31-51.4q8.1-7,16.38-13.89,4-3.31,8.11-6.54l2.14-1.68q-2.8,2.15-.45.35c1.23-.93,2.45-1.86,3.68-2.78C142.63,47.41,152.2,40.8,162.63,36L138,11.37C115.9,45,91.47,77.18,68.3,110.07c-4.32,6.13-8.71,12.23-12.83,18.5-4.93,7.5-2.1,18,4.64,23.22a18,18,0,0,0,23.63-1.41c14.19-13.85,28.38-27.7,43.08-41a495.55,495.55,0,0,1,43.77-35.92l-21.81-2.81.77,1-4.63-7.94c1.85,4.58-.13-8.6-.07-3.33q1.37-3.1.35-1L144,61.84Q141.92,66,139.8,70q-4.89,9.39-10.17,18.56-10.33,18-22.09,35c-5.35,7.78-1.71,20.31,6.46,24.63,9.15,4.84,18.92,1.85,24.63-6.46q14.07-20.48,26.16-42.23c3.86-7,7.59-14,11.09-21.2,2.45-5,4.88-10.14,5-15.86.1-6.91-2.36-11.88-6.61-17.32-4.48-5.73-15.95-7-21.81-2.81-34,24.44-64.22,53.36-94.14,82.56l28.27,21.81c22.1-33.62,46.53-65.82,69.7-98.7,4.32-6.13,8.71-12.23,12.83-18.5s2.81-16.65-2.81-21.81c-6.31-5.8-14.22-6.31-21.81-2.81C133.83,9.8,124.1,16.57,114.75,23.55c-12.23,9.13-24,18.83-35.54,28.83-19.75,17.13-38.59,35.28-58.4,52.34l25.46,25.46C61.42,113.76,76.06,97,89.48,79.12c12.7-16.93,24.46-34.56,36.68-51.83,4.12-5.82,2.64-14.75-1.41-20S112.44-1.78,105.83.84C67,16.2,32.17,40.12,5.13,72c-6.08,7.18-7.57,18.51,0,25.46,6.7,6.15,19,7.67,25.46,0Z"/>
      <g id="Layer_2-3" data-name="Layer 2">
        <g id="Layer_3" data-name="Layer 3">
          <g>
            <path class="cls-2" d="M50.2,60.64l-2.47-.3a6.76,6.76,0,0,1-1.19-.17c-1-.29-1.11-1-.34-1.62,2-1.66,4-3.33,5.95-5a8.12,8.12,0,0,0,1-1.19,6.29,6.29,0,0,0-1.42-.69c-.87-.18-1.76-.13-2.63-.32a1.85,1.85,0,0,1-1.11-.75c-.12-.2.17-.8.43-1,2.93-2.64,5.88-5.25,9-8a7.11,7.11,0,0,0-1.42-.4c-.77-.08-1.54,0-2.31-.09a1.11,1.11,0,0,1-.83-.51,1,1,0,0,1,.35-.9,36.11,36.11,0,0,1,3.41-1.59c1.11-.44,2.22-.79,3.39-1.19.31-.1.56-.32.71-.22h-2c-.28-.39-.6-.25-.82-.39a1.54,1.54,0,0,1-.84-.67,1.11,1.11,0,0,1,.35-.91c2.5-2.09,5-4.2,7.57-6.17,1.77-1.32,3.58-2.78,5.93-2.78,2.06,0,4.13.13,6.19.27q6.17.38,12.35.84l9.76.68c4.33.32,8.65.78,13,.93,3.11.11,6.22-.18,9.33-.27a31.06,31.06,0,0,1,12.62,1.9,71,71,0,0,1,6.66,3.44c.81.43,1.63.87,2.4,1.36a5.15,5.15,0,0,1,.89,1c-.55.18-1.35.68-1.62.48a3,3,0,0,0-2.55-.28c-1.11.17-2.22.37-3.55.6,1.4.75,2.62,1.33,3.75,2.05,1.7,1.11,3.33,2.22,5,3.47a1.31,1.31,0,0,1,.49,1.11c-.07.3-.55.58-.92.71-1.32.48-2.65.9-4.22,1.41.45.42.69.69,1,.9q2.42,1.77,4.85,3.52a14.74,14.74,0,0,1,1.39.9,4.74,4.74,0,0,1,.69,1.11,4.5,4.5,0,0,1-1.18.65c-1.33.28-2.67.45-4,.67v.32c.49.4,1,.79,1.45,1.2l5.15,4.44a6.45,6.45,0,0,1,1.11.94,1.46,1.46,0,0,1,.14,1.11c0,.14-.58.27-.87.22-2-.29-3.67.47-5.49,1l2.62,3.44c1,1.24,1.91,2.48,2.85,3.74.75,1,1.52,2,2.22,3.05a1.68,1.68,0,0,1,.16,1.2c0,.2-.57.44-.82.4-1.59-.3-3.15-.69-4.73-1-1.11-.22-2.22-.4-3.33-.54-.82-.1-1.26.27-1.41,1.11a28.58,28.58,0,0,0-.58,6.26c.17,3.05-.06,6.12.39,9.19v8a41.09,41.09,0,0,0-.36,7.83c0,2.61.12,5,0,7.53-.12,2.22-.53,4.54-2.56,6a10.52,10.52,0,0,1-3.56,1.79c-2.72.61-5.55.94-8.28,1.32-1,.13-2,0-3,.11-5.55.34-11.09.65-16.58,1.11-2.42.19-4.83.55-7.22,1s-4.84.93-7.24,1.42a22.76,22.76,0,0,1-7.06.2c-1.62-.18-3.26-.14-4.88-.34s-3.22-.5-4.8-.83c-1.31-.28-1.68-.88-1.72-2.29-.11-3.26-.27-6.52-.42-9.78-.13-2.83-.35-5.65-.41-8.48-.08-4,0-8-.07-12.06a20.44,20.44,0,0,0-.5-3.64,2.34,2.34,0,0,0-2.57-2.09l-.13,0a17,17,0,0,0-3.73,1,3,3,0,0,0-1.83,3c-.08,2.12-.16,4.25-.12,6.37,0,2.58.27,5.16.24,7.77s-.24,5.34-.34,8c-.06,1.66,0,3.33,0,5a23.11,23.11,0,0,0,.12,2.4.85.85,0,0,1-.75,1,15.53,15.53,0,0,1-5,.12,10.93,10.93,0,0,1-4.81-1.43c-.16-.09-.4-.14-.47-.28a16.45,16.45,0,0,1-1.72-3.9c-.59-3.54-.18-7.1,0-10.66.19-3.33,0-6.66.11-10,0-2.22.23-4.55.4-6.81.26-3.53.61-7.06.81-10.59.09-1.59-.1-3.19-.16-4.79,0-.63-.33-.93-1-.79-1.11.28-2.22.62-3.33.89a17.24,17.24,0,0,0-2.57.51,17.87,17.87,0,0,0-3.13,1.74c-.55.38-1.11.59-1.58.16s-.17-.88.12-1.3c1.2-2,2.32-4,3.57-5.92s2.55-3.68,3.82-5.5C49.57,61.68,49.79,61.28,50.2,60.64Zm9.72,8.16c.83-.07,1.31,1.44,2.35.41l.22,1,1.21.2.49-1.89-.33.12c-.34-.29-1-.68-1-.83.3-.93,1.11-.44,1.79-.48-1.18-.65-3.57.1-4.75,1.46-1.32.27-3,2.67-2,4.22.43-1.11.81-2.05,1.24-3A10.57,10.57,0,0,1,59.91,68.8Zm.73,50.31h1.93c.64.33.92.16.85-.53-.11-1.22-.11-2.45-.26-3.66a5,5,0,0,0-.68-1.34l-.74,2.16,1,1.11h-.38c-.22.41-.63.81-.64,1.22a1.28,1.28,0,0,1-1.11,1.42,4.17,4.17,0,0,0-.38-.87c-.29-.39-.85-.69-.94-1.11-.31-1.36-1.35-1.33-2.43-1.48l-.24,2.74a10,10,0,0,0,1.54.49,6.06,6.06,0,0,0,2.45-.16Zm62.93-44.6a18,18,0,0,1-.93-2c-.39-1.2-.35-1.21-1.63-1s-1.68-.39-1.56-1.55v-.75l-2.26,1.88v.22a5.54,5.54,0,0,1,4.3,1.93,7.9,7.9,0,0,0,1.35,1.13,2.34,2.34,0,0,0,.76.19c.07.69.35.44.69.17l4.09-3.39c-.18-.91-.11-1,1.22-1.4.79-.26,1,.23,1.18.79a8.35,8.35,0,0,0,.72,1.22,11.19,11.19,0,0,0,1.16,1.71,10.15,10.15,0,0,0,1.49,1.07c1,.76,1,.77,2.28-.1-.67-.49-1.52-.88-1.28-1.8a7,7,0,0,1-.91-.63c-.84-.82-1.6-1.7-2.48-2.47-1.7-1.51-3.18-1.43-4.75.23-.61.65-1.17,1.35-1.72,2s-.91.6-1.4.1a5,5,0,0,1-.33-.43l-.26.13c.28.63.56,1.25.84,1.89S124.38,74.62,123.57,74.51ZM58,68.53l3.26-2a4,4,0,0,1,5.6,1l0,.07c.33.44.63.91.93,1.38a1,1,0,0,0,1.5.3,36,36,0,0,1,3.76-2.14,7,7,0,0,1,4.51-.49,3.73,3.73,0,0,1,2.67,2.22c.74,1.56,1,1.6,2.47.69,1.16-.73,2.37-1.42,3.61-2a4.88,4.88,0,0,1,6,.88c.81.75,1.61,1.53,2.35,2.35a1.1,1.1,0,0,0,1.8.13c1.11-1.11,2.37-2.05,3.54-3.11a3.13,3.13,0,0,1,3.87-.72c2.1,1.11,4.2,2.22,6.3,3.26.52.27,1,.61,1.61.14q2.06-1.54,4.18-3a9,9,0,0,1,1.7-.92A2,2,0,0,1,120,67c1.29,1.19,2.67,2.22,4,3.41a.7.7,0,0,0,1.11-.08c.75-.81,1.44-1.69,2.22-2.42s1.59-1.63,2.63-1.11a49,49,0,0,1,4.6,3c.29.19.53.44.89.73.28-1.19.53-2.22.77-3.22.51-2.22.65-2.3,2.87-2.41l.28-.34c-1.11-1.26-2.3-2.54-3.43-3.86a1.63,1.63,0,0,1-.44-1c0-.22.49-.44.8-.58,1-.44,2-.83,3.17-1.3a6.21,6.21,0,0,0-.6-.84c-.43-.43-1-.78-1.36-1.23l-3.88-4.44c-.23-.27-.5-.79-.39-1a1.76,1.76,0,0,1,1-.59,17.48,17.48,0,0,1,1.89-.31c-.39-.44-.58-.67-.79-.88-1.41-1.42-2.84-2.78-4.18-4.23a1.7,1.7,0,0,1-.4-1.21c0-.2.6-.41.94-.49,1.11-.23,2.22-.41,3.52-.65a10.72,10.72,0,0,0-.89-.77c-1.86-1.25-3.75-2.47-5.6-3.73-1.11-.75-1-1.51.16-2.14.43-.22.84-.48,1.26-.72l-.08-.29c-1.11-.41-2.3-.87-3.46-1.24a13.64,13.64,0,0,0-5.2-.81,70.43,70.43,0,0,1-7.85.41c-6.81-.22-13.61-.61-20.41-1a14.6,14.6,0,0,1-3.39-.18,27.6,27.6,0,0,0-5.24-.49c-2.15-.16-4.3-.41-6.46-.42a61.45,61.45,0,0,0-6.18.33,5.92,5.92,0,0,0-3.8,1.81c.61.65,1.11,1.28,1.74,1.85.88.85,1.81,1.66,2.67,2.54a1,1,0,0,1,.2.87,1.79,1.79,0,0,1-.88.52,1.16,1.16,0,0,1-.54,0c-2.72-.45-5,.94-7.49,1.83,1,1.26,2.12,2.36,3.17,3.49.22.23.5.77.41.87a2.53,2.53,0,0,1-1.11.67c-.27.09-.61-.09-.91-.06-2.85.27-4.9,2.1-7.18,3.52.08.2.09.3.14.35,1.2,1.11,2.43,2.22,3.59,3.45a1.87,1.87,0,0,1,.47,1.11c0,.14-.6.33-.94.44s-.51,0-.72.09c-1.83.8-3.65,1.63-5.47,2.45-.35.17-.69.38-1,.57l.3.42a6,6,0,0,1,.84.27c1.32.63,2.65,1.26,3.94,2a.91.91,0,0,1,.34.82,1.11,1.11,0,0,1-.8.63c-2-.07-3.46,1.2-5,2.22C53.3,64,53,64.77,52.6,65.3l.27.32c1.26-.34,2.54-.64,3.77-1.11.9-.3,1.39,0,1.38.91S58,67.48,58,68.53Zm77.8,15.59h-.57V78.68a1.36,1.36,0,0,0-.11-1.77c-1.11-1.11-2.48-2-3.66-3a2.22,2.22,0,0,0-3.43,0,37.38,37.38,0,0,0-3.05,3c-.59.69-1,.88-1.72.26a46.83,46.83,0,0,1-3.8-3.49,3.62,3.62,0,0,0-4.44-.45c-1.33,1-2.67,2-3.94,3.05a2,2,0,0,1-2.84.09l-.09-.09c-1.42-1.11-2.88-2.22-4.38-3.23a4.18,4.18,0,0,0-3.78.2c-.84.62-1.73,1.19-2.53,1.86s-1.22,1.33-1.9,1.92a1.46,1.46,0,0,1-1.18.38,8.4,8.4,0,0,1-2.05-1.36c-.92-.81-1.72-1.76-2.64-2.58a1.77,1.77,0,0,0-2.29-.26c-1,.64-2.14,1.21-3.17,1.87a9.7,9.7,0,0,0-1.62,1.34A1,1,0,0,1,81,76.26c-1.11-1.82-3-2.9-4.58-4.23a2.56,2.56,0,0,0-3.11-.12A17.11,17.11,0,0,0,68.16,76c-.58.75-1.11.68-1.75-.12-.8-1.11-1.6-2.12-2.45-3.13-1.05-1.24-1.11-1.28-2.53-.48a5,5,0,0,0-2.87,4.1c-.08,1.4-.27,2.8-.37,4.19-.22,2.91-.54,5.81-.61,8.73q-.19,9.14-.11,18.29c0,2,.42,4.08.62,6.12.09,1,.74,1,1.46,1s1.11-.31,1-1.16,0-1.72,0-2.58c-.1-2.37-.32-4.74-.31-7.11,0-4.2.14-8.41.26-12.61,0-1.91.17-3.8.28-5.71a2.93,2.93,0,0,1,2.33-2.84A15.15,15.15,0,0,1,68,81.85c2.22.08,4.44.19,6.66.28a3.89,3.89,0,0,1,3.63,3.74c0,1.54.23,3.07.33,4.6s.23,3,.22,4.53c0,3.33-.22,6.59-.13,9.88.11,4,.44,8.1.73,12.14a1.18,1.18,0,0,0,.9.84,42,42,0,0,0,4.64.21c3.8-.08,7.62-.13,11.41-.37,3.41-.21,6.79-.68,10.18-1,2.12-.2,4.25-.27,6.36-.5,3.51-.39,7-1,10.52-1.29a61.49,61.49,0,0,0,10.14-1.58,2.33,2.33,0,0,0,1.4-3.88c-.13-.19,0-.55,0-.83s.24-.42,1.38-.63v-6.47a11.87,11.87,0,0,1-1.13-6.46C135.35,91.39,135.59,87.71,135.83,84.12Zm-18.86,37-.21-.45c-.22-.39-.35-.92-.69-1.11-.61-.38-.62.5-1,.65a3,3,0,0,1-.93.08c0-.3-.13-.77,0-.88.45-.34,1-.81,1.53-.77.71.07,1.68.09,1.87,1.11.08.41.23.81.42,1.45.49-.24,1.11-.34,1.3-.69a29.69,29.69,0,0,0,1.82-3.33c.4-.82.49-.87,1.11-.21l-1.83,3.86,4.06-.27.24-1.74a9,9,0,0,1-1.18.74.69.69,0,0,1-.63-.14.65.65,0,0,1,0-.63,12.58,12.58,0,0,1,1.38-1.48,1,1,0,0,1,.81-.27c.2.07.33.45.4.72a5,5,0,0,1,.13.83l1.76-.29a.43.43,0,0,0,.24-.1l2.11-2.6c-5.77.44-11.23.59-16.55,1.92l.5,1.26-.17.11-1.41-.89-.9,3.52Zm-20.2-2H82.19v3.39h.28l.53-.93a5.81,5.81,0,0,1,.77-1.24,1.3,1.3,0,0,1,1-.34c.22,0,.45.55.46.87.06,1,0,2,1.28,2.46.65.27,1,.37,1.47-.21.23-.31.52-.58.77-.86l.18.12-.21,1.26h3c1.52,0,3-.12,3.49-1.93.08-.25.33-.44.46-.68.34-.61.65-1.26,1-1.91Zm43-36.76V79.74c0-1.63.17-3.25.19-4.88s.23-3.33,1.68-4.57a2.86,2.86,0,0,0,.4-.53,12.73,12.73,0,0,0-2.43.3c-.73.11-1.35.92-2.45.33a13.48,13.48,0,0,1,1.71-1.11,14.27,14.27,0,0,1,1.93-.58c-.19-.77.11-1.11.75-1.4a21,21,0,0,0,2.37-1.46l-2.63-1c.09.54.38,1.11.21,1.44-.33.6-1,.48-1.55.2l-.26-.12c-1-.29-2-.06-2.31.65a10.27,10.27,0,0,0-.72,5.37,9.79,9.79,0,0,1,1.74-.22c.3,0,.58.33.87.51a4.28,4.28,0,0,1-.55.64,2.52,2.52,0,0,1-.64.27c1.24,1.65,1.24,1.65-.49,3,.51.19,1,.32,1.41.52.79.38.92,1.11.31,1.6a16.76,16.76,0,0,0-2.05,1.5,2,2,0,0,0-.3,1.31c0,.14.41.37.67.43A15.28,15.28,0,0,0,139.77,82.36ZM51.08,57.69c.78-.35,1.6-.68,2.37-1.11l7-3.72a22.45,22.45,0,0,0-3.17-2.56c-1.11-.63-1.42-1.11-.51-2.1l-1.33-1.75c-1.29,1.11-1.22,2.62-1.28,4.07a11,11,0,0,1,1.11.48c.77.43.82,1.11.14,1.62-1.38,1.11-2.74,2.22-4.16,3.33C50.62,56.42,50.41,56.85,51.08,57.69ZM135,119.38a1.11,1.11,0,0,1,0-1.72c.93-1.16,1.79-2.41,2.71-3.58a2.43,2.43,0,0,1,.8-.45c.09.35.33.77.23,1a4.8,4.8,0,0,1-.85,1.19l-2.6,3.26a5,5,0,0,0,3.21-1.9,10.62,10.62,0,0,0,1.3-2.93,1.33,1.33,0,0,0-.16-1.18,22.74,22.74,0,0,0-2.44-1.55,4.8,4.8,0,0,0-.11.64,1.71,1.71,0,0,1-1.38,2c-1.3.34-2.56.8-3.8,1.2l-.88,4.7Zm4.75-79V40c-.31,0-.84-.18-.91,0a9.06,9.06,0,0,0-1.31,2.48c-.2.9-.55,1.26-1.48,1a5.78,5.78,0,0,0-4.17.45c1.71,1.75,2.76,4,5.65,3.61a7.38,7.38,0,0,1,2,.17c.57.08,1.11.21,1.68.32a5.24,5.24,0,0,0-2.91-1.63,1.34,1.34,0,0,1-.93-.77c-.16-.48.08-.89.71-1.11a6.91,6.91,0,0,0,1.52-.9c-1-.74-.14-1.53-.18-2.27l-.71-.22Zm-3,63.85c.08,1.68.12,3.11.23,4.54,0,.21.37.45.62.55.54.22.91.47,1,1.11.08.91.79,1.34,1.66,1.72.06-.8.17-1.48.16-2.14,0-2.14-.1-4.29-.2-6.43,0-.32-.32-.93-.44-.91-.58.07-1.39-.09-1.49.83S137.86,104.84,136.74,104.21ZM54.95,67.78l.21.19a2.4,2.4,0,0,1-.11.5,4,4,0,0,0-.47,3.08c.17,1.76.19,3.55.28,5.32,0,.38.07.74.1,1.11l1.26-.42A5.58,5.58,0,0,0,57,77.2a6.41,6.41,0,0,0-.64-.55c-.14-.1-.35-.08-.51-.17a4.58,4.58,0,0,1-.54-.41,2.22,2.22,0,0,1,.48-.49c.38-.2.8-.32,1.44-.58l-1.44-.37.49-1.15-.3-.38a1.62,1.62,0,0,0,.6-2.21h0a3.11,3.11,0,0,1-.17-1.11c0-.73.16-1.45.12-2.22-.09-1.79-.12-1.79-1.85-1.36-1.53.37-1.92,1.11-1.34,2.66Zm82.44-19.54-.16.28c.06.1.09.23.18.29.4.3.92.67.54,1.18a2.54,2.54,0,0,1-1.31.58,16.64,16.64,0,0,1-1.72.29l2.77,3.25,1.85-.43.23,1.26c.43-.13.94-.32,1.48-.44s1,.11.85.79a5.25,5.25,0,0,1-.2,1l.17.06L143,55c-.48-.34-.91-.64-1.32-1s-.75-.47-.9-.8,0-.79.06-.7h-.12l-1.33-.25a7.77,7.77,0,0,1,.64-1.16c.5-.63,1.11-1.22,1.73-2h-2.43a3.08,3.08,0,0,1-1-.33A11.2,11.2,0,0,1,137.39,48.25Zm2.38,49.92v-9c-.59.16-1.22,0-1,1,.09.33-.21.75-.34,1.11l-1.92-1.1-.23,3.33,1.49-.53.08-.93a4.79,4.79,0,0,1,1.11.3,1,1,0,0,1,.51.69c0,.17-.38.39-.62.52a4.69,4.69,0,0,1-.78.28c.79,1.11.69,1.49-.54,2-.33.14-.81.3-.92.58-.19.48-.4,1.24-.16,1.53s.75,1.32,1.71.79A11.09,11.09,0,0,1,139.77,98.17Zm-76.05,8.65a5.07,5.07,0,0,0,.11-.67c-.14-2.85-.27-5.71-.44-8.56-.08-1.23.34-2.58-.8-3.61-.11-.1-.06-.35-.12-.53s-.21-.5-.32-.75a.93.93,0,0,0-.29.57c-.31,1.72.07,3.46-.17,5.2-.19,1.35,0,2.76-.08,4.14-.07.87,0,1.39,1,1.52.32,0,.57.55.85.85l-1,.44ZM89.81,67.94a13.7,13.7,0,0,0-2,.19c-2.16.55-3.78,2.07-5.61,3.23a.61.61,0,0,0-.2.53,16.12,16.12,0,0,0,.67,1.7c.2.44.48.72,1,.37q1.52-1,3.06-2l2-1.3Zm55-3.11.16-.19-2.64-2.54c-.33-.1-1-.11-1.11-.41s.1-.84.2-1.26c0-.14.17-.26.22-.4l1.25-3.33-.43-.13a7.39,7.39,0,0,0-.74,1.45c-.16.59-.49.73-1,.89a29.12,29.12,0,0,0-3,1.11c-.13.06-.27.5-.2.57.92.94,1.22,2.45,2.83,2.78A42,42,0,0,1,144.83,64.83ZM77.61,111.22l-.32-9.74-2.12,1.44.39,8.3Zm30.16-39.59a5.08,5.08,0,0,1,1.11.14,1.6,1.6,0,0,1,.77.52,6.06,6.06,0,0,1,.62,1.33.62.62,0,0,1-.08.54.61.61,0,0,1-.55.12,1.73,1.73,0,0,1-.61-.54c-.82-1.11-.81-1.11-2.22-.61.38.34.72.69,1.11,1a3,3,0,0,0,3.63,0c.74-.59,1.46-1.21,2.22-1.76.52-.38,1.11-.6,1.63-1,.91-.77,1.73-1.63,2.61-2.43.34-.32.73-.59,1.11-.88l-.13-.33a10.92,10.92,0,0,0-1.55.44,6,6,0,0,0-1.22.82c-1.34,1.11-2.7,2.12-4,3.23-.61.52-1,.54-1.55-.07a8.44,8.44,0,0,0-1.44-1.34C108.29,70.16,108,70.32,107.77,71.62ZM59.87,40.09h-.26a2.55,2.55,0,0,0,0,.93c.42,1.16.31,1.25-.73,1.79A29.35,29.35,0,0,0,56,44.65l.75,1.83a10.89,10.89,0,0,1,.5-1.9,1.25,1.25,0,0,1,1-.69c.28,0,.62.44.8.77A6.92,6.92,0,0,1,59.35,46l.49.26a7.77,7.77,0,0,1,.68-1.11,14.92,14.92,0,0,1,1.73-1.79,1.61,1.61,0,0,1,1.11-.16c.17,0,.31.33.47.51-.27.22-.52.47-.8.68l-.91.67.16.21c.87-.29,1.74-.54,2.6-.89.11,0,.17-.61,0-.74-.48-.55-1.05-1-1.58-1.54s-1-1-1.92-.77c-.23.07-.62-.18-.85-.38A4.91,4.91,0,0,1,59.87,40.09ZM55.78,96.56l.5-11.6c-1,.51-1.35,1-1.11,1.84.06.21-.27.77-.39.75-.78,0-.84.44-.87,1s-.06,1.31-.09,2l.33.24.6-1.25.42.24L55,91c.8.84.79.89,0,1.8-1,1.11-1.73,2.22-1.16,3.73Zm14-69.3v.39c.49.59,1,1.18,1.48,1.74a1.23,1.23,0,0,0,.72.45c1.11,0,2.22-.09,3.33-.14.67,0,1-.32,1-1a1.6,1.6,0,0,1,0-.67c.2-.53,0-.8-.53-.8Zm65,4.58-.34-.38a16.48,16.48,0,0,0-1.55,1.32c-.29.29-.7.73-.65,1.05.13,1-.5,1.22-1.11,1.6s-.92.61-1.56,1l3.33,2.22,1.52-1.4-.79-.28c.09-.53.39-1.11.21-1.4-.61-.83-.17-1.51.19-2.31h-.9a8.61,8.61,0,0,1,.74-.87A8.87,8.87,0,0,1,134.77,31.84ZM64.55,83.63c-1.7.32-2.16.8-2.33,2.51A21.32,21.32,0,0,0,62.13,89c0,.34.26.9.49,1,.45.11.87-.08,1.11-.7A11.85,11.85,0,0,1,65,86.8a.92.92,0,0,0,.16-1A16.64,16.64,0,0,1,64.55,83.63Zm-.11-45.75a20.47,20.47,0,0,0,1.5-2.11c.37-.68.8-.55,1.3-.31a4.61,4.61,0,0,1,.62.45l.81-.91c-.72-.24-1.28-.48-1.85-.62s-.88-.22-1.05-.83A5.86,5.86,0,0,0,65,32.2c-.54.65-.55.65-.58,2.66,0,.79,0,1.54-1.11,1.42-.11,0-.23.16-.35.23q-.54.37-1.11.69c-.45.22-.94.39-1.49.6l.75,2.06C62.61,37,62.92,36.88,64.44,37.88ZM98,122.05l.34.09c.18-.3.34-.61.54-.9s.45-.58.69-.87c.88-1.11,1.66-1,2.4.23.24.41.5.81.83,1.32a9.06,9.06,0,0,0,1.8-3.66l-6.6.65Zm-5.1-51.89-.47.16-.3,3.33c.51.42,1.11.9,1.72,1.44a.91.91,0,0,0,1.45,0c.78-.84,1.51-1.74,2.22-2.64a2.61,2.61,0,0,0,.28-.73l-.2-.14c-.39.43-.8.85-1.16,1.31a1,1,0,0,1-1.72-.17C94.17,71.81,93.51,71,92.89,70.16Zm-46.23.37a2.64,2.64,0,0,1,2.83-.71l1-1.74-.11-.13L47.78,69.2,47.7,69l1-1.11L47.15,67l-3.39,5.69.22.19,4-1.63ZM101.59,29c-2.47-.18-4.69-.37-6.9-.45-.18,0-.51.61-.54,1s.19,1.11.32,1.11c1.83.09,3.73.78,5.44-.45C100.33,29.81,100.86,29.49,101.59,29Zm9.72,88.63-5.55.33a4.9,4.9,0,0,0,4.13,3.25ZM53.63,59l-.75,1a7.9,7.9,0,0,0-.8-.93.94.94,0,0,0-.69-.29,3.12,3.12,0,0,0-.82.45c.51.31,1.24.51,1.4.93s-.35,1-.65,1.44c-.47.68-1,1.3-1.68,2.13,1.11-.23,1.83-1.33,2.58-.54l5.21-2.87c-1-1-1.85-1-2.67.19-.21.3-.41.62-.61.92s-.62.87-1.11.38c-.19-.21-.1-.84.07-1.19A11.16,11.16,0,0,1,54.21,59Zm23.2,26.73a1.85,1.85,0,0,0-1.38-1.94c-1.59-.34-3.23-.44-4.95-.67.07.88.2,1.3.89,1.49,1.31.37,2.68.65,3.45,1.81Zm49.83-56.08-.37.33c.24.68.29,1.61.77,2,1.34,1,4.26.33,5.55-1.24ZM101.9,71l4,1.49c.37-.63.77-1.25,1.11-1.92.12-.27.18-.82,0-.92a13.91,13.91,0,0,0-1.79-1l-.19.12c.61.7-.82,1.62.5,2.32-.49.21-1.19.5-1.26.37a9.22,9.22,0,0,1-.75-1.86Zm-16-42.78-4.59-.51-.1.26.71.5-.69,1.29c.93.07,1.79.11,2.63.19a1.89,1.89,0,0,0,2-1.72Zm51.28,61.26c1-.69,2-1.34,3-2a.67.67,0,0,0,.16-.51c-.06-1-.13-2-.22-3.15l-.91.43c.93,1.11.89,1.38-.33,2.06-.57.32-1.11.6-1.89,1l1.22.45C137.79,88.26,136.54,88.17,137.19,89.46Zm-32,30c-1,.63-1.31,1.7-1.72,3l4.44-.59Zm25.71-2.94-.35-.16a2.22,2.22,0,0,0-.33.28c-.87,1.11-1.74,2.13-2.58,3.22-.33.42-.61.79-1.2.4a2.24,2.24,0,0,0-.4.22l.1.29,3.22-.35ZM71.29,69.25a13.73,13.73,0,0,1-1.86,1.63,16.15,16.15,0,0,1-2.47,1l1.41,2c.29-1.55,1.31-2.29,2.22-1.62l.57-.51C70.88,71.38,70.94,70.59,71.29,69.25ZM54,100.31l.69-2.05c-.78.22-1.05,2.6-.6,3.68l2.13-.42V97.89c-.77.81-.68,2.16-2.23,2.4Zm11-70.09a9.51,9.51,0,0,0,1,1.51,1.46,1.46,0,0,0,.93.18c.35-1.11.63-2.15.93-3.23l-.28-.23ZM78.21,68.29a4.27,4.27,0,0,0-.45-.39,1.93,1.93,0,0,0-.34-.12,5.65,5.65,0,0,0-3.65.42c-.92.34-1.11.65-.6,1.44.68-.3,1-1.25,2-1.16l-.57,1.34C75.41,70,76,70,76.11,69c.07-.61.34-1,1.11-.55C77.35,68.54,77.71,68.36,78.21,68.29Zm60.71,33.19-2.53-2.14v4ZM56.55,109l-.18-2L54,106.61V109Zm55-77.9c.33-1.49.33-1.48-1-1.61l-1.28-.14c-.74-.1-.65.52-.73.91a.64.64,0,0,0,.67.84ZM98.11,72.64c2.5-1.11,3-1.86,2.22-3.49C98.86,69.78,98.73,71.27,98.11,72.64ZM143.21,59a10.53,10.53,0,0,1,.87-.68c.42-.26,1.11-.78,1.26-.64.4.29.57.9.83,1.39l.2.12.78-1-2.85-2.22ZM143.16,71l.11.14,4.44-3.38-1.18-1.46c.08,1.31,0,1.21-.84,2A29.85,29.85,0,0,0,143.16,71Zm4.12-.84c.6.53,1.22.83,1.41,1.31.37.9.52,1.11,1.71.78L148.18,69ZM54,110.09v2.09l2.26-.81v-1l-1.12.31C54.91,109.43,54,110.39,54,110.09Zm26.39,11c-.28.3-.4.5-.58.59a11.09,11.09,0,0,1-1.11.39,4.67,4.67,0,0,1-.22-1.11,7.43,7.43,0,0,1,.27-1.11,4.28,4.28,0,0,0,0-.77H78.4c-.27,1-.55,2-.78,3a.71.71,0,0,0,.4.47c.83.14,1.68.22,2.63.34Zm-4.92-20.76c1.47-.09,2.26-.84,1.93-1.84l-.82.16V97.8l-1.13-.17Zm24.71,20.21L98.72,123l3.26-.32ZM47.76,66.35a25.77,25.77,0,0,0,2.58,0c.22,0,.43-.42.59-.68a1.6,1.6,0,0,0-.52-.44c-.42-.24-.87-.47-1.33-.71Zm72.35-35.28c-.34-.59-.49-1.2-.82-1.34a3,3,0,0,0-1.62,0c-.18,0-.41.49-.38.72s.31.64.52.65A19.28,19.28,0,0,0,120.11,31.08ZM101.86,69.76l2.29-1.43a2,2,0,0,0-2.79.12l-.14.17ZM53.94,116.13l1.4,2a5.55,5.55,0,0,0,.33-1.65c0-.52.1-1,.17-1.79ZM50.21,70.81c1.62,0,2.44-1.71,1.58-3.42Zm1.73-22.4-.27-.17-1.34,1.83,2.06.52.16-.11ZM62,110.09c1.2.12,1.87-.49,1.6-1.5-.08-.3-.67-.5-1.11-.63-.11,0-.5.24-.52.41a14.74,14.74,0,0,0,0,1.72ZM145.62,51.3l.14-.32-2-2.3L143,49.79c1.23.21,1.11.92.58,1.85ZM62.42,35.38l-.77-2.27-2.09,1.66Zm-10,12.46,1,1.71.92-3.41L54.15,46Zm90.44,13.08.2.29L144.6,61l.12-1.89-.28-.16Zm-4-27.44-.18,1.71,2.22-.29v-.23ZM75.1,90l.18,2h.27l1.11-2.22-.24-.16ZM65.66,72.79l.8-2.82C64.83,70.89,64.65,71.51,65.66,72.79ZM80.36,27.7l-.78-.14-1,1.84C79.59,29.87,79.69,29.61,80.36,27.7ZM77.26,90.47,77,90.41l-1.11,2.42,1.58-.27Zm59.12-55.28V33.55l-2,1.75.14.27ZM91.45,72.91l-.14-2.09-1.62.7Zm4.67,48.59-.9,2.13,1.77-.22ZM54.58,105.11c1.33-.42,1.59-1,.91-1.93C54.25,104.29,54.24,104.31,54.58,105.11Zm8.67-70.67h.3l.29-2.91-1.11,1ZM76.85,118c1,.26,1.22,0,1.11-.79-.08-.5-.09-1-.13-1.51h-.18Zm7.44,5.18-.47-1.83h-.29L82.69,123Zm8.55-94.64-.14-.24c-.3.08-.8.07-.87.23a11.6,11.6,0,0,0-.47,1.81l.39.13ZM70.49,37l.07-.26c-.34-.18-.77-.57-1-.47a4.74,4.74,0,0,0-1.16,1l.22.26ZM47.6,59.06l2.06.32L49,57.78ZM140.35,43l.23.13,1.62-1.32c-.51-.74-.7-.83-1-.39A15.53,15.53,0,0,0,140.35,43Zm-18.57,27.3.09-.26a7.31,7.31,0,0,0-1-.85c-.11-.07-.54.13-.6.28s0,.69.14.72A7.1,7.1,0,0,0,121.78,70.29Zm16.06-30.37-.13-.14-1.89,1.16,1.11.69ZM91.93,69.26l-1.35-.8L90.12,70l.22.18Zm-32.7,2.68.29.19L60.89,71l-1-.69ZM137.5,84,139,83,139,82.8l-1.45-.12ZM57.9,45.4l-.12,2.05C59.09,47,59.11,46.86,57.9,45.4ZM76.4,96c1.21,0,1.43-.49.89-2ZM57,39l-1.11.87.11.23,1.53.22c-.12-.39-.17-.6-.24-.79S57.06,39.22,57,39Zm20.25,80.43c-.88.07-.88.07-.47,2.09Zm-17.46-3.33.93,1.29.45-1.53ZM78,71.53l.1-1.79a2,2,0,0,0-.37.24c-.23.3-.45.61-.73,1Zm-23.79,43,.18.21,1.92-1.53-.27-.32ZM68.67,30.7l1.59-.8-.81-.79Zm71.28,70,.23-.12L140,99.23l-1,.77Zm-76.71,6.6L62,106.17C61.69,107.32,62.32,107.3,63.24,107.28ZM89.17,29.91l1-1.33C89.23,28.49,89.1,28.61,89.17,29.91ZM53.34,113.26l.21,1.34h.21l.59-1.11ZM66.49,85.75l1.22-.53-1-.91Z"/>
            <path class="cls-2" d="M86.7,87.49c.16-.4.33-.8.45-1.22a3,3,0,0,0,.13-.91c0-1.74.67-2.13,2.74-2.32,2.75-.24,5.55-.49,8.26-.7,2.22-.17,4.44-.35,6.72-.42,4.16-.12,8.32-.13,12.47-.26,3.63-.11,7.25-.34,10.88-.44a5.27,5.27,0,0,1,2.68.49,3.17,3.17,0,0,1,1.25,2,34.58,34.58,0,0,1,.42,4.78c.07,1.65,0,3.33,0,5,0,2.41-.18,4.81,0,7.2a7.57,7.57,0,0,1-1.26,4.69A5.66,5.66,0,0,1,127,108c-3,.35-6,.62-9,.87q-5,.42-10.11.75c-.73,0-1.48-.13-2.22-.12q-6.72.14-13.46.33c-1.11,0-2.13.13-3.19.13a2.65,2.65,0,0,1-2.7-2.5c-.08-1.56,0-3.13,0-4.7.1-3.59.21-7.2.32-10.79,0-.71.12-1.42.12-2.12S86.75,88.24,86.7,87.49Zm31.62,14.7v.34l8.12-1.11c1.5-.23,2.05-.9,1.94-2.22a24.08,24.08,0,0,0-.37-2.93,17.52,17.52,0,0,1-.06-6.38c.2-1.28.4-2.55.52-3.83.06-.63-.22-1-1-.94-1.19.12-2.4.18-3.59.2-2.74,0-5.49,0-8.22.1-2.39.09-4.77.34-7.17.52-.73,0-1.48.07-2.22.12l-6.08.47c-2.83.23-5.65.45-8.46.73a1.23,1.23,0,0,0-.88.62,7.63,7.63,0,0,0-.6,2.48c0,3.33.1,6.66.17,10a27.42,27.42,0,0,0,.1,2.86c0,.57.14,1.11,1,1,2.85-.24,5.7-.44,8.55-.62,2.3-.14,4.6-.2,6.91-.38,3.8-.33,7.58-.7,11.34-1Zm4.76,5a4.3,4.3,0,0,1-.37-1,4.19,4.19,0,0,1,.19-1c.23.22.47.47.71.68.48.41.93,1.11,1.46,1.11a8.25,8.25,0,0,0,2.15-.41c2.65-.38,4.56-3.83,3.92-6.42-.72-.2-.93.07-.79.8a1.54,1.54,0,0,1-1,1.91l-.24.05c-1.11.21-2.12.41-3.18.57-.51.08-.8.27-.82.8s-.31.61-.79.67c-1,.1-.54-.67-.73-1.51h-2.22c-.49.4-.7.74-.48,1.15a11.58,11.58,0,0,0,1,1.36c-.11.08-.44.45-.59.4a16.52,16.52,0,0,1-1.87-1,12.85,12.85,0,0,1-.85,1.42,2.85,2.85,0,0,1-.84.53,3.13,3.13,0,0,1,.21-.89,17.07,17.07,0,0,0,1.53-3H116.8c-.82.59-1,1-.87,1.6.2.92.47,1.82.72,2.81ZM89.36,90.59c.17-1.21.3-2.22.44-3.27s.43-1.11,1.46-.93a11.09,11.09,0,0,0,2.22,0l.19-2.55a29,29,0,0,0-3.73.47c-.47.11-.87.77-1.11,1.26a2.86,2.86,0,0,0-.22,1.25C88.5,88.06,87.93,89.39,89.36,90.59Zm18.59-7.45-.09-.16H100c-.17,1.53-.1,1.58,1.65,1.41l.18.9a12.2,12.2,0,0,0,1.33-.12c1.11-.23,2.56.3,3.33-1.11.08-.13.33-.16.49-.26C107.32,83.59,107.63,83.36,107.95,83.15Zm4.12-.14c.23.74,1.73.64.77,1.82a26.48,26.48,0,0,1,4.44-.31c1.36.13,1.91-.58,2.53-1.52Zm-8,25.06,2.22-3.24c-2,.09-3.72.14-5.44.24-1.11.07-1.36.49-1.11,1.63h.09l.79-.77a1,1,0,0,1,1.59.09C102.72,106.72,103.33,107.32,104,108.06Zm-8.3.32,1.26-.13,1-3c-1.9.21-3.63.35-5.34.62-1.11.18-1.3.72-.61,2a9.73,9.73,0,0,1,.82-1.48,1.54,1.54,0,0,1,1-.54c.18,0,.43.41.6.68a3.77,3.77,0,0,1,.28.72l1.11-.22Zm15.84-3.71-.16-.34-4.19.39,1.43,3.41,1-.14a2.12,2.12,0,0,0-.23-.37,5.24,5.24,0,0,1-.87-.81,4.09,4.09,0,0,1-.33-1.11,5.08,5.08,0,0,1,1.25.09c.24.08.41.41.75.8ZM97.15,86c-.52-2.3-.73-2.61-1.79-2.22-.83.27-.65,1.11-.75,1.68Zm32.57,8.27c.16,1.24.24,2.36.48,3.46.06.29.54.5.83.74l.28-.31a6.32,6.32,0,0,0-.45-.57.72.72,0,0,1-.2-1l.09-.11c.74-1.06.48-1.72-1.06-2.22ZM115.19,107c-1.6.89-2.52.68-3.25-.69l-1.42,1.77,5.3-.3Zm-1.82-.64.43.1a14.76,14.76,0,0,0,.77-1.58c.08-.2-.11-.5-.17-.75-.42.16-1.11.24-1.2.48a5.48,5.48,0,0,0,.13,1.72Zm-7.92,1.44h2.22l-1.44-1.89ZM89.82,104l-.23-.1-1.22,1.38,1.4,1.11.3-.06Zm10.43,3.85h2.53c-1.23-1.24-1.62-1.24-2.53,0ZM120,84.32c1.8.42,3.14.23,3.39-.52-.82.24-1.64.64-2.22-.27Zm9.1-.65.1.44H131c-.21-.42-.44-1-.53-1a7.09,7.09,0,0,0-1.36.58Zm-41,15.51A6.81,6.81,0,0,0,88,100.3a1.26,1.26,0,0,0,.27.69c0,.06.48,0,.54-.17a1.11,1.11,0,0,0,.13-.82C88.79,99.71,88.47,99.52,88.12,99.19Zm0,9c.71-1.24.67-1.41-.43-1.62Z"/>
            <path class="cls-2" d="M89.52,122.87l1.64-.87C90.8,123.23,90.2,123.49,89.52,122.87Z"/>
            <path class="cls-2" d="M87.75,69.39c-1,1.11-1.89,2.22-2.87,3.33-.17.18-.57.16-.85.22a2.42,2.42,0,0,1,.31-.78c.73-.79,1.49-1.55,2.22-2.3a7.42,7.42,0,0,1,1-.69Z"/>
          </g>
        </g>
      </g>
    </g>
  </g>
</svg>
