<svg xmlns="http://www.w3.org/2000/svg" viewBox="0 0 100 90.12">
  <defs>
    <style>
      .cls-1 {
        fill: #000;
      }
    </style>
  </defs>
  <title>logo-hut</title>
  <g id="Layer_2" data-name="Layer 2">
    <g id="Layer_3" data-name="Layer 3">
      <g>
        <path class="cls-1" d="M7.81,31.42l-2.23-.27A6.09,6.09,0,0,1,4.51,31c-.86-.26-1-.87-.31-1.46,1.77-1.5,3.59-3,5.36-4.47A7.32,7.32,0,0,0,10.42,24a5.67,5.67,0,0,0-1.28-.62c-.78-.16-1.59-.12-2.37-.29a1.67,1.67,0,0,1-1-.68c-.11-.18.15-.72.39-.94,2.64-2.38,5.3-4.73,8.12-7.22A6.41,6.41,0,0,0,13,13.89c-.69-.07-1.39,0-2.08-.08a1,1,0,0,1-.75-.46.89.89,0,0,1,.32-.81,32.55,32.55,0,0,1,3.07-1.43c1-.4,2-.71,3.06-1.07a1.13,1.13,0,0,0,.64-.55H15.5c-.25,0-.54.12-.74,0A1.39,1.39,0,0,1,14,8.89a1,1,0,0,1,.32-.82c2.25-1.88,4.48-3.79,6.82-5.56C22.74,1.32,24.37,0,26.49,0c1.86,0,3.72.12,5.58.24C35.78.47,39.49.72,43.2,1L52,1.61c3.9.29,7.8.7,11.71.84,2.8.1,5.61-.16,8.41-.24A28,28,0,0,1,83.5,3.92a64,64,0,0,1,6,3.1c.73.39,1.47.78,2.16,1.23a4.64,4.64,0,0,1,.8.9c-.5.16-1.22.61-1.46.43a2.67,2.67,0,0,0-2.3-.25c-1,.15-2,.33-3.2.54,1.26.68,2.36,1.2,3.38,1.85,1.53,1,3,2,4.49,3.13a1.18,1.18,0,0,1,.44,1c-.06.27-.5.52-.83.64-1.19.43-2.39.81-3.8,1.27.41.38.62.62.87.81q2.18,1.6,4.37,3.17a13.29,13.29,0,0,1,1.25.81,4.27,4.27,0,0,1,.62,1,4.06,4.06,0,0,1-1.06.59c-1.2.25-2.41.41-3.62.6l0,.29c.44.36.88.71,1.31,1.08l4.64,4a5.81,5.81,0,0,1,1,.85,1.32,1.32,0,0,1,.13,1c0,.13-.52.24-.78.2-1.76-.26-3.31.42-4.95.94l2.36,3.1c.86,1.12,1.72,2.24,2.57,3.37.68.9,1.37,1.8,2,2.75a1.51,1.51,0,0,1,.14,1.08c0,.18-.51.4-.74.36-1.43-.27-2.84-.62-4.26-.91-1-.2-2-.36-3-.49-.74-.09-1.14.24-1.27,1A25.76,25.76,0,0,0,90.24,49c.15,2.75-.05,5.52-.08,8.28,0,2.41,0,4.83,0,7.24s.09,4.71.11,7.06.11,4.53,0,6.79c-.11,2-.48,4.09-2.31,5.37a9.48,9.48,0,0,1-3.21,1.61c-2.45.55-5,.85-7.46,1.19-.9.12-1.83,0-2.74.1-5,.31-10,.59-14.95,1-2.18.17-4.35.5-6.51.86s-4.36.84-6.53,1.28a20.52,20.52,0,0,1-6.36.18c-1.46-.16-2.94-.13-4.4-.31s-2.9-.45-4.33-.75c-1.18-.25-1.51-.79-1.55-2.06-.1-2.94-.24-5.88-.38-8.82-.12-2.55-.32-5.09-.37-7.64-.07-3.62,0-7.25-.06-10.87a18.43,18.43,0,0,0-.45-3.28,2.11,2.11,0,0,0-2.43-1.87,15.36,15.36,0,0,0-3.36.9,2.7,2.7,0,0,0-1.65,2.67c-.07,1.91-.14,3.83-.11,5.74,0,2.33.24,4.65.22,7s-.22,4.81-.31,7.22c-.05,1.5,0,3,0,4.49a20.83,20.83,0,0,0,.11,2.16c.06.56-.17.81-.68.94a14,14,0,0,1-4.54.11,9.85,9.85,0,0,1-4.34-1.29c-.14-.08-.36-.13-.42-.25A14.83,14.83,0,0,1,9.6,80.53c-.53-3.19-.16-6.4,0-9.61.17-3,0-6,.1-9,0-2,.21-4.1.36-6.14.23-3.18.55-6.36.73-9.55.08-1.43-.09-2.88-.14-4.32,0-.57-.3-.84-.86-.71-1,.25-2,.56-3,.8a15.54,15.54,0,0,0-2.32.46,16.11,16.11,0,0,0-2.82,1.57c-.5.34-1,.53-1.42.14S.08,43.38.34,43c1.08-1.78,2.09-3.6,3.22-5.34S5.86,34.34,7,32.7C7.24,32.36,7.44,32,7.81,31.42Zm8.76,7.36c.75-.06,1.18,1.3,2.12.37l.2.91,1.09.18.44-1.7-.3.11c-.31-.26-.91-.61-.87-.75.27-.84,1-.4,1.61-.43-1.06-.59-3.22.09-4.28,1.32-1.19.24-2.74,2.41-1.81,3.8.39-1,.73-1.85,1.12-2.72A9.53,9.53,0,0,1,16.57,38.78Zm.66,45.65c.58,0,1.16,0,1.74,0s.83-.15.77-.77c-.1-1.1-.1-2.21-.23-3.3a4.47,4.47,0,0,0-.61-1.21l-.67,1.95.91,1H18.8c-.2.37-.57.73-.58,1.1a1.15,1.15,0,0,1-1,1.28,3.76,3.76,0,0,0-.34-.78c-.26-.35-.77-.62-.85-1-.28-1.23-1.22-1.2-2.19-1.33l-.22,2.47a9,9,0,0,0,1.39.44C15.74,84.35,16.48,84.37,17.22,84.43ZM74.06,44.17a17.83,17.83,0,0,1-.92-2c-.39-1.19-.35-1.2-1.62-1s-1.67-.39-1.55-1.54c0-.17,0-.35,0-.74l-2.24,1.86,0,.22A5.5,5.5,0,0,1,72,42.88,7.84,7.84,0,0,0,73.34,44a2.32,2.32,0,0,0,.75.19c.07.68.35.44.68.17L78.83,41c-.18-.9-.11-1,1.21-1.39.78-.26.95.23,1.17.78a8.28,8.28,0,0,0,.71,1.21,11.1,11.1,0,0,0,1.15,1.7,10.07,10.07,0,0,0,1.48,1.06c1,.75,1,.76,2.26-.1-.66-.49-1.51-.87-1.27-1.79a6.89,6.89,0,0,1-.9-.62c-.83-.81-1.59-1.69-2.46-2.45-1.69-1.5-3.15-1.42-4.71.23-.61.64-1.16,1.34-1.71,2s-.9.6-1.39.1a5,5,0,0,1-.33-.43l-.26.13c.28.62.56,1.24.83,1.87S74.86,44.27,74.06,44.17ZM14.87,38.53l2.94-1.79a3.63,3.63,0,0,1,5.09,1c.3.4.57.82.84,1.24s.72.69,1.35.27a32.44,32.44,0,0,1,3.39-1.93,6.32,6.32,0,0,1,4.07-.44,3.36,3.36,0,0,1,2.41,2c.67,1.41.93,1.44,2.23.62,1.05-.66,2.14-1.28,3.25-1.84a4.4,4.4,0,0,1,5.37.79c.73.68,1.45,1.38,2.12,2.12.53.58,1,.67,1.62.12,1-1,2.14-1.85,3.19-2.8a2.82,2.82,0,0,1,3.49-.65c1.89,1,3.79,2,5.68,2.94.47.24.9.55,1.45.13q1.86-1.39,3.77-2.72a8.07,8.07,0,0,1,1.53-.83,1.78,1.78,0,0,1,2.05.4c1.16,1.07,2.41,2,3.62,3.07a.63.63,0,0,0,1-.07c.68-.73,1.3-1.52,2-2.18s1.43-1.47,2.37-1a44.13,44.13,0,0,1,4.15,2.71c.26.17.48.4.8.66.25-1.07.48-2,.69-2.9.46-2,.59-2.07,2.59-2.17,0,0,.07-.08.25-.31-1-1.14-2.07-2.29-3.09-3.48a1.47,1.47,0,0,1-.4-.93c0-.2.44-.4.72-.52.91-.4,1.84-.75,2.86-1.17a5.6,5.6,0,0,0-.54-.76c-.39-.39-.86-.7-1.23-1.11Q84.75,25,83,23c-.21-.24-.45-.71-.35-.89a1.59,1.59,0,0,1,.92-.53,15.76,15.76,0,0,1,1.7-.28c-.35-.4-.52-.6-.71-.79C83.29,19.23,82,18,80.79,16.7a1.53,1.53,0,0,1-.36-1.09c0-.18.54-.37.85-.44,1-.21,2-.37,3.17-.59a9.66,9.66,0,0,0-.8-.69c-1.68-1.13-3.38-2.23-5.05-3.36-1-.68-.93-1.36.14-1.93.39-.2.76-.43,1.14-.65l-.07-.26c-1-.37-2.07-.78-3.12-1.12A12.3,12.3,0,0,0,72,5.84a63.49,63.49,0,0,1-7.08.37c-6.14-.2-12.27-.55-18.4-.86a13.16,13.16,0,0,1-3.06-.16,24.88,24.88,0,0,0-4.72-.44c-1.94-.14-3.88-.37-5.82-.38a55.39,55.39,0,0,0-5.57.3A5.34,5.34,0,0,0,23.92,6.3c.55.59,1,1.15,1.57,1.67.79.77,1.63,1.5,2.41,2.29a.86.86,0,0,1,.18.78,1.61,1.61,0,0,1-.79.47,1.05,1.05,0,0,1-.49,0c-2.45-.41-4.49.85-6.75,1.65.92,1.14,1.91,2.13,2.86,3.15.2.21.45.69.37.78a2.28,2.28,0,0,1-1,.6c-.24.08-.55-.08-.82-.05-2.57.24-4.42,1.89-6.47,3.17.07.18.08.27.13.32,1.08,1,2.19,2,3.24,3.11a1.69,1.69,0,0,1,.42,1c0,.13-.54.3-.85.4s-.46,0-.65.08c-1.65.72-3.29,1.47-4.93,2.21-.32.15-.62.34-.93.51l.27.38a5.37,5.37,0,0,1,.76.24c1.19.57,2.39,1.14,3.55,1.77a.82.82,0,0,1,.31.74,1,1,0,0,1-.72.57c-1.82-.06-3.12,1.08-4.49,2-.49.32-.75,1-1.12,1.48l.24.29c1.14-.31,2.29-.58,3.4-1,.81-.27,1.25,0,1.24.82S14.87,37.59,14.87,38.53ZM85,52.5h-.09c0-1.61,0-3.22,0-4.82a2.52,2.52,0,0,0-.52-1.6c-1-1-2.24-1.79-3.3-2.74a2,2,0,0,0-3.09,0A33.7,33.7,0,0,0,75.25,46c-.53.62-.93.79-1.55.23-1.16-1-2.36-2-3.43-3.15a3.26,3.26,0,0,0-4-.41c-1.2.9-2.41,1.78-3.55,2.75a1.81,1.81,0,0,1-2.64,0c-1.28-1-2.6-2-3.95-2.91a3.77,3.77,0,0,0-3.41.18c-.76.56-1.56,1.07-2.28,1.68s-1.1,1.2-1.71,1.73a1.32,1.32,0,0,1-1.06.34,7.57,7.57,0,0,1-1.85-1.23c-.83-.73-1.55-1.59-2.38-2.33a1.6,1.6,0,0,0-2.06-.23c-.94.58-1.93,1.09-2.86,1.69a8.74,8.74,0,0,0-1.46,1.21.86.86,0,0,1-1.45-.05c-1-1.64-2.69-2.61-4.13-3.81a2.31,2.31,0,0,0-2.8-.11A15.42,15.42,0,0,0,24,45.24c-.52.68-1,.61-1.58-.11-.72-1-1.44-1.91-2.21-2.82-.95-1.12-1-1.15-2.28-.43a4.46,4.46,0,0,0-2.59,3.7c-.07,1.26-.24,2.52-.33,3.78-.2,2.62-.49,5.24-.55,7.87q-.17,8.24-.1,16.49c0,1.84.38,3.68.56,5.52.08.88.67.9,1.32.86s1-.28.93-1.05,0-1.55,0-2.33c-.09-2.14-.29-4.27-.28-6.41,0-3.79.13-7.58.23-11.37,0-1.72.15-3.43.25-5.15a2.64,2.64,0,0,1,2.1-2.56,13.66,13.66,0,0,1,4.41-.69c2,.07,4,.17,6,.25a3.51,3.51,0,0,1,3.27,3.37c0,1.39.21,2.77.3,4.15s.21,2.72.2,4.08c0,3-.2,5.94-.12,8.91.1,3.65.4,7.3.66,10.94A1.06,1.06,0,0,0,35,83a37.82,37.82,0,0,0,4.18.19c3.43-.07,6.87-.12,10.29-.33,3.07-.19,6.12-.61,9.18-.89,1.91-.18,3.83-.24,5.73-.45,3.16-.35,6.31-.91,9.48-1.16A55.43,55.43,0,0,0,83,78.94a2.1,2.1,0,0,0,1.26-3.5c-.12-.17,0-.5,0-.75s.22-.38.23-.57q0-2.92,0-5.83c0-1.94-.11-3.88,0-5.82C84.57,59.14,84.79,55.82,85,52.5Zm-17,33.45c-.1-.21-.14-.31-.19-.41-.2-.35-.32-.83-.62-1-.55-.34-.56.45-.9.59a2.71,2.71,0,0,1-.84.07c0-.27-.12-.69,0-.79.41-.31.94-.73,1.38-.69.64.06,1.51.08,1.69,1,.07.37.21.73.38,1.31.44-.22,1-.31,1.17-.62a26.76,26.76,0,0,0,1.64-3c.36-.74.44-.78,1-.19L71.06,85.7l3.66-.24.22-1.57a8.11,8.11,0,0,1-1.06.67.62.62,0,0,1-.57-.13.59.59,0,0,1,0-.57,11.34,11.34,0,0,1,1.24-1.33.91.91,0,0,1,.73-.24c.18.06.3.41.36.65a4.47,4.47,0,0,1,.12.75l1.59-.26a.39.39,0,0,0,.22-.09L79.47,81c-5.2.4-10.12.53-14.92,1.73L65,83.87l-.15.1-1.27-.8-.81,3.17Zm-18.53-1.8H36.24v3.08l.25,0,.48-.84a5.25,5.25,0,0,1,.7-1.12,1.17,1.17,0,0,1,.92-.31c.2,0,.41.5.42.79.05.93,0,1.77,1.16,2.22.59.24.93.33,1.33-.19.21-.28.47-.52.7-.78l.16.11-.19,1.14h2.76c1.38,0,2.68-.11,3.17-1.75.07-.23.3-.4.42-.62C48.83,85.33,49.11,84.74,49.41,84.15ZM88.87,51c0-.83,0-1.6,0-2.36,0-1.47.15-2.93.17-4.4s.21-3,1.51-4.12a2.58,2.58,0,0,0,.36-.48,11.48,11.48,0,0,0-2.19.27c-.66.1-1.22.83-2.21.3a12.15,12.15,0,0,1,1.54-1,12.86,12.86,0,0,1,1.74-.52c-.17-.69.1-1,.68-1.26a18.91,18.91,0,0,0,2.14-1.32l-2.37-.91c.08.49.34,1,.19,1.3-.3.54-.89.43-1.4.18a1.57,1.57,0,0,0-.23-.11c-.87-.26-1.82-.05-2.08.59A9.26,9.26,0,0,0,86.07,42a8.83,8.83,0,0,1,1.57-.2c.27,0,.52.3.78.46a3.86,3.86,0,0,1-.5.58,2.27,2.27,0,0,1-.58.24c1.12,1.49,1.12,1.49-.44,2.66.46.17.88.29,1.27.47.71.34.83,1,.28,1.44A15.11,15.11,0,0,0,86.6,49a1.82,1.82,0,0,0-.27,1.18c0,.13.37.33.6.39C87.51,50.77,88.12,50.86,88.87,51ZM8.61,28.76c.7-.32,1.44-.61,2.14-1,2-1.06,4.05-2.15,6.3-3.35a20.24,20.24,0,0,0-2.86-2.31c-1-.57-1.28-1-.46-1.89l-1.2-1.58c-1.16,1-1.1,2.36-1.15,3.67a9.91,9.91,0,0,1,1,.43c.69.39.74,1,.13,1.46-1.24,1-2.47,2-3.75,3C8.19,27.62,8,28,8.61,28.76ZM84.28,84.37a1,1,0,0,1,0-1.55c.84-1.05,1.61-2.17,2.44-3.23.16-.2.47-.28.72-.41.08.32.3.69.21.94a4.33,4.33,0,0,1-.77,1.07l-2.34,2.94a4.53,4.53,0,0,0,2.89-1.71,9.57,9.57,0,0,0,1.17-2.64,1.2,1.2,0,0,0-.14-1.06,20.5,20.5,0,0,0-2.2-1.4,4.33,4.33,0,0,0-.1.58,1.54,1.54,0,0,1-1.24,1.78c-1.17.31-2.31.72-3.43,1.08L80.7,85ZM89,13.14l0-.29c-.28,0-.76-.16-.82,0A8.17,8.17,0,0,0,87,15.09c-.18.81-.5,1.14-1.33.87a5.21,5.21,0,0,0-3.76.41C83.45,17.95,84.4,20,87,19.62a6.65,6.65,0,0,1,1.82.15c.51.07,1,.19,1.51.29a4.72,4.72,0,0,0-2.62-1.47,1.21,1.21,0,0,1-.84-.69c-.14-.43.07-.8.64-1a6.23,6.23,0,0,0,1.37-.81c-.91-.67-.13-1.38-.16-2.05l-.64-.2ZM85.82,70.7c.07,1.51.11,2.8.21,4.09,0,.19.33.41.56.5.49.2.82.42.88,1,.07.82.71,1.21,1.5,1.55.05-.72.15-1.33.14-1.93,0-1.93-.09-3.87-.18-5.8,0-.29-.29-.84-.4-.82-.52.06-1.25-.08-1.34.75S86.83,71.26,85.82,70.7ZM12.09,37.86l.19.17a2.16,2.16,0,0,1-.1.45,3.64,3.64,0,0,0-.42,2.78c.15,1.59.17,3.2.25,4.8,0,.34.06.67.09,1,.46-.15.8-.26,1.14-.38s.46-.22.69-.33a5.78,5.78,0,0,0-.58-.5c-.13-.09-.32-.07-.46-.15a4.13,4.13,0,0,1-.49-.37c.14-.15.26-.35.43-.44.34-.18.72-.29,1.3-.52l-1.3-.33L13.27,43,13,42.66a1.46,1.46,0,0,0,.54-2,2.8,2.8,0,0,1-.15-1c0-.66.14-1.31.11-2-.08-1.61-.11-1.61-1.67-1.23-1.38.33-1.73,1-1.21,2.4ZM86.41,20.25l-.14.25c.05.09.08.21.16.26.36.27.83.6.49,1.06a2.29,2.29,0,0,1-1.18.52,15,15,0,0,1-1.55.26l2.5,2.93,1.67-.39.21,1.14c.39-.12.85-.29,1.33-.4s.86.1.77.71c0,.31-.12.61-.18.91l.15.05.87-1.24c-.43-.31-.82-.58-1.19-.87s-.68-.42-.81-.72,0-.71.05-1.07l-.11,0-1.2.21a7,7,0,0,1,.58-1.05c.45-.57,1-1.1,1.56-1.78-.88,0-1.54,0-2.19,0a2.67,2.67,0,0,1-.87-.29C87,20.6,86.72,20.42,86.41,20.25Zm2.51,45V57.1c-.53.14-1.1,0-.88.89.08.3-.19.68-.31,1L86,58l-.21,3,1.34-.48.07-.84a4.32,4.32,0,0,1,1,.27.9.9,0,0,1,.46.62c0,.15-.34.35-.56.47a4.23,4.23,0,0,1-.7.25c.71,1,.62,1.34-.49,1.83-.3.13-.73.27-.83.52-.17.43-.36,1.12-.14,1.38s.68,1.19,1.54.71A10,10,0,0,1,88.92,65.25ZM20,73.05a4.57,4.57,0,0,0,.1-.6c-.13-2.57-.24-5.15-.4-7.72-.07-1.11.31-2.33-.72-3.25-.1-.09-.05-.32-.11-.48s-.19-.45-.29-.68a.84.84,0,0,0-.26.51c-.28,1.55.06,3.12-.15,4.69-.17,1.22,0,2.49-.07,3.73-.06.78,0,1.25.93,1.37.29,0,.51.5.77.77l-.87.4ZM43.52,38a12.35,12.35,0,0,0-1.79.17c-1.95.5-3.41,1.87-5.06,2.91a.55.55,0,0,0-.18.48,14.53,14.53,0,0,0,.6,1.53c.18.4.43.65.9.33q1.37-.92,2.76-1.82l1.84-1.17Zm49.6-2.8.14-.17-2.38-2.29c-.3-.09-.86-.1-1-.37s.09-.76.18-1.14c0-.13.15-.23.2-.36.38-1,.75-2,1.13-3L91,27.75a6.66,6.66,0,0,0-.67,1.31c-.14.53-.44.66-.91.8a26.25,26.25,0,0,0-2.68,1c-.12.05-.24.45-.18.51.83.85,1.1,2.21,2.55,2.51A37.83,37.83,0,0,1,93.12,35.2ZM32.52,76.78,32.23,68,30.32,69.3l.35,7.48ZM59.71,41.32a4.58,4.58,0,0,1,1,.13,1.44,1.44,0,0,1,.69.47,5.46,5.46,0,0,1,.56,1.2.56.56,0,0,1-.07.49.55.55,0,0,1-.5.11,1.56,1.56,0,0,1-.55-.49c-.74-1-.73-1-2-.55.34.31.65.62,1,.89a2.73,2.73,0,0,0,3.27,0c.67-.53,1.32-1.09,2-1.59.47-.34,1-.54,1.47-.91.82-.69,1.56-1.47,2.35-2.19.31-.29.66-.53,1-.79l-.12-.3a9.84,9.84,0,0,0-1.4.4,5.43,5.43,0,0,0-1.1.74c-1.21,1-2.43,1.91-3.61,2.91-.55.47-.89.49-1.4-.06A7.61,7.61,0,0,0,61,40.57C60.18,40,59.95,40.15,59.71,41.32ZM16.53,12.67H16.3a2.3,2.3,0,0,0,0,.84c.38,1.05.28,1.13-.66,1.61A26.46,26.46,0,0,0,13,16.78l.68,1.65a9.82,9.82,0,0,1,.45-1.71A1.13,1.13,0,0,1,15,16.1c.25,0,.56.4.72.69A6.24,6.24,0,0,1,16.06,18l.44.23a7,7,0,0,1,.61-1,13.45,13.45,0,0,1,1.56-1.61,1.45,1.45,0,0,1,1-.14c.15,0,.28.3.42.46-.24.2-.47.42-.72.61s-.55.4-.82.6l.14.19c.78-.26,1.57-.49,2.34-.8.1,0,.15-.55,0-.67-.43-.5-.95-.92-1.42-1.39s-.94-.92-1.73-.69c-.21.06-.56-.16-.77-.34A4.43,4.43,0,0,1,16.53,12.67ZM12.84,64l.45-10.46c-.93.46-1.22.9-1,1.66.05.19-.24.69-.35.68-.7,0-.76.4-.78.9s-.05,1.18-.08,1.78l.3.22.54-1.13.38.22L12.14,59c.72.76.71.8,0,1.62-.87,1-1.56,2-1.05,3.36ZM25.52,1.33l0,.35c.44.53.87,1.06,1.33,1.57a1.11,1.11,0,0,0,.65.41c1,0,2-.08,3-.13.6,0,.93-.29.89-.93A1.44,1.44,0,0,1,31.42,2c.18-.48,0-.72-.48-.72C29.13,1.3,27.33,1.32,25.52,1.33ZM84.05,5.57l-.31-.34c-.47.39-1,.76-1.4,1.19-.26.26-.63.66-.59.95.12.86-.45,1.1-1,1.44s-.83.55-1.41.94l3,2,1.37-1.26L83,10.24c.08-.48.35-1,.19-1.26-.55-.75-.15-1.36.17-2.08h-.81a7.76,7.76,0,0,1,.67-.78A8,8,0,0,1,84.05,5.57ZM20.75,52.14c-1.53.29-1.95.72-2.1,2.26A19.22,19.22,0,0,0,18.57,57c0,.31.23.81.44.87.41.1.78-.07,1-.63A10.68,10.68,0,0,1,21.16,55a.83.83,0,0,0,.14-.94A15,15,0,0,1,20.75,52.14Zm-.1-41.24A18.45,18.45,0,0,0,22,9c.33-.61.72-.5,1.17-.28a4.16,4.16,0,0,1,.56.41l.73-.82c-.65-.22-1.15-.43-1.67-.56S22,7.55,21.84,7a5.28,5.28,0,0,0-.65-1.22c-.49.59-.5.59-.52,2.4,0,.71,0,1.39-1,1.28-.1,0-.21.14-.32.21a11.82,11.82,0,0,1-1,.62c-.41.2-.85.35-1.34.54l.68,1.86C19,10.1,19.28,10,20.65,10.9ZM50.54,86.78l.31.08c.16-.27.31-.55.49-.81s.41-.52.62-.78c.79-1,1.5-.9,2.16.21.22.37.45.73.75,1.19a8.17,8.17,0,0,0,1.62-3.3l-5.95.59ZM46.3,40l-.42.14-.27,3c.46.38,1,.81,1.55,1.3a.82.82,0,0,0,1.31,0c.7-.76,1.36-1.57,2-2.38a2.35,2.35,0,0,0,.25-.66l-.18-.13c-.35.39-.72.77-1.05,1.18a.88.88,0,0,1-1.55-.15C47.45,41.49,46.85,40.76,46.3,40Zm-41.67.33a2.38,2.38,0,0,1,2.55-.64l.92-1.57L8,38,5.63,39.14,5.56,39l.88-1-1.38-.83L2,42.3l.2.17L5.8,41ZM54.14,2.87c-2.23-.16-4.23-.33-6.22-.41-.16,0-.46.55-.49.86s.17,1,.29,1c1.65.08,3.36.7,4.9-.41C53,3.63,53.48,3.34,54.14,2.87ZM62.9,82.77l-5,.3A4.42,4.42,0,0,0,61.62,86Zm-52-52.87-.68.94A7.12,7.12,0,0,0,9.5,30a.85.85,0,0,0-.62-.26,2.81,2.81,0,0,0-.74.41c.46.28,1.12.46,1.26.84s-.32.89-.59,1.3c-.42.61-.91,1.17-1.51,1.92,1-.21,1.65-1.2,2.33-.49l4.7-2.59c-.89-.92-1.67-.88-2.41.17-.19.27-.37.56-.55.83s-.56.78-1,.34c-.17-.19-.09-.76.06-1.07a10.06,10.06,0,0,1,1-1.42ZM31.81,54a1.67,1.67,0,0,0-1.24-1.75c-1.43-.31-2.91-.4-4.46-.6.06.79.18,1.17.8,1.34,1.18.33,2.42.59,3.11,1.63ZM76.73,3.45l-.33.3c.22.61.26,1.45.69,1.78,1.21.92,3.84.3,5-1.12ZM54.42,40.74l3.64,1.34c.33-.57.69-1.13,1-1.73.11-.24.16-.74,0-.83a12.54,12.54,0,0,0-1.61-.89l-.17.11c.55.63-.74,1.46.45,2.09-.44.19-1.07.45-1.14.33a8.31,8.31,0,0,1-.68-1.68ZM40,2.18l-4.14-.46-.09.23.64.45-.62,1.16c.84.06,1.61.1,2.37.17A1.7,1.7,0,0,0,40,2.18ZM86.23,57.4c.92-.62,1.82-1.21,2.7-1.83a.6.6,0,0,0,.14-.46c-.05-.92-.12-1.83-.2-2.84l-.82.39c.84,1,.8,1.24-.3,1.86-.51.29-1,.54-1.7.89l1.1.41C86.77,56.32,85.64,56.24,86.23,57.4Zm-28.86,27c-.9.57-1.18,1.53-1.55,2.71l4-.53Zm23.18-2.65-.32-.14a2,2,0,0,0-.3.25c-.78,1-1.57,1.92-2.33,2.9-.3.38-.55.71-1.08.36-.05,0-.24.13-.36.2l.09.26,2.9-.32ZM26.82,39.18a12.38,12.38,0,0,1-1.68,1.47,14.56,14.56,0,0,1-2.23.87l1.27,1.83c.26-1.4,1.18-2.06,2-1.46l.51-.46C26.45,41.1,26.51,40.39,26.82,39.18Zm-15.91,28,.62-1.85c-.7.2-.95,2.34-.54,3.32l1.92-.38V65C12.22,65.73,12.3,66.95,10.9,67.16ZM21.2,4a8.57,8.57,0,0,0,.94,1.36,1.32,1.32,0,0,0,.84.16c.32-1,.57-1.94.84-2.91l-.25-.21ZM33.06,38.32a3.85,3.85,0,0,0-.41-.35,1.74,1.74,0,0,0-.31-.11,5.09,5.09,0,0,0-3.29.38c-.83.31-1,.59-.54,1.3.61-.27.89-1.13,1.84-1.05l-.51,1.21c.7.17,1.24.16,1.33-.75.06-.55.31-.88,1-.5C32.29,38.54,32.61,38.38,33.06,38.32ZM88.21,68.24l-2.28-1.93v3.62ZM13.1,75l-.16-1.77-2.17-.35V75ZM63.1,5c.3-1.34.3-1.33-.89-1.45l-1.15-.13c-.67-.09-.59.47-.66.82s.06.77.6.76ZM51,42.24c2.25-1,2.67-1.68,2-3.15C51.68,39.66,51.56,41,51,42.24ZM91.66,29.92a9.49,9.49,0,0,1,.78-.61c.38-.23,1-.7,1.14-.58.36.26.51.81.75,1.25,0,0,.08.05.18.11l.7-.9-2.57-2Zm-.33,10.88.1.13,4-3.05-1.06-1.32c.07,1.18,0,1.09-.76,1.76A26.91,26.91,0,0,0,91.33,40.79Zm4-.76c.54.48,1.1.75,1.27,1.18.33.81.47,1,1.54.7l-2-3ZM10.67,76v1.88l2.41-.73v-.86l-.85.28C12.06,75.4,11.26,76.27,10.67,76ZM35,86.11c-.25.27-.36.45-.52.53a10,10,0,0,1-1,.35,4.21,4.21,0,0,1-.2-1,6.7,6.7,0,0,1,.24-1,3.86,3.86,0,0,0,0-.69l-.29,0c-.24.89-.5,1.77-.7,2.66,0,.11.21.39.36.42.75.13,1.51.2,2.37.31Zm-4.48-18.9c1.3-.08,2-.74,1.71-1.63l-.73.14v-.78l-1-.15ZM52.84,85.45l-1.29,2.21,2.94-.29ZM5.61,36.57a23.23,23.23,0,0,0,2.33,0c.2,0,.39-.38.53-.61A1.44,1.44,0,0,0,8,35.56c-.38-.22-.78-.42-1.2-.64ZM70.83,4.77c-.31-.53-.44-1.08-.74-1.21a2.7,2.7,0,0,0-1.46,0c-.16,0-.37.44-.34.65s.28.58.47.59A17.38,17.38,0,0,0,70.83,4.77ZM54.38,39.64l2.06-1.29a1.78,1.78,0,0,0-2.64.26Zm-43.2,41.8,1.26,1.8a5,5,0,0,0,.3-1.49c0-.47.09-.93.15-1.61ZM7.82,40.59c1.46,0,2.2-1.54,1.42-3.08ZM9.38,20.4l-.24-.15L7.93,21.9l1.86.47s.08-.06.14-.1Zm9.06,56c1.08.11,1.69-.44,1.44-1.35-.07-.27-.6-.45-1-.57-.1,0-.45.22-.47.37A13.29,13.29,0,0,0,18.45,76.4ZM93.83,23l.13-.29-1.8-2.07-.73,1c1.11.19,1,.83.52,1.67Zm-75-14.35L18.14,6.6,16.26,8.1Zm-9,11.23.91,1.54.83-3.07-.2-.1ZM91.36,31.67l.18.26,1.37-.17.11-1.7-.25-.14ZM87.26,6.93,87.1,8.47l2-.26,0-.21Zm-57,50.49.16,1.82.24,0,1-2-.22-.14ZM21.75,42.37l.72-2.54C21,40.66,20.84,41.22,21.75,42.37ZM35,1.73,34.3,1.6l-.92,1.66C34.31,3.68,34.4,3.45,35,1.73ZM32.21,58.31,32,58.26l-1,2.18,1.42-.24ZM86,8.48V7L84.2,8.58l.13.24Zm-41,34-.13-1.88-1.46.63Zm4.21,43.8L48.4,88.2,50,88ZM11.76,71.51c1.2-.38,1.43-.87.82-1.74C11.46,70.77,11.45,70.79,11.76,71.51ZM19.58,7.78l.27,0,.26-2.62-1,.86ZM31.84,83.17c.86.23,1.1,0,1-.71-.07-.45-.08-.91-.12-1.36l-.16,0Zm6.71,5-.42-1.65-.26,0-.77,1.47ZM46.26,2.51l-.13-.22c-.27.07-.72.06-.78.21a10.46,10.46,0,0,0-.42,1.63l.35.12ZM26.1,10.08l.06-.23c-.31-.16-.69-.51-.9-.42a4.27,4.27,0,0,0-1.05.88l.2.23ZM5.47,30l1.86.29L6.7,28.84ZM89.08,15.51l.21.12,1.46-1.19c-.46-.67-.63-.75-.91-.35A14,14,0,0,0,89.08,15.51ZM72.34,40.12l.08-.23a6.59,6.59,0,0,0-.9-.77c-.1-.06-.49.12-.54.25s0,.62.13.65A6.4,6.4,0,0,0,72.34,40.12ZM86.82,12.74l-.12-.13L85,13.66l1,.62ZM45.43,39.19l-1.22-.72-.41,1.37L44,40ZM15.95,41.61l.26.17,1.24-1.06-.87-.62ZM86.34,52.51l1.38-.91-.06-.2-1.31-.11ZM14.75,17.68l-.11,1.85C15.83,19.15,15.84,19,14.75,17.68ZM31.43,63.3c1.09,0,1.29-.44.8-1.83ZM13.91,11.87l-1,.78.1.21,1.38.2c-.11-.35-.15-.54-.22-.71S14,12.11,13.91,11.87Zm18.25,72.5c-.79.06-.79.06-.42,1.88Zm-15.74-3,.84,1.16.41-1.38ZM32.91,41.24,33,39.63a1.78,1.78,0,0,0-.33.22c-.21.27-.41.55-.66.89ZM11.46,80l.16.19,1.73-1.38-.24-.29Zm13-75.57,1.43-.72L25.16,3ZM88.72,67.51l.21-.11-.15-1.19-.87.69ZM19.57,73.46l-1.08-1C18.17,73.5,18.74,73.48,19.57,73.46ZM42.94,3.72l.93-1.2C43,2.44,42.88,2.55,42.94,3.72Zm-32.3,75,.19,1.21.19,0,.53-1ZM22.5,54.06l1.1-.48-.87-.82Z"/>
        <path class="cls-1" d="M40.72,55.62c.14-.36.3-.72.41-1.1a2.71,2.71,0,0,0,.12-.82c0-1.57.6-1.92,2.47-2.09,2.48-.22,5-.44,7.45-.63,2-.15,4-.32,6.06-.38,3.75-.11,7.5-.12,11.24-.23,3.27-.1,6.54-.31,9.81-.4a4.75,4.75,0,0,1,2.42.44,2.86,2.86,0,0,1,1.13,1.8,31.17,31.17,0,0,1,.38,4.31c.06,1.49,0,3,0,4.48,0,2.17-.16,4.34,0,6.49a6.82,6.82,0,0,1-1.14,4.23,5.1,5.1,0,0,1-4,2.37c-2.7.32-5.41.56-8.11.78q-4.55.38-9.11.68c-.66,0-1.33-.12-2-.11q-6.06.13-12.13.3c-1,0-1.92.12-2.88.12a2.39,2.39,0,0,1-2.43-2.25c-.07-1.41,0-2.82,0-4.24.09-3.24.19-6.49.29-9.73,0-.64.11-1.28.11-1.91S40.76,56.3,40.72,55.62Zm28.85,13.6,0,.31c2.44-.34,4.88-.66,7.32-1,1.35-.21,1.85-.81,1.75-2a21.71,21.71,0,0,0-.33-2.64,15.79,15.79,0,0,1-.05-5.75c.18-1.15.36-2.3.47-3.45.05-.57-.2-.92-.91-.85-1.07.11-2.16.16-3.24.18-2.47,0-4.95,0-7.41.09-2.15.08-4.3.31-6.46.47-.66,0-1.33.06-2,.11l-5.48.42c-2.55.21-5.09.41-7.63.66a1.11,1.11,0,0,0-.79.56,6.88,6.88,0,0,0-.54,2.24c0,3,.09,6,.15,9,0,.86,0,1.72.09,2.58,0,.51.13,1,.89.9,2.57-.22,5.14-.4,7.71-.56,2.07-.13,4.15-.18,6.23-.34C62.77,69.85,66.17,69.52,69.56,69.22Zm3.94,4.13a3.88,3.88,0,0,1-.33-.94,3.78,3.78,0,0,1,.17-.93c.21.2.42.42.64.61.43.37.84,1,1.32,1a7.44,7.44,0,0,0,1.94-.37c2.39-.34,4.11-3.45,3.53-5.79-.65-.18-.84.06-.71.72a1.39,1.39,0,0,1-1.16,1.77c-1,.19-1.91.37-2.87.51-.46.07-.72.24-.74.72s-.28.55-.71.6c-.86.09-.49-.6-.66-1-.67,0-1.33,0-2,0-.44,0-.63.3-.43.67a10.44,10.44,0,0,0,.92,1.23c-.1.07-.4.41-.53.36a14.89,14.89,0,0,1-1.69-.91,11.58,11.58,0,0,1-.77,1.28,2.57,2.57,0,0,1-.76.48,2.82,2.82,0,0,1,.19-.8c.41-.7.87-1.36,1.38-2.14-.9,0-1.65,0-2.39,0s-.91.33-.78.91c.18.83.42,1.64.65,2.53ZM43.11,58.42c.15-1.09.27-2,.4-2.95s.39-1,1.32-.84a10,10,0,0,0,2,0L47,52.33a26.13,26.13,0,0,0-3.36.42c-.42.1-.78.69-1,1.14a2.58,2.58,0,0,0-.2,1.13C42.34,56.14,41.82,57.34,43.11,58.42ZM59.87,52l-.08-.14H52.71c-.15,1.38-.09,1.42,1.49,1.27l.16.81a11,11,0,0,0,1.2-.11c1-.21,2.31.27,3-1,.07-.12.3-.14.44-.23C59.3,52.4,59.58,52.19,59.87,52Zm3.71-.43c.21.67,1.56.58.69,1.64a23.87,23.87,0,0,1,4-.28c1.23.12,1.72-.52,2.28-1.37ZM56.34,74.21l2-2.92c-1.8.08-3.35.13-4.9.22-1,.06-1.23.44-1,1.47,0,0,.07,0,.08,0l.71-.69a.89.89,0,0,1,1.43.08C55.16,73,55.71,73.54,56.34,74.21Zm-7.48.25L50,74.34l.91-2.73c-1.71.19-3.27.32-4.81.56-1,.16-1.17.65-.55,1.81a8.77,8.77,0,0,1,.74-1.33,1.39,1.39,0,0,1,.86-.49c.16,0,.39.37.54.61a3.4,3.4,0,0,1,.25.65l1-.2Zm14.28-3.34L63,70.81l-3.78.35,1.29,3.07.86-.13a1.91,1.91,0,0,0-.21-.33,4.72,4.72,0,0,1-.78-.73,3.69,3.69,0,0,1-.3-1,4.58,4.58,0,0,1,1.13.08c.22.07.37.37.68.72Zm-13-16.83c-.47-2.07-.66-2.35-1.61-2-.75.24-.59,1-.68,1.51Zm29.36,7.95c.14,1.12.22,2.13.43,3.12.05.26.49.45.75.67l.25-.28a5.7,5.7,0,0,0-.41-.51.65.65,0,0,1-.1-1C81.09,63.28,80.85,62.69,79.46,62.24Zm-13.1,11c-1.44.8-2.27.61-2.93-.62l-1.28,1.6,4.78-.27Zm-1.64-.58.39.09a13.31,13.31,0,0,0,.69-1.42c.07-.18-.1-.45-.15-.68-.38.14-1,.22-1.08.43A4.94,4.94,0,0,0,64.73,72.63Zm-7.14,1.72h2l-1.3-1.7ZM43.53,70.49l-.21-.09-1.1,1.24,1.26,1,.27-.05Zm9.19,3.75H55C53.89,73.12,53.54,73.12,52.72,74.25Zm18-21.47c1.62.38,2.83.21,3.06-.47-.74.22-1.48.58-2-.24Zm8.2-.53.09.4h1.63c-.19-.38-.4-.93-.48-.91A6.39,6.39,0,0,0,78.93,52.25ZM42,66.17a6.14,6.14,0,0,0-.12,1,1.14,1.14,0,0,0,.24.62c0,.05.43,0,.49-.15a1,1,0,0,0,.12-.74C42.6,66.64,42.31,66.47,42,66.17Zm0,8.11c.64-1.12.6-1.27-.39-1.46Z"/>
        <path class="cls-1" d="M43.26,87.52l1.48-.78C44.41,87.84,43.87,88.08,43.26,87.52Z"/>
        <path class="cls-1" d="M41.66,39.31c-.86,1-1.7,2-2.59,3-.15.16-.51.14-.77.2a2.18,2.18,0,0,1,.28-.7c.66-.71,1.34-1.4,2-2.07a6.69,6.69,0,0,1,.9-.62Z"/>
      </g>
    </g>
  </g>
</svg>
