<svg xmlns="http://www.w3.org/2000/svg" viewBox="0 0 51.74 51">
  <defs>
    <style>
      .cls-1 {
        fill: 	#87CEEB  ;
      }
    </style>
  </defs>
  <title>splodge-btn</title>
  <g id="Layer_2" data-name="Layer 2">
    <g id="Layer_2-2" data-name="Layer 2">
      <path class="cls-1" d="M13.79,16.27,27.14,11.8,22,.89A136.83,136.83,0,0,0,3,12.23C.8,13.79.5,17.44,2,19.47a7.18,7.18,0,0,0,7.57,2.74Q21,18.64,32.68,15.64L29.12,4.12C19.27,7.78,9,11.61,1.91,19c-2.2,2.27-2.66,5.38-.52,7.84C3.27,29,7.29,30.09,10,28.36a112.43,112.43,0,0,1,14.15-7.58Q26,20,27.76,19.26l1.81-.72c-1.09.42.63-.23.84-.31,2.66-1,5.36-1.81,8.09-2.58L32,5.68c-.62.52-1.25,1-1.91,1.5.94-.69-1,.64-1.2.76-1.41.86-2.87,1.65-4.34,2.41-2.72,1.41-5.51,2.71-8.18,4.21C10.74,17.7,5.24,21.8,2.55,27.35c-1.16,2.38-1.31,5.31,1,7.24a7.55,7.55,0,0,0,8.12.93Q26.18,28.1,41.34,21.84l-9.17-8.17q-.66.82.07,0-.34.38-.7.74c-.48.48-1,.94-1.5,1.38S29,16.61,28.41,17c1.27-.92-.58.35-.83.5a76,76,0,0,1-7.47,3.81C14.57,23.88,6,26.85,5,33.15c-.38,2.47,0,4.65,2.4,6.28a7.43,7.43,0,0,0,7.44.47l15.88-8L38.52,28l3.89-2,1.85-.91q.63-.29-.07,0-1.09,0,.14.06l-6.7-6q2.29-3.7.7-2.16,1-.64-.1.07l-2.3,1.49q-2.31,1.48-4.66,2.92-4.69,2.88-9.51,5.58a93.32,93.32,0,0,0-9,5.39,19.77,19.77,0,0,0-6.52,8c-1,2.16.52,5,2.4,6.28a7.5,7.5,0,0,0,7.44.47L48.4,32.35,38.55,25.6q-.36,1,.08-.15l-.27.39q.81-.89.06-.14L38,26c-.23.2-1.54,1-.31.27-.45.26-.89.55-1.35.82-2.12,1.24-4.23,2.49-6.25,3.85a99,99,0,0,0-12.54,9.85c-4.64,4.35,0,11.42,6.52,10A64.59,64.59,0,0,0,49,39.34c2.69-2,2.51-6.39,0-8.44a7.5,7.5,0,0,0-9.47,0l-1.23.9c-.82.61.72-.43-.16.1s-1.55,1-2.34,1.46a55.24,55.24,0,0,1-5.22,2.71c-.85.39-1.72.74-2.59,1.1.64-.26.27-.09-.16.06l-1.49.51c-1.89.62-3.82,1.13-5.78,1.56l6.52,10Q30,46.53,33.19,44c1.07-.83,2.16-1.64,3.26-2.42q.55-.38-.07,0l1-.7,1.59-1c5-3.16,10.45-5.57,12.47-11.14.82-2.27-.37-4.88-2.4-6.28A7.5,7.5,0,0,0,41.63,22L9.34,37l9.84,6.74c-.52,1.12.39-.38.63-.74-.29.44-.5.51,0,.06.26-.24.5-.48.77-.72s.54-.46.82-.68c0,0,1.33-.93.65-.48s.37-.22.48-.28l1-.57c3.05-1.79,6.2-3.45,9.26-5.23s6.31-3.76,9.4-5.73C44,28.15,45.88,27,47.59,25.69A9,9,0,0,0,51,19.24c.4-3.37-3.4-5.77-6.7-6C40.5,13,37.22,14.94,34,16.54l-8.75,4.4L8.09,29.58l9.84,6.74q.25-1-.26.08.58-.84-.14,0a8.36,8.36,0,0,1,.79-.68q-.94.63,0,0c1.12-.58,2.21-1.2,3.34-1.75,2.54-1.24,5.15-2.37,7.7-3.6C35,27.76,40,24.44,43.74,19.7c1.62-2.08,1-5.55-1-7.24a7.72,7.72,0,0,0-8.12-.93Q19.43,17.78,5,25.21l9.17,8.17a17.79,17.79,0,0,1,2.26-3.54c-.87,1.05.39-.36.6-.56q.69-.66,1.43-1.28c.57-.47,1.16-.92,1.76-1.36-1.13.83.78-.49,1-.63,1.12-.69,2.27-1.34,3.44-2C30.43,21,36.46,18.3,41.46,14.12c4.83-4-.16-11.77-6.52-10A121.23,121.23,0,0,0,3.26,18.05l8.12,9.38a33.68,33.68,0,0,1,2.46-2.31q.65-.55,1.32-1.06c.12-.09,1.35-1,.7-.53s.82-.53,1-.64l1.23-.74q1.5-.88,3.07-1.66c1.93-1,3.91-1.85,5.92-2.67q1.65-.68,3.32-1.31c.27-.1,1.9-.72.62-.24l1.66-.62c3.22-1.2,5.89-4,4.68-7.35a7,7,0,0,0-8.24-4.17Q17.44,7.12,6,10.69l6.52,10,1.07-.75q-.68.47.27-.18c.73-.48,1.46-1,2.2-1.44Q18,17.07,20,15.89q4.27-2.51,8.77-4.69a5.65,5.65,0,0,0,2.74-7.46A6.87,6.87,0,0,0,23.58.29L10.23,4.76C7,5.85,4.36,8.84,5.55,12.1c1,2.85,4.73,5.35,8.24,4.17Z"/>
    </g>
  </g>
</svg>
