<svg xmlns="http://www.w3.org/2000/svg" viewBox="0 0 80 68.8">
  <defs>
    <style>
      .cls-1 {
        fill: 	#87CEEB;
      }
    </style>
  </defs>
  <title>splodge-hut</title>
  <g id="Layer_2" data-name="Layer 2">
    <g id="Layer_2-2" data-name="Layer 2">
      <path class="cls-1" d="M13.53,43.13a104.68,104.68,0,0,1,8.54-9q2.27-2.11,4.66-4.08l1.13-.92c.11-.09,1.26-1,.63-.5s.53-.4.65-.48L30.6,27.1a103.27,103.27,0,0,1,10.16-6.43q2.71-1.5,5.51-2.84c1-.47,2-.9,3-1.36s-1.06.42.11-.05L51,15.73,42.06,4C36.74,11.54,31.63,19.2,26.12,26.57L24.51,28.7c-.45.59,1.16-1.47,0-.06l-.78,1q-2,2.51-4.08,4.95c-3.4,4-6.93,7.89-10.48,11.75C6.38,49.39,6,54.6,9.21,57.59s7.88,2.91,11.26,0c8.6-7.41,16.79-15.29,25.35-22.74q3.58-3.12,7.25-6.14,1.78-1.46,3.59-2.89l.95-.74-.2.16L59,24a73.52,73.52,0,0,1,12.91-8.08L61,5C51.27,19.9,40.47,34.14,30.21,48.69c-1.91,2.71-3.85,5.41-5.68,8.18-2.18,3.32-.93,8,2.05,10.27A8,8,0,0,0,37,66.52C43.32,60.4,49.6,54.27,56.1,48.38A219.22,219.22,0,0,1,75.46,32.49l-9.65-1.25.34.43-2-3.51c.82,2-.06-3.8,0-1.47q.61-1.37.16-.43l-.54,1.09q-.91,1.82-1.85,3.63-2.16,4.15-4.5,8.21-4.57,7.94-9.77,15.49c-2.37,3.44-.76,9,2.86,10.89a8.16,8.16,0,0,0,10.89-2.86Q67.55,53.66,72.9,44c1.71-3.09,3.36-6.21,4.91-9.38,1.09-2.22,2.16-4.49,2.2-7,0-3.06-1-5.26-2.92-7.66S70,16.88,67.43,18.74C52.37,29.55,39,42.34,25.78,55.26l12.51,9.65C48.07,50,58.87,35.8,69.12,21.25,71,18.54,73,15.84,74.8,13.07a8,8,0,0,0-1.25-9.65C70.76.85,67.26.63,63.91,2.17a74.22,74.22,0,0,0-13.14,8.25c-5.41,4-10.62,8.33-15.72,12.75C26.31,30.75,18,38.78,9.21,46.33L20.47,57.59A291.76,291.76,0,0,0,39.58,35C45.2,27.51,50.4,19.71,55.81,12.07,57.63,9.5,57,5.54,55.19,3.23s-5.44-4-8.37-2.85A112.14,112.14,0,0,0,2.27,31.87c-2.69,3.17-3.35,8.19,0,11.26,3,2.72,8.39,3.39,11.26,0Z"/>
    </g>
  </g>
</svg>
