<svg xmlns="http://www.w3.org/2000/svg" viewBox="0 0 82.73 9.98">
  <defs>
    <style>
      .cls-1 {
        isolation: isolate;
      }

      .cls-2 {
        fill: #000;
      }
    </style>
  </defs>
  <title>title-logo</title>
  <g id="Layer_2" data-name="Layer 2">
    <g id="Layer_3" data-name="Layer 3">
      <g>
        <g id="Layer_2-2" data-name="Layer 2">
          <g id="Layer_1-2" data-name="Layer 1-2">
            <g class="cls-1">
              <g class="cls-1">
                <path class="cls-2" d="M13.95,6.22q.06-.59.14-1a6.26,6.26,0,0,1-.14-1.65V2.43a.25.25,0,0,1-.08-.2q0-.14,0-.44a.32.32,0,0,1,0-.16L14,1.5h.85l.07.06s0,.15.07.44l0,.22a8.64,8.64,0,0,1,.07,1.28q0,.54-.11,1.6t-.11,1.6c0,.13,0,.25,0,.34s0,.15,0,.16l.12.14s-.06,0-.06.1a.28.28,0,0,0,0,.1.21.21,0,0,1,0,.07h.81l.68,0a.63.63,0,0,0,.38.08,3.44,3.44,0,0,0,.69-.08,3.11,3.11,0,0,1,.54-.06,1.44,1.44,0,0,0,0,.3s0,.07,0,.12a1.15,1.15,0,0,1,0,.14.28.28,0,0,1-.11.2c-.07.07-.12.1-.15.1l-.39-.06a1.61,1.61,0,0,1-.94.24l-.44,0h-1a3.3,3.3,0,0,1-.94-.11.44.44,0,0,1-.37-.43V7h-.05Zm.24,1.07a.54.54,0,0,1,0,.12,3.39,3.39,0,0,0,.05.4,1,1,0,0,0,.33-.27.39.39,0,0,1-.19-.14.31.31,0,0,0,.13,0s.07,0,.07-.05,0-.06-.08-.11a.43.43,0,0,1,.05-.14.44.44,0,0,0,.05-.19h-.3a.35.35,0,0,0,.28-.16.8.8,0,0,0,.07-.37.7.7,0,0,0-.38.08.31.31,0,0,0-.14.22,3.9,3.9,0,0,0,0,.49A.44.44,0,0,0,14.19,7.29Zm.22-4.73a.71.71,0,0,0-.14.37,1.35,1.35,0,0,0,.42,0q.13,0,.13-.27,0-.85-.2-.85l-.39.07q0,.39.14.39h.1s.05,0,.07.07A2.87,2.87,0,0,1,14.4,2.56Zm-.08,1.08a.23.23,0,0,0-.05.18.83.83,0,0,0,0,.18.67.67,0,0,0,.4-.37A1.34,1.34,0,0,0,14.82,3a.45.45,0,0,0-.3.13l-.18.15a.14.14,0,0,0,.1.13c.07,0,.1.06.1.11v0A.36.36,0,0,0,14.32,3.64Zm.13,2.25L14.39,6a.88.88,0,0,0-.09.16.42.42,0,0,0,0,.17q.32,0,.4-.19a1.37,1.37,0,0,0,.08-.55V5.11l-.16.11a.65.65,0,0,0-.18.18.38.38,0,0,0-.06.21s0,.05.08.07.08,0,.08.06A.3.3,0,0,1,14.45,5.89Zm-.18-2.81h.16A.1.1,0,0,0,14.49,3h0A.24.24,0,0,0,14.28,3.08Zm.21,1.25q.23,0,.3-.12a.94.94,0,0,0,.06-.41h-.11l-.47.51A.74.74,0,0,0,14.49,4.33Zm0,.24c.06,0,.09,0,.09-.08v0l-.25.06V4.6Zm.23,3.23a.21.21,0,0,0,0-.08.14.14,0,0,0,0-.06l-.33.28Q14.68,7.93,14.68,7.81Zm-.26.39a.66.66,0,0,0,.28,0,.47.47,0,0,0,.17-.22h-.06a1.21,1.21,0,0,0-.32,0,.3.3,0,0,0-.21.16S14.33,8.2,14.42,8.2Zm0-3.07.06-.08h-.19V5.2A.16.16,0,0,0,14.47,5.13Zm.1-.44-.15.16h.33V4.56S14.65,4.61,14.57,4.69Zm.51,3.49c.1,0,.16,0,.19.08a.3.3,0,0,0,.21-.13L15.59,8h-.05a.5.5,0,0,0-.28.07V8c-.32,0-.48.07-.48.2Zm.56.1a.47.47,0,0,0,.41-.16.19.19,0,0,0,.07.09l.08,0a.24.24,0,0,0,.18-.11.33.33,0,0,0,.09-.2Q15.64,8,15.64,8.28Zm.85,0,.13,0,.15,0,0,0,0,0a3.73,3.73,0,0,0,.64-.08q.42-.08.42-.2l-.65,0-.68,0-.19.19Z"/>
                <path class="cls-2" d="M22.46,7.63l.22.07a1.28,1.28,0,0,1,.33.13.23.23,0,0,1,.11.21.63.63,0,0,1-.27.61l-.46-.13a1.57,1.57,0,0,1-.48-.28l-.2-.13a.48.48,0,0,0-.24.11.56.56,0,0,1-.2.11,4,4,0,0,1-.46.18,1.4,1.4,0,0,1-.42.06,2.25,2.25,0,0,1-.84-.17,1.76,1.76,0,0,1-.71-.52A1.29,1.29,0,0,1,18.56,7a2,2,0,0,1,.08-.44,2.94,2.94,0,0,1,.14-.44,1.18,1.18,0,0,1,.58-.42,6,6,0,0,1,1-.24,4.88,4.88,0,0,0,.7-.18q.21-.08.21-.24a.75.75,0,0,0-.21-.54.76.76,0,0,0-.58-.22,1,1,0,0,0-.29,0l-.36.14a1.29,1.29,0,0,1-.47.15q-.28,0-.28-.56a.49.49,0,0,1,.31-.5,2.2,2.2,0,0,1,.8-.12l.25,0,.23,0a2.66,2.66,0,0,0,.47.05h.24q.27,0,.27.2a.39.39,0,0,1,.19,0,.16.16,0,0,1,.06.15q.3,0,.43.49a3.64,3.64,0,0,1,.13.91,5.58,5.58,0,0,1-.08.82,5.49,5.49,0,0,0-.09.79,1.19,1.19,0,0,0,0,.19,1.18,1.18,0,0,1,0,.19v.1l.06.12A.1.1,0,0,0,22.46,7.63ZM18.9,7s-.05,0-.05.06v0l.08,0s.05,0,.05-.05V7A.15.15,0,0,0,18.9,7Zm.24.51a.55.55,0,0,0,.05-.19.53.53,0,0,0-.21,0,.22.22,0,0,0-.13.13.18.18,0,0,0,.07.09l.09.06S19.11,7.64,19.14,7.55Zm-.21-.92a.58.58,0,0,0,0,.13.3.3,0,0,0,.15,0l.13-.1-.1,0-.1,0S18.94,6.57,18.93,6.63Zm.41.14h-.05l-.22,0a.25.25,0,0,0-.15.08h.39A.14.14,0,0,0,19.35,6.76ZM19,7.27c.15,0,.22-.05.22-.16A.25.25,0,0,0,19,7.27Zm.48-.81a.24.24,0,0,0,.06-.11h-.29a.37.37,0,0,1,.16-.12l.26-.1L20,6a.51.51,0,0,0,.2-.17h0a1.45,1.45,0,0,0-.33,0,.17.17,0,0,0-.14.16l-.23.08a.81.81,0,0,0-.23.12.4.4,0,0,0-.13.19.38.38,0,0,0,.13.08l.14.05S19.42,6.51,19.46,6.46Zm-.12,1.11a.15.15,0,0,0-.16.15Q19.35,7.7,19.35,7.57ZM20.71,4A.85.85,0,0,0,21,4q0-.24-.12-.24l-.09,0-.1,0h-.28a4.21,4.21,0,0,0-.54,0,3,3,0,0,0-.51.13.48.48,0,0,0,0,.13.31.31,0,0,0,0,.11,1.5,1.5,0,0,0,.38-.08.64.64,0,0,0,.33-.19l.11.08.06,0a.16.16,0,0,1,.1,0A1,1,0,0,1,20.71,4Zm-.06,3.69a2.09,2.09,0,0,0,.54-.23.4.4,0,0,0,.23-.32v0a2.31,2.31,0,0,0-.1-.77A.45.45,0,0,0,20.83,6a.44.44,0,0,0-.16,0l-.15,0a.59.59,0,0,0-.3.13L20,6.4a.36.36,0,0,0-.11.13l-.09.18a1.19,1.19,0,0,1-.12.23.18.18,0,0,1-.15.08.76.76,0,0,0,.17.52.63.63,0,0,0,.5.19A1.92,1.92,0,0,0,20.64,7.65Zm-.92.49a.42.42,0,0,0,.17.06.24.24,0,0,0-.08-.14C19.75,8,19.71,8,19.68,8a.13.13,0,0,0-.12.08Zm.61.12a.37.37,0,0,0,0-.13H20.3a.23.23,0,0,0-.2.13l.16.08S20.31,8.3,20.33,8.26Zm.33-2.6-.3.15.39-.05ZM21.06,8l0-.16a.67.67,0,0,0-.35.11.33.33,0,0,0-.18.28L21,8.13S21,8.09,21.06,8Zm0-2.34a.16.16,0,0,0-.1.08l.15,0,.16,0,.1,0,.11,0-.15-.07-.14,0A.35.35,0,0,0,21.06,5.67Zm.39-1.52c.11,0,.16-.07.16-.12s-.1-.11-.29-.11a.23.23,0,0,0-.17.08.26.26,0,0,0-.07.19h.11A1,1,0,0,0,21.45,4.15ZM21.32,8l.08-.1a.33.33,0,0,0,.08-.22v-.1l-.08.06-.06.07a.1.1,0,0,0,0,.05h-.15V8Zm.47-2.71-.28-.06-.1.12Zm-.31-.83a.11.11,0,0,0,0,.07.13.13,0,0,0,.1,0,.37.37,0,0,0,.21,0,.17.17,0,0,0,.06-.15.34.34,0,0,0-.06-.17.16.16,0,0,0-.13-.1Zm.08,1.18.19,0,.18.06a.36.36,0,0,1-.16.15.23.23,0,0,0-.08.07.36.36,0,0,0,0,.17,1,1,0,0,0,.05.31,1.49,1.49,0,0,1,0,.31,1.23,1.23,0,0,1,0,.25q.23-.05.34-.47a3.54,3.54,0,0,0,.11-.88,1.53,1.53,0,0,0,0-.38.85.85,0,0,0-.31.1l-.35.18A.13.13,0,0,0,21.56,5.65Zm.29-1a.41.41,0,0,0-.19.1.22.22,0,0,0-.07.16q.2,0,.4-.31Zm.24.24s0-.05-.06-.05a.4.4,0,0,0-.19.08.66.66,0,0,0-.18.15l.39.06a.18.18,0,0,1,0-.07.19.19,0,0,0,0-.07A.17.17,0,0,0,22.09,4.93ZM21.71,7.5l.06,0,.13-.09q.08-.07.08-.1s0,0,0,0a.34.34,0,0,0-.15,0,.31.31,0,0,0-.12.1Zm.14-.45a.23.23,0,0,0-.08.17A.2.2,0,0,0,22,7,.23.23,0,0,0,21.86,7.06Zm.07.73,0,0c.12,0,.18-.09.18-.28a.35.35,0,0,0-.16.05.15.15,0,0,0-.1.13A.1.1,0,0,0,21.93,7.78Zm.25.15H22a.15.15,0,0,0,.07.14A.16.16,0,0,0,22.18,7.93Zm.31.1c0-.06-.07-.08-.1-.08a.1.1,0,0,0-.08.05.21.21,0,0,0,0,.11C22.4,8.1,22.47,8.08,22.49,8Zm.31.32a.67.67,0,0,0,0-.16.08.08,0,0,0-.09-.06.52.52,0,0,0-.18,0,.22.22,0,0,0-.12.08Q22.39,8.35,22.8,8.35Z"/>
                <path class="cls-2" d="M31.77,7.48a.29.29,0,0,1,.05.2,2.47,2.47,0,0,1-.06.56q-.06.25-.14.25h-.19l-1,.15a6.19,6.19,0,0,1-.81.05H29.4a.3.3,0,0,1-.16.1.79.79,0,0,1-.23,0,2.53,2.53,0,0,1-1.38-.54,3.59,3.59,0,0,1-1-1.21,3.14,3.14,0,0,1-.38-1.47,4.46,4.46,0,0,1,.47-2A3.83,3.83,0,0,1,28,2.08,3.4,3.4,0,0,1,30,1.51a8.11,8.11,0,0,1,.91,0,1.38,1.38,0,0,1,.66.26.79.79,0,0,1,.3.69.42.42,0,0,1,0,.17c0,.06-.07.1-.12.1a1,1,0,0,1-.28,0l-.32-.1-.45-.14a1.36,1.36,0,0,0-.33,0,3,3,0,0,0-.71.08,6.31,6.31,0,0,0-.77.24,1.75,1.75,0,0,0-1.09,1.07,5.23,5.23,0,0,0-.29,1.82v.27q.11,0,.15.48a1,1,0,0,0,0,.23,1.63,1.63,0,0,0,1,.94,5.39,5.39,0,0,0,1.7.24,1.25,1.25,0,0,0,.38-.06l.48-.19a1.16,1.16,0,0,1,.41-.15A.18.18,0,0,1,31.77,7.48ZM26.69,5.73a.36.36,0,0,0,.2-.11,1.76,1.76,0,0,0,.21-.22h-.55v.06Q26.55,5.73,26.69,5.73Zm.08-.94c-.09.05-.13.17-.13.35v.12A3.78,3.78,0,0,0,27,5a.36.36,0,0,0,.16-.27A.87.87,0,0,0,26.77,4.79Zm-.1,1.49c0,.06,0,.1,0,.1h.13l.34-.33V6q-.53,0-.53.14A.64.64,0,0,0,26.67,6.29Zm.46-.67-.06,0a.37.37,0,0,0-.22.11.36.36,0,0,0-.14.23,1.09,1.09,0,0,0,.35,0q.12,0,.12-.22S27.16,5.63,27.13,5.62Zm-.37-1.21.41-.26V4.09h-.34s-.07.08-.07.23Zm.22,0a1.27,1.27,0,0,0-.22.23,1.22,1.22,0,0,0,.36,0c.07,0,.11-.1.11-.23l0,0,0,0A.38.38,0,0,0,27,4.38Zm.2.72a.32.32,0,0,0,0-.11,1.08,1.08,0,0,0-.41.27h.18Q27.19,5.27,27.19,5.1Zm4.24,2.78a4.91,4.91,0,0,1-1.31.28l-.61-.07q-.21,0-1.05-.3L28,7.64l-.33-.08.13-.12s0-.07-.07-.07h-.13a.71.71,0,0,0,0-.27q0-.08-.22-.08a.31.31,0,0,0,.14-.19c-.12,0-.18-.08-.18-.23H27l.16-.08c.06,0,.1-.06.1-.08a.51.51,0,0,0,0-.12l0-.13a.6.6,0,0,0-.25.14q-.14.12-.14.22l.07.23A1.75,1.75,0,0,0,27,7a.36.36,0,0,0,.19-.08.14.14,0,0,0,0,.06.17.17,0,0,0,0,.08.74.74,0,0,0,.33.66A2.63,2.63,0,0,0,28.1,8l.44.14h0l.1,0,.09,0q0,.13.42.19a5,5,0,0,0,.7.06,6.47,6.47,0,0,0,.91-.07,1.82,1.82,0,0,0,.66-.19ZM27.16,3.49q-.13.08-.13.18v0l.13-.06.17-.11a.16.16,0,0,0,.07-.12A.46.46,0,0,0,27.16,3.49Zm.22.35a.24.24,0,0,0,.07-.18v0a.39.39,0,0,0-.18.1l-.15.15,0,0h0A.24.24,0,0,0,27.37,3.84Zm-.14-.46a1.41,1.41,0,0,1,.36-.17l.19-.1a.27.27,0,0,0,.08-.16,1.87,1.87,0,0,0,0-.37l-.66.65Zm.92-1a.3.3,0,0,0-.08.22.28.28,0,0,0,.2-.1.3.3,0,0,0,.1-.21A.29.29,0,0,0,28.15,2.38Zm.38-.06-.18.27c.13-.13.19-.21.19-.23ZM28.93,2q-.19.11-.19.14l.06.14a4.89,4.89,0,0,0,.52-.39h-.12A.67.67,0,0,0,28.93,2Zm.44.08q-.15,0-.43.33a.64.64,0,0,0,.46-.33Zm.08-.26c0,.06,0,.12.15.2l.19-.2Zm.4.12a.13.13,0,0,0-.11.05l-.09.15h.07q.12,0,.2-.2Zm.2,0a.14.14,0,0,0,.13-.07h-.13Zm.27.11a.33.33,0,0,0,.05-.18l-.25.26h.06A.16.16,0,0,0,30.32,2Zm.32-.19L30.5,2a.35.35,0,0,0,.17,0,.13.13,0,0,0,.08-.12Zm.23.06A.22.22,0,0,0,30.7,2a.4.4,0,0,0-.08.21.23.23,0,0,0,.19-.1.5.5,0,0,0,.1-.22Zm.12,0a.33.33,0,0,0,0,.13h.13a.42.42,0,0,0-.06.22.31.31,0,0,0,.19-.06.2.2,0,0,0,0-.31.25.25,0,0,0-.16-.06S31,1.87,31,1.92Zm.4.29a.25.25,0,0,0,0,.13c0,.07,0,.11.14.11V2.11A.32.32,0,0,0,31.4,2.22Z"/>
                <path class="cls-2" d="M36.61,7.77a0,0,0,0,0,0,0,2.43,2.43,0,0,0,.06.28,1.63,1.63,0,0,1,.06.38c0,.08-.06.13-.19.15a2.88,2.88,0,0,1-.41,0l-.23,0-.09-.05s-.06-.05-.06-.07V6.44q0-.49,0-.89a2,2,0,0,0-.16-.68h0a1.36,1.36,0,0,1-.35-.18,1.35,1.35,0,0,1-.31-.22l-.35.07a2.4,2.4,0,0,0-.66.21.61.61,0,0,0-.37.44q0,.12,0,.3a2.64,2.64,0,0,0,0,.3c0,.17,0,.3,0,.4q-.06.85-.06,1.29c0,.18,0,.31,0,.39l-.06.06.11.16a.45.45,0,0,1,.09.25.29.29,0,0,1,0,.13.11.11,0,0,1-.11.06H32.6a.13.13,0,0,0-.1-.07.1.1,0,0,1-.09-.06V7.53q0-.71.11-2.14l.05-.85q0-.68,0-1.26,0-.23,0-.55t0-.48q0-.7,0-1.05h.79l.14.06v.55a9.57,9.57,0,0,0,.06,1.8l.06.14q.35-.12.81-.22a3.46,3.46,0,0,1,.73-.11,1.41,1.41,0,0,1,.88.3,2.13,2.13,0,0,1,.63.77,2.09,2.09,0,0,1,.23.92,4.69,4.69,0,0,1,0,.59l-.05.43a7.67,7.67,0,0,0-.11,1.06,2.18,2.18,0,0,0,0,.25Zm-3.54.35a.33.33,0,0,0,.05-.19.91.91,0,0,0,0-.13.22.22,0,0,0-.06-.12l-.1,0-.11,0,.27-.27c0-.14-.06-.21-.11-.21h0l.07-.14a.44.44,0,0,0-.4.21l0,0,0,0,.07,0,.06,0-.13.19.06.06a.1.1,0,0,0-.06,0,.22.22,0,0,0,0,.08l0,.13a.46.46,0,0,1,0,.13l0,0a.08.08,0,0,0,0,.07s0,0,.07.05l.13,0A.18.18,0,0,0,33.08,8.12Zm0-2.39a3.61,3.61,0,0,1,.08-.87l-.06,0-.06,0a.73.73,0,0,0-.23.14.36.36,0,0,0,0,.22s0,0,0,0l.13.07-.13.12v.85l.13.07a.3.3,0,0,0-.15.09.22.22,0,0,0-.06.15.57.57,0,0,1,.2,0,.31.31,0,0,1,.15.1.45.45,0,0,0,.07-.27H33a.44.44,0,0,1,.14-.2C33.1,6.15,33.1,5.94,33.1,5.73ZM32.95,7l-.1,0,.06-.13a.31.31,0,0,0-.14,0s-.06,0-.06.07a.07.07,0,0,0,0,.08l.12,0H33a.22.22,0,0,0,.1-.06.06.06,0,0,0,0,0l0,0ZM32.88,1.5c-.06,0-.1.05-.1.07a2.38,2.38,0,0,0,.11.54,2.48,2.48,0,0,1,.08.44.17.17,0,0,1,0,.07l0,.06V3.75l.06.06s-.05,0-.07.11a.92.92,0,0,0,0,.22h.17c-.11.08-.16.15-.16.21a.48.48,0,0,0,.19-.06l.16-.09a.92.92,0,0,0,0-.23c0-.1-.06-.15-.08-.16l0-.08a.93.93,0,0,0,0-.12,2.58,2.58,0,0,0,0-.39,2,2,0,0,1-.05-.45h0a.51.51,0,0,0,.06-.18,1.9,1.9,0,0,0,0-.23c0-.12,0-.19,0-.21s0,0,0,0a.49.49,0,0,1,0-.15.69.69,0,0,0,0-.24.82.82,0,0,0,0-.2s0-.05-.06-.05A.43.43,0,0,0,32.88,1.5Zm1,2.85q.89-.32,1-.48l-.06-.06L34,4h-.14a.78.78,0,0,0-.16.16.88.88,0,0,1-.13.14.2.2,0,0,1-.13,0,.08.08,0,0,1-.07,0l0,0a1.42,1.42,0,0,0-.34.15.27.27,0,0,0-.12.24.11.11,0,0,0,.13.13,1.68,1.68,0,0,0,.37-.1.28.28,0,0,0,.13-.12.18.18,0,0,1,.09-.1Zm.73-.15s0-.06,0-.12l-.27.14h.1A.24.24,0,0,0,34.58,4.2Zm1-.32a.49.49,0,0,0-.27-.06h-.2l-.33.4.06.05A3.23,3.23,0,0,0,35.55,3.87Zm-.25.38.18-.18-.15.05a1.31,1.31,0,0,0-.3.14l.07,0,.07,0S35.23,4.32,35.3,4.26Zm.25.1a.53.53,0,0,0,.38-.21L35.8,4l-.32.34Zm.41.54.1,0L36,5l.15.05L36,5.19a.73.73,0,0,0,.29-.09.27.27,0,0,0,.19-.24.15.15,0,0,0-.15-.15h-.05l.06-.12a.35.35,0,0,0-.05-.19.16.16,0,0,0-.14-.08.36.36,0,0,0-.22.08.69.69,0,0,0-.18.19l.13.05a.65.65,0,0,1,0,.12l0,.08a0,0,0,0,0,0,0l0,0Zm.43.64a.52.52,0,0,0,.18-.43.68.68,0,0,0-.45.16.51.51,0,0,0-.19.41A.7.7,0,0,0,36.39,5.53Zm-.09,1.3a.65.65,0,0,1,.09-.25l.07-.16a.84.84,0,0,0,.06-.33.18.18,0,0,0,0-.07.05.05,0,0,0,0,0l-.39.25v0c0,.07,0,.11.07.11L36,6.5a.23.23,0,0,0-.06.12l.13-.06a0,0,0,0,0,0,0,.1.1,0,0,0,0,.06l.06,0,0,0a.11.11,0,0,0,0,.08l0,0,0,0L36.06,7v1.4h.08a.41.41,0,0,0,.18,0,.13.13,0,0,0,.06-.13c0-.11,0-.21,0-.29s0-.15,0-.21a4.65,4.65,0,0,1,0-.55h-.05a.46.46,0,0,0,.16-.32Zm0-.88a.54.54,0,0,0,.19-.38.63.63,0,0,0-.3.11q-.18.11-.18.22h.15a.2.2,0,0,1-.09.08L36,6a.12.12,0,0,0,0,.1A.53.53,0,0,0,36.34,6Z"/>
              </g>
              <g class="cls-1">
                <path class="cls-2" d="M43,4.81a3.54,3.54,0,0,1,.33,1.62v.35a.17.17,0,0,1-.08.08l-.09.06a.16.16,0,0,0,0,.12.3.3,0,0,0,0,.08.09.09,0,0,0,.05.06.11.11,0,0,0-.1.08L43,7.54a.76.76,0,0,1-.17.36,3.88,3.88,0,0,1-1.24.63,5.22,5.22,0,0,1-1.46.19l-.83-.52a.4.4,0,0,1-.3-.12,1.36,1.36,0,0,1-.23-.35l-.16-.24a.71.71,0,0,0-.18-.19,3,3,0,0,1-.2-.75,6.47,6.47,0,0,1-.05-.88l.4-1.13.26-.28.44-.44A2.41,2.41,0,0,1,40,3.42a2.18,2.18,0,0,1,.81-.17,1.66,1.66,0,0,1,.57.11,2.57,2.57,0,0,1,.55.28A3.2,3.2,0,0,1,43,4.81Zm-4.41.66-.08.09a.38.38,0,0,0-.08.27.52.52,0,0,0,.27-.07,2.43,2.43,0,0,0,.29-.2s-.05-.07-.16-.07h-.23Zm.2,1Q39,6.31,39,6.2h-.48q-.11,0-.11.33A.92.92,0,0,0,38.78,6.42Zm.33-.61v-.2L39,5.69l-.12.06q-.29.13-.33.23H39S39.11,5.93,39.11,5.81Zm-.46,1.31L38.77,7a.67.67,0,0,0,.15-.13A.22.22,0,0,0,39,6.78h-.12l-.16,0c-.07,0-.11,0-.11.07Zm0-2.16a.9.9,0,0,0,0,.27A.94.94,0,0,0,39,5.15a.45.45,0,0,0,.24-.2.67.67,0,0,0-.41-.13C38.75,4.82,38.7,4.87,38.68,5Zm.27,1.49a.82.82,0,0,0-.22.14l.32.07s.05,0,.07-.09a.7.7,0,0,0,0-.2A.67.67,0,0,0,38.95,6.45Zm-.16.86a1.38,1.38,0,0,0,.46-.19.38.38,0,0,0,0-.15s0-.06-.07-.06h0l-.33.33ZM39,4.51a.31.31,0,0,0-.1.14q0,.13.18.13h.15l.12,0,.06-.27-.3-.06S39.08,4.46,39,4.51Zm.12,3.27a.43.43,0,0,0,.24-.09.25.25,0,0,0,.13-.21c-.11,0-.18,0-.21.08V7.24l-.38.19v.07C39,7.69,39.09,7.78,39.14,7.78Zm.06-2.48a.34.34,0,0,0,.1-.16h0a.29.29,0,0,0-.16.07c-.06,0-.1.1-.1.14A.32.32,0,0,0,39.2,5.31ZM39.57,8a.31.31,0,0,0,.11-.1v.21a.58.58,0,0,0,.24-.05A.17.17,0,0,0,40,7.9s0-.1-.14-.14a.6.6,0,0,0-.22-.06h0l-.4.13a.2.2,0,0,0,.2.2A.28.28,0,0,0,39.57,8Zm-.2-3.74c-.06,0-.09.08-.09.12h.15q.34,0,.34-.1l-.19-.13a.06.06,0,0,1,0,0l0,0a.61.61,0,0,1,.19,0l.15,0a.27.27,0,0,0,.16-.05A1,1,0,0,0,40.3,4a.61.61,0,0,1,.26-.19h-.17l-.1,0-.06-.06a.46.46,0,0,0-.2,0,1.39,1.39,0,0,0-.24.15,1.37,1.37,0,0,1-.35.19.11.11,0,0,1,0,.06S39.43,4.22,39.37,4.26Zm.94.14a2.44,2.44,0,0,0-.54.41.35.35,0,0,0-.08.22.6.6,0,0,1,0,.15.18.18,0,0,1-.07.09,2.86,2.86,0,0,0-.12.42,4.29,4.29,0,0,0-.08.43,1,1,0,0,0,0,.17,1.43,1.43,0,0,0,.92,1.34l.5,0a2,2,0,0,0,1-.2,1.05,1.05,0,0,0,.48-.59,3.29,3.29,0,0,0,.13-1,2.14,2.14,0,0,0-.09-.5,2.83,2.83,0,0,0-.18-.5.87.87,0,0,1-.52-.46,1.81,1.81,0,0,1-.33,0l-.35,0A1.3,1.3,0,0,0,40.31,4.41ZM40.17,8a.3.3,0,0,0-.21.08.24.24,0,0,0-.09.19Q40.17,8.27,40.17,8Zm.19.1A.29.29,0,0,0,40.56,8h-.14c-.07,0-.11,0-.13.07Zm2-.35h-.19a.8.8,0,0,0-.25,0,.69.69,0,0,0-.21.11l-.14.1h-.85l-.19.21a.92.92,0,0,0,.26.08l.29,0a1.5,1.5,0,0,0,.49-.11A5.52,5.52,0,0,0,42.07,8a.88.88,0,0,0,.25-.14ZM41,3.81a1,1,0,0,0-.14.16l.27.05.52.07h.1L41.88,4a.82.82,0,0,0-.32-.23,1,1,0,0,0-.38-.1S41.1,3.74,41,3.81Zm.25,4.68h-.06l-.1,0a.09.09,0,0,0,0,.07Zm.61-.2a.11.11,0,0,0,0-.08l-.2.08h.07Zm-.11-4.13s0,.09.1.11a.52.52,0,0,0,.19,0V4.16Zm.37.17a.2.2,0,0,0,0,.1.19.19,0,0,0,.14.2l.1-.05a.23.23,0,0,0,.1-.08l-.13-.13-.1-.08A.08.08,0,0,0,42.15,4.33Zm.39,3.27a.23.23,0,0,0,.19-.23s-.06-.06-.18-.06a.39.39,0,0,0-.26.11.32.32,0,0,0-.12.24A1.25,1.25,0,0,0,42.54,7.6Zm-.22-2.92v.1c.12,0,.19,0,.2-.1ZM42.52,8h0a.12.12,0,0,0-.12.06Zm.18-3.08a.11.11,0,0,0-.11-.07c-.1,0-.15,0-.15.1s.1.14.29.14A.39.39,0,0,0,42.7,4.89Zm.14,2.23a.25.25,0,0,0,.08-.21h-.3a.27.27,0,0,1,0,.15.35.35,0,0,1-.12.12h.17A.33.33,0,0,0,42.84,7.12Zm-.15-1.87a.14.14,0,0,0,0-.1h-.15V5.3A.14.14,0,0,0,42.69,5.25ZM43,6.52A.12.12,0,0,0,43,6.39a.76.76,0,0,0-.23,0,.52.52,0,0,1,0,.21.53.53,0,0,0,0,.22Q43,6.8,43,6.52Zm-.11-1.08q0-.1-.11-.1c-.11,0-.17,0-.17.13a.26.26,0,0,0,0,.12.26.26,0,0,1,0,.1h0a.1.1,0,0,1,0,.06l0,0h0l.08-.06.08-.07.08,0s0,0,0,0A.4.4,0,0,0,42.93,5.44Zm0,.36-.27.28a.24.24,0,0,0,.15.11.74.74,0,0,0,.21,0C43,5.94,43,5.8,42.92,5.8Z"/>
              </g>
              <g class="cls-1">
                <path class="cls-2" d="M48.32,7.81l.19.66a.4.4,0,0,1-.09.16.25.25,0,0,1-.16,0l-.27,0-.39,0-.28,0-.24,0-.27,0-.25,0,.12-.07h-.05c-.13,0-.19,0-.2.07h-.85s-.24-.07-.65-.07h-.27q-.2,0-.2,0V8.38h-.05s-.07,0-.07-.1A.59.59,0,0,1,44.44,8a4.67,4.67,0,0,1,.35-.44A2.43,2.43,0,0,0,45.17,7q.32-.63.85-1.5l.2-.28a2.08,2.08,0,0,0,.25-.38.93.93,0,0,0,.08-.41,5.19,5.19,0,0,0-.85-.12c-.29,0-.63,0-1,0h-.47V4.08a2.9,2.9,0,0,1,0-.48c0-.12.07-.18.15-.18a4.74,4.74,0,0,1,.65.06,4.72,4.72,0,0,0,.64.06l.63,0,.62,0a5.21,5.21,0,0,1,.66.06,4.69,4.69,0,0,0,.62.06l.08,0,.08,0a.62.62,0,0,1,.05.14c0,.07,0,.11.07.13a1,1,0,0,1-.18.44q-.14.2-.67.81a1.89,1.89,0,0,0-.2.28q-.08.14-.18.35a3,3,0,0,1-.21.41l-.45.66q-.46.66-.61.91v.07l.26.06h1.58l.06,0,.07,0,.17-.06.16-.07ZM44.82,4A.21.21,0,0,0,45,3.81c0-.06-.06-.1-.17-.1h-.3v.34A.88.88,0,0,0,44.82,4Zm.23,4.19c.07,0,.11,0,.12-.06h0l-.15,0-.15-.05v.16Zm0-.58a.3.3,0,0,0-.05.18l.39-.06a.21.21,0,0,1-.13-.07.24.24,0,0,1-.06-.13A.2.2,0,0,0,45.08,7.63ZM46.2,4l.36.07A.81.81,0,0,0,46.88,4q.2-.09.2-.11L47,3.81H45.36a.33.33,0,0,0-.18.05A.16.16,0,0,0,45.1,4h.6Zm-.63,3.33a.52.52,0,0,0,.26-.19l-.14,0-.19,0s-.07,0-.13.13l-.12.2A.88.88,0,0,0,45.56,7.33Zm-.15.76c.07-.07.11-.12.11-.16h-.19c0,.16,0,.24-.1.27A.29.29,0,0,0,45.41,8.09Zm.35,0a.77.77,0,0,0-.34.06h.34Zm0-1.68a.17.17,0,0,0-.08.17v.06L46,6.56q.19-.1.19-.13l-.16,0A.5.5,0,0,0,45.76,6.46Zm.29,1.77c.07,0,.1,0,.1-.06a.09.09,0,0,0,0-.05l0,0a.21.21,0,0,0-.14.06.19.19,0,0,0-.07.14A.48.48,0,0,0,46.06,8.23Zm.1-1.39a.15.15,0,0,0,.06-.12v0a1.17,1.17,0,0,0-.25.19H46A.23.23,0,0,0,46.16,6.84Zm0-.87c.08,0,.12,0,.14-.07l-.06-.06A.15.15,0,0,0,46.14,6Zm1,2.32h.17l.32,0a1.94,1.94,0,0,0,.52-.11q0-.11-.32-.11l-.62,0a5.76,5.76,0,0,1-.6,0h-.19a.32.32,0,0,0-.2.14h.6l.07.05Zm-.78-2.13s.06.07.15.07a.21.21,0,0,0,.15,0A.45.45,0,0,0,46.74,6h0A1.69,1.69,0,0,0,46.35,6.17Zm.23-.89c-.08,0-.12.07-.12.12v0l.4-.2h-.07A.75.75,0,0,0,46.58,5.28Zm.41.17a.31.31,0,0,0-.18.05.17.17,0,0,0-.08.15l.19.06Zm-.06-.79a.14.14,0,0,0-.06.13h.06Zm.31-.72a.18.18,0,0,0-.06.11v0l.19-.2h0A.17.17,0,0,0,47.25,3.94Zm.33.31a4.16,4.16,0,0,0-.26.35.55.55,0,0,0,.39-.18,4.57,4.57,0,0,0,.4-.48.11.11,0,0,0-.1-.05h-.11A2.65,2.65,0,0,0,47.58,4.25ZM48,8.47s0,0-.11,0-.1,0-.1,0,0,0,.11,0A.14.14,0,0,0,48,8.47Z"/>
                <path class="cls-2" d="M53.39,7.63l.22.07a1.28,1.28,0,0,1,.33.13A.23.23,0,0,1,54,8a.63.63,0,0,1-.27.61l-.46-.13a1.57,1.57,0,0,1-.48-.28l-.2-.13a.48.48,0,0,0-.24.11.56.56,0,0,1-.2.11,4,4,0,0,1-.46.18,1.4,1.4,0,0,1-.42.06,2.25,2.25,0,0,1-.84-.17,1.76,1.76,0,0,1-.71-.52A1.29,1.29,0,0,1,49.48,7a2,2,0,0,1,.08-.44,2.94,2.94,0,0,1,.14-.44,1.18,1.18,0,0,1,.58-.42,6,6,0,0,1,1-.24A4.88,4.88,0,0,0,52,5.3q.21-.08.21-.24A.75.75,0,0,0,52,4.53a.76.76,0,0,0-.58-.22,1,1,0,0,0-.29,0l-.36.14a1.29,1.29,0,0,1-.47.15q-.28,0-.28-.56a.49.49,0,0,1,.31-.5,2.2,2.2,0,0,1,.8-.12l.25,0,.23,0a2.66,2.66,0,0,0,.47.05h.24q.27,0,.27.2a.39.39,0,0,1,.19,0,.16.16,0,0,1,.06.15q.3,0,.43.49a3.64,3.64,0,0,1,.13.91,5.58,5.58,0,0,1-.08.82,5.49,5.49,0,0,0-.09.79,1.19,1.19,0,0,0,0,.19,1.18,1.18,0,0,1,0,.19v.1l.06.12A.1.1,0,0,0,53.39,7.63ZM49.82,7s-.05,0-.05.06v0l.08,0s.05,0,.05-.05V7A.15.15,0,0,0,49.82,7Zm.24.51a.55.55,0,0,0,.05-.19.53.53,0,0,0-.21,0,.22.22,0,0,0-.13.13.18.18,0,0,0,.07.09l.09.06S50,7.64,50.07,7.55Zm-.21-.92a.58.58,0,0,0,0,.13.3.3,0,0,0,.15,0l.13-.1-.1,0-.1,0S49.87,6.57,49.86,6.63Zm.41.14h-.05l-.22,0a.25.25,0,0,0-.15.08h.39A.14.14,0,0,0,50.27,6.76Zm-.36.51c.15,0,.22-.05.22-.16A.25.25,0,0,0,49.91,7.27Zm.48-.81a.24.24,0,0,0,.06-.11h-.29a.37.37,0,0,1,.16-.12l.26-.1L51,6a.51.51,0,0,0,.2-.17h0a1.45,1.45,0,0,0-.33,0,.17.17,0,0,0-.14.16l-.23.08a.81.81,0,0,0-.23.12A.4.4,0,0,0,50,6.4a.38.38,0,0,0,.13.08l.14.05S50.35,6.51,50.39,6.46Zm-.12,1.11a.15.15,0,0,0-.16.15Q50.27,7.7,50.27,7.57ZM51.63,4a.85.85,0,0,0,.31.05q0-.24-.12-.24l-.09,0-.1,0h-.28a4.21,4.21,0,0,0-.54,0,3,3,0,0,0-.51.13.48.48,0,0,0,0,.13.31.31,0,0,0,0,.11,1.5,1.5,0,0,0,.38-.08.64.64,0,0,0,.33-.19L51.2,4l.06,0a.16.16,0,0,1,.1,0A1,1,0,0,1,51.63,4Zm-.06,3.69a2.09,2.09,0,0,0,.54-.23.4.4,0,0,0,.23-.32v0a2.31,2.31,0,0,0-.1-.77A.45.45,0,0,0,51.76,6a.44.44,0,0,0-.16,0l-.15,0a.59.59,0,0,0-.3.13l-.25.17a.36.36,0,0,0-.11.13l-.09.18a1.19,1.19,0,0,1-.12.23.18.18,0,0,1-.15.08.76.76,0,0,0,.17.52.63.63,0,0,0,.5.19A1.92,1.92,0,0,0,51.57,7.65Zm-.92.49a.42.42,0,0,0,.17.06.24.24,0,0,0-.08-.14C50.68,8,50.64,8,50.61,8a.13.13,0,0,0-.12.08Zm.61.12a.37.37,0,0,0,0-.13h-.05a.23.23,0,0,0-.2.13l.16.08S51.24,8.3,51.25,8.26Zm.33-2.6-.3.15.39-.05ZM52,8l0-.16a.67.67,0,0,0-.35.11.33.33,0,0,0-.18.28l.46-.12S52,8.09,52,8Zm0-2.34a.16.16,0,0,0-.1.08l.15,0,.16,0,.1,0,.11,0-.15-.07-.14,0A.35.35,0,0,0,52,5.67Zm.39-1.52c.11,0,.16-.07.16-.12s-.1-.11-.29-.11a.23.23,0,0,0-.17.08.26.26,0,0,0-.07.19h.11A1,1,0,0,0,52.38,4.15ZM52.25,8l.08-.1a.33.33,0,0,0,.08-.22v-.1l-.08.06-.06.07a.1.1,0,0,0,0,.05h-.15V8Zm.47-2.71-.28-.06-.1.12Zm-.31-.83a.11.11,0,0,0,0,.07.13.13,0,0,0,.1,0,.37.37,0,0,0,.21,0,.17.17,0,0,0,.06-.15.34.34,0,0,0-.06-.17.16.16,0,0,0-.13-.1Zm.08,1.18.19,0,.18.06a.36.36,0,0,1-.16.15.23.23,0,0,0-.08.07.36.36,0,0,0,0,.17,1,1,0,0,0,.05.31,1.49,1.49,0,0,1,0,.31,1.23,1.23,0,0,1,0,.25q.23-.05.34-.47a3.54,3.54,0,0,0,.11-.88,1.53,1.53,0,0,0,0-.38.85.85,0,0,0-.31.1l-.35.18A.13.13,0,0,0,52.49,5.65Zm.29-1a.41.41,0,0,0-.19.1.22.22,0,0,0-.07.16q.2,0,.4-.31Zm.24.24s0-.05-.06-.05a.4.4,0,0,0-.19.08.66.66,0,0,0-.18.15l.39.06a.18.18,0,0,1,0-.07.19.19,0,0,0,0-.07A.17.17,0,0,0,53,4.93ZM52.64,7.5l.06,0,.13-.09q.08-.07.08-.1s0,0,0,0a.34.34,0,0,0-.15,0,.31.31,0,0,0-.12.1Zm.14-.45a.23.23,0,0,0-.08.17A.2.2,0,0,0,52.95,7,.23.23,0,0,0,52.78,7.06Zm.07.73,0,0c.12,0,.18-.09.18-.28a.35.35,0,0,0-.16.05.15.15,0,0,0-.1.13A.1.1,0,0,0,52.86,7.78Zm.25.15h-.16a.15.15,0,0,0,.07.14A.16.16,0,0,0,53.11,7.93Zm.31.1c0-.06-.07-.08-.1-.08a.1.1,0,0,0-.08.05.21.21,0,0,0,0,.11C53.32,8.1,53.4,8.08,53.42,8Zm.31.32a.67.67,0,0,0,0-.16.08.08,0,0,0-.09-.06.52.52,0,0,0-.18,0,.22.22,0,0,0-.12.08Q53.32,8.35,53.72,8.35Z"/>
                <path class="cls-2" d="M62.69,7.48a.29.29,0,0,1,.05.2,2.47,2.47,0,0,1-.06.56q-.06.25-.14.25h-.19l-1,.15a6.19,6.19,0,0,1-.81.05h-.25a.3.3,0,0,1-.16.1.79.79,0,0,1-.23,0,2.53,2.53,0,0,1-1.38-.54,3.59,3.59,0,0,1-1-1.21,3.14,3.14,0,0,1-.38-1.47,4.46,4.46,0,0,1,.47-2,3.83,3.83,0,0,1,1.31-1.5,3.4,3.4,0,0,1,1.93-.56,8.11,8.11,0,0,1,.91,0,1.38,1.38,0,0,1,.66.26.79.79,0,0,1,.3.69.42.42,0,0,1,0,.17c0,.06-.07.1-.12.1a1,1,0,0,1-.28,0L62,2.62l-.45-.14a1.36,1.36,0,0,0-.33,0,3,3,0,0,0-.71.08,6.31,6.31,0,0,0-.77.24,1.75,1.75,0,0,0-1.09,1.07,5.23,5.23,0,0,0-.29,1.82v.27q.11,0,.15.48a1,1,0,0,0,0,.23,1.63,1.63,0,0,0,1,.94,5.39,5.39,0,0,0,1.7.24,1.25,1.25,0,0,0,.38-.06l.48-.19a1.16,1.16,0,0,1,.41-.15A.18.18,0,0,1,62.69,7.48ZM57.61,5.73a.36.36,0,0,0,.2-.11A1.76,1.76,0,0,0,58,5.4h-.55v.06Q57.48,5.73,57.61,5.73Zm.08-.94c-.09.05-.13.17-.13.35v.12A3.78,3.78,0,0,0,58,5a.36.36,0,0,0,.16-.27A.87.87,0,0,0,57.69,4.79Zm-.1,1.49c0,.06,0,.1,0,.1h.13l.34-.33V6q-.53,0-.53.14A.64.64,0,0,0,57.6,6.29Zm.46-.67-.06,0a.37.37,0,0,0-.22.11.36.36,0,0,0-.14.23,1.09,1.09,0,0,0,.35,0q.12,0,.12-.22S58.09,5.63,58.06,5.62Zm-.37-1.21.41-.26V4.09h-.34s-.07.08-.07.23Zm.22,0a1.27,1.27,0,0,0-.22.23,1.22,1.22,0,0,0,.36,0c.07,0,.11-.1.11-.23l0,0,0,0A.38.38,0,0,0,57.91,4.38Zm.2.72a.32.32,0,0,0,0-.11,1.08,1.08,0,0,0-.41.27h.18Q58.11,5.27,58.11,5.1Zm4.24,2.78A4.91,4.91,0,0,1,61,8.16l-.61-.07q-.21,0-1.05-.3l-.51-.15-.33-.08.13-.12s0-.07-.07-.07h-.13a.71.71,0,0,0,0-.27q0-.08-.22-.08a.31.31,0,0,0,.14-.19c-.12,0-.18-.08-.18-.23H58l.16-.08c.06,0,.1-.06.1-.08a.51.51,0,0,0,0-.12l0-.13a.6.6,0,0,0-.25.14q-.14.12-.14.22l.07.23a1.75,1.75,0,0,0,.08.21.36.36,0,0,0,.19-.08.14.14,0,0,0,0,.06A.17.17,0,0,0,58,7a.74.74,0,0,0,.33.66A2.63,2.63,0,0,0,59,8l.44.14h0l.1,0,.09,0q0,.13.42.19a5,5,0,0,0,.7.06,6.47,6.47,0,0,0,.91-.07,1.82,1.82,0,0,0,.66-.19ZM58.08,3.49q-.13.08-.13.18v0l.13-.06.17-.11a.16.16,0,0,0,.07-.12A.46.46,0,0,0,58.08,3.49Zm.22.35a.24.24,0,0,0,.07-.18v0a.39.39,0,0,0-.18.1L58,3.88l0,0h0A.24.24,0,0,0,58.3,3.84Zm-.14-.46a1.41,1.41,0,0,1,.36-.17l.19-.1a.27.27,0,0,0,.08-.16,1.87,1.87,0,0,0,0-.37l-.66.65Zm.92-1A.3.3,0,0,0,59,2.6a.28.28,0,0,0,.2-.1.3.3,0,0,0,.1-.21A.29.29,0,0,0,59.08,2.38Zm.38-.06-.18.27c.13-.13.19-.21.19-.23ZM59.86,2q-.19.11-.19.14l.06.14a4.89,4.89,0,0,0,.52-.39h-.12A.67.67,0,0,0,59.86,2Zm.44.08q-.15,0-.43.33a.64.64,0,0,0,.46-.33Zm.08-.26c0,.06,0,.12.15.2l.19-.2Zm.4.12a.13.13,0,0,0-.11.05l-.09.15h.07q.12,0,.2-.2Zm.2,0a.14.14,0,0,0,.13-.07H61Zm.27.11a.33.33,0,0,0,.05-.18L61,2.11h.06A.16.16,0,0,0,61.25,2Zm.32-.19L61.43,2a.35.35,0,0,0,.17,0,.13.13,0,0,0,.08-.12Zm.23.06a.22.22,0,0,0-.18.12.4.4,0,0,0-.08.21.23.23,0,0,0,.19-.1.5.5,0,0,0,.1-.22Zm.12,0a.33.33,0,0,0,0,.13H62a.42.42,0,0,0-.06.22.31.31,0,0,0,.19-.06.2.2,0,0,0,0-.31A.25.25,0,0,0,62,1.84S61.95,1.87,61.92,1.92Zm.4.29a.25.25,0,0,0,0,.13c0,.07,0,.11.14.11V2.11A.32.32,0,0,0,62.33,2.22Z"/>
              </g>
              <g class="cls-1">
                <path class="cls-2" d="M67.54,7.77a0,0,0,0,0,0,0,2.43,2.43,0,0,0,.06.28,1.63,1.63,0,0,1,.06.38c0,.08-.06.13-.19.15a2.88,2.88,0,0,1-.41,0l-.23,0-.09-.05s-.06-.05-.06-.07V6.44q0-.49,0-.89a2,2,0,0,0-.16-.68h0a1.36,1.36,0,0,1-.35-.18,1.35,1.35,0,0,1-.31-.22l-.35.07a2.4,2.4,0,0,0-.66.21.61.61,0,0,0-.37.44q0,.12,0,.3a2.64,2.64,0,0,0,0,.3c0,.17,0,.3,0,.4q-.06.85-.06,1.29c0,.18,0,.31,0,.39l-.06.06.11.16a.45.45,0,0,1,.09.25.29.29,0,0,1,0,.13.11.11,0,0,1-.11.06h-.78a.13.13,0,0,0-.1-.07.1.1,0,0,1-.09-.06V7.53q0-.71.11-2.14l.05-.85q0-.68,0-1.26,0-.23,0-.55t0-.48q0-.7,0-1.05h.79l.14.06v.55a9.57,9.57,0,0,0,.06,1.8l.06.14q.35-.12.81-.22A3.46,3.46,0,0,1,66,3.42a1.41,1.41,0,0,1,.88.3,2.13,2.13,0,0,1,.63.77,2.09,2.09,0,0,1,.23.92,4.69,4.69,0,0,1,0,.59l-.05.43a7.67,7.67,0,0,0-.11,1.06,2.18,2.18,0,0,0,0,.25ZM64,8.12a.33.33,0,0,0,.05-.19.91.91,0,0,0,0-.13A.22.22,0,0,0,64,7.68l-.1,0-.11,0L64,7.49c0-.14-.06-.21-.11-.21h0L64,7.15a.44.44,0,0,0-.4.21l0,0,0,0,.07,0,.06,0-.13.19.06.06a.1.1,0,0,0-.06,0,.22.22,0,0,0,0,.08l0,.13a.46.46,0,0,1,0,.13l0,0a.08.08,0,0,0,0,.07s0,0,.07.05l.13,0A.18.18,0,0,0,64,8.12Zm0-2.39a3.61,3.61,0,0,1,.08-.87l-.06,0-.06,0a.73.73,0,0,0-.23.14.36.36,0,0,0,0,.22s0,0,0,0l.13.07-.13.12v.85l.13.07a.3.3,0,0,0-.15.09.22.22,0,0,0-.06.15.57.57,0,0,1,.2,0,.31.31,0,0,1,.15.1.45.45,0,0,0,.07-.27h-.15a.44.44,0,0,1,.14-.2C64,6.15,64,5.94,64,5.73ZM63.87,7l-.1,0,.06-.13a.31.31,0,0,0-.14,0s-.06,0-.06.07a.07.07,0,0,0,0,.08l.12,0h.13A.22.22,0,0,0,64,7a.06.06,0,0,0,0,0l0,0ZM63.81,1.5c-.06,0-.1.05-.1.07a2.38,2.38,0,0,0,.11.54,2.48,2.48,0,0,1,.08.44.17.17,0,0,1,0,.07l0,.06V3.75l.06.06s-.05,0-.07.11a.92.92,0,0,0,0,.22H64c-.11.08-.16.15-.16.21A.48.48,0,0,0,64,4.29l.16-.09a.92.92,0,0,0,0-.23c0-.1-.06-.15-.08-.16l0-.08a.93.93,0,0,0,0-.12,2.58,2.58,0,0,0,0-.39A2,2,0,0,1,64,2.77h0A.51.51,0,0,0,64,2.59a1.9,1.9,0,0,0,0-.23c0-.12,0-.19,0-.21s0,0,0,0A.49.49,0,0,1,64,2a.69.69,0,0,0,0-.24.82.82,0,0,0,0-.2s0-.05-.06-.05A.43.43,0,0,0,63.81,1.5Zm1,2.85q.89-.32,1-.48l-.06-.06-.78.2h-.14a.78.78,0,0,0-.16.16.88.88,0,0,1-.13.14.2.2,0,0,1-.13,0,.08.08,0,0,1-.07,0l0,0a1.42,1.42,0,0,0-.34.15.27.27,0,0,0-.12.24.11.11,0,0,0,.13.13,1.68,1.68,0,0,0,.37-.1.28.28,0,0,0,.13-.12.18.18,0,0,1,.09-.1Zm.73-.15s0-.06,0-.12l-.27.14h.1A.24.24,0,0,0,65.51,4.2Zm1-.32a.49.49,0,0,0-.27-.06H66l-.33.4.06.05A3.23,3.23,0,0,0,66.48,3.87Zm-.25.38.18-.18-.15.05a1.31,1.31,0,0,0-.3.14l.07,0,.07,0S66.16,4.32,66.23,4.26Zm.25.1a.53.53,0,0,0,.38-.21L66.72,4l-.32.34Zm.41.54.1,0L66.91,5l.15.05-.15.14a.73.73,0,0,0,.29-.09.27.27,0,0,0,.19-.24.15.15,0,0,0-.15-.15h-.05l.06-.12a.35.35,0,0,0-.05-.19.16.16,0,0,0-.14-.08.36.36,0,0,0-.22.08.69.69,0,0,0-.18.19l.13.05a.65.65,0,0,1,0,.12l0,.08a0,0,0,0,0,0,0l0,0Zm.43.64a.52.52,0,0,0,.18-.43.68.68,0,0,0-.45.16.51.51,0,0,0-.19.41A.7.7,0,0,0,67.32,5.53Zm-.09,1.3a.65.65,0,0,1,.09-.25l.07-.16a.84.84,0,0,0,.06-.33.18.18,0,0,0,0-.07.05.05,0,0,0,0,0L67,6.23v0c0,.07,0,.11.07.11l-.14.14a.23.23,0,0,0-.06.12L67,6.56a0,0,0,0,0,0,0,.1.1,0,0,0,0,.06l.06,0,0,0a.11.11,0,0,0,0,.08l0,0,0,0L67,7v1.4h.08a.41.41,0,0,0,.18,0,.13.13,0,0,0,.06-.13c0-.11,0-.21,0-.29s0-.15,0-.21a4.65,4.65,0,0,1,0-.55h-.05a.46.46,0,0,0,.16-.32Zm0-.88a.54.54,0,0,0,.19-.38.63.63,0,0,0-.3.11Q67,5.79,67,5.9h.15A.2.2,0,0,1,67,6l-.1.05a.12.12,0,0,0,0,.1A.53.53,0,0,0,67.27,6Z"/>
                <path class="cls-2" d="M73.63,5.71q.11,2,.11,2.62a.33.33,0,0,1-.26.24,2.16,2.16,0,0,1-.53.05.43.43,0,0,1-.3-.07.41.41,0,0,1-.07-.29V8l-.21.23a1.28,1.28,0,0,1-.49.33,2.33,2.33,0,0,1-.87.13A1.33,1.33,0,0,1,69.83,8a3.31,3.31,0,0,1-.48-1.57l-.07-.79V5.5q.13-.64.13-.71a3.34,3.34,0,0,0,0-.38l0-.34V4a1,1,0,0,1,.06-.32.21.21,0,0,1,.2-.16l.66.07s.09.07.11.22a2.49,2.49,0,0,1,0,.42q0,.23,0,.47l.06.06V5.93a4.4,4.4,0,0,0,.08,1,.85.85,0,0,0,.34.53,1.38,1.38,0,0,0,.78.18,2.31,2.31,0,0,0,.65-.07.68.68,0,0,0,.39-.33V6.83q0-.38,0-1.15T72.6,4.52c0-.13,0-.27,0-.42s0-.25,0-.3l.12-.06h.73A14,14,0,0,1,73.63,5.71Zm-4,.12c0,.26,0,.39.08.39L70,5.9V5.83Zm.2-.75a.19.19,0,0,0-.13.12.82.82,0,0,0,0,.31,3.19,3.19,0,0,0,.32-.25q.15-.13.15-.2ZM69.6,6.55h.6s0,0,0-.07a.35.35,0,0,0,0-.12.8.8,0,0,0,0-.23l0-.1a.64.64,0,0,1,0-.13A5.05,5.05,0,0,0,69.6,6.55Zm.06-1.75c0,.07,0,.11.06.12a.45.45,0,0,1,.11-.18l.09-.09a1.31,1.31,0,0,0,.15-.18.3.3,0,0,0,0-.18c0-.14,0-.21-.05-.22s-.05,0-.05,0a.59.59,0,0,1,0-.16q0-.11-.4-.11v.4l.05.24a.54.54,0,0,1,0,.13.63.63,0,0,0,0,.18Zm.52.41a1.21,1.21,0,0,0-.34.22l-.18.14v.06l.37.05.08,0,.08,0V5.23S70.19,5.21,70.19,5.21Zm-.49,1.92c0,.06.07.08.15.08a.78.78,0,0,0,.32-.07.22.22,0,0,0,.15-.21.17.17,0,0,0,0-.1s0,0-.11,0a.47.47,0,0,0-.13.13,1.14,1.14,0,0,0-.14.2l-.13-.06a1.1,1.1,0,0,0,.25-.39h-.19a.3.3,0,0,0-.16,0s0,.07,0,.14A1,1,0,0,0,69.69,7.14Zm.76,1,.39-.19V7.87h-.13V7.73h-.6V7.66h.14q.25,0,.25-.13a.17.17,0,0,0,0-.07l0-.06-.19.14a.52.52,0,0,1,0-.16.55.55,0,0,0,0-.17l-.19.06-.25.08a.14.14,0,0,0-.09.13v.06l.32.46A1.27,1.27,0,0,1,70.45,8.13ZM70.1,4.95s.07-.08.07-.19a.72.72,0,0,0,0-.17A.9.9,0,0,0,69.8,5,.85.85,0,0,0,70.1,4.95Zm2.4,2.92h-.32a.43.43,0,0,0-.15.06H71a.64.64,0,0,0-.21.1l-.25.16a1,1,0,0,0,.62.13l.16,0a.35.35,0,0,0,.14-.11v.15A1.18,1.18,0,0,0,72,8.28.65.65,0,0,0,72.23,8l.07.06Zm.91-.47a.67.67,0,0,0,0-.13s0-.07,0-.07a.22.22,0,0,0-.16.07l-.09.07a.16.16,0,0,0,0,.08.1.1,0,0,0,.05,0,.9.9,0,0,1-.23.24.43.43,0,0,1-.19.1.1.1,0,0,0,0,.09l0,0,.39-.27V7.5l.08,0,.06,0S73.41,7.49,73.41,7.4ZM73,5.34s-.07,0-.07.06a.27.27,0,0,0,0,.12s0,.06.07.06.17-.08.24-.23A.9.9,0,0,0,73.34,5a.15.15,0,0,0,0-.07s0,0,0,0L73,5.18v0a.08.08,0,0,0,0,.07l.1,0A.27.27,0,0,0,73,5.34Zm.12-.77s0,.05-.09.12a.28.28,0,0,0-.09.19.16.16,0,0,0,0,.06.05.05,0,0,0,0,0,.63.63,0,0,0,.28-.26,1.58,1.58,0,0,0,0-.48.42.42,0,0,0,0-.18A.14.14,0,0,0,73.11,4H73l-.06.49C73,4.52,73.07,4.55,73.07,4.58Zm.28,3.68V8.2l-.45.07.1.1ZM73,6a.12.12,0,0,0,.11.07.17.17,0,0,0-.18.14,1.58,1.58,0,0,0,0,.35.35.35,0,0,0,.27-.13.42.42,0,0,0,.11-.29h-.12a.28.28,0,0,0,.1-.22q0-.15,0-.37a.27.27,0,0,0-.22.11.38.38,0,0,0-.08.24A.27.27,0,0,0,73,6Zm.37,2a.48.48,0,0,0,0-.14.07.07,0,0,0-.07,0,.36.36,0,0,0-.24.12.38.38,0,0,0-.13.22h.18Q73.41,8.07,73.41,7.91ZM73,7v.07c0,.08,0,.12.07.13a1.28,1.28,0,0,0,.2-.22s0,0-.07-.07a.3.3,0,0,0-.13,0S73,6.92,73,7Zm.31-.29s.05-.12.05-.25a.29.29,0,0,0-.2.09.28.28,0,0,0-.1.21A.41.41,0,0,0,73.31,6.72Z"/>
              </g>
              <g class="cls-1">
                <path class="cls-2" d="M77.4,8a2.6,2.6,0,0,1-.17.48,1,1,0,0,0-.1.22L77,8.77V8.69h-.44a.38.38,0,0,1-.23-.06.28.28,0,0,1-.08-.24.47.47,0,0,1-.41-.2,2.86,2.86,0,0,1-.29-.61q-.07-1-.1-2t0-2.36V2.6A13.46,13.46,0,0,1,75.5,1,1.28,1.28,0,0,1,76,.92l.19,0a.87.87,0,0,0,.27-.09h0c.06,0,.1,0,.1.12q0,.85-.06,2.57,0,.84-.06,1.71,0,.23,0,.64c0,.06,0,.13,0,.22s0,.2,0,.33a2.92,2.92,0,0,0,.17,1.1.66.66,0,0,0,.68.41C77.33,7.93,77.4,8,77.4,8ZM76,4.59a.24.24,0,0,1-.08.07l-.09.06a.13.13,0,0,0,0,.1.38.38,0,0,0,0,.17.45.45,0,0,1,0,.2h.24V4.84H76a.78.78,0,0,0,.13-.48.64.64,0,0,0,0-.17A.62.62,0,0,1,76,4l.06-.27a1.68,1.68,0,0,0,.07-.49l0-.07,0-.06c0,.1,0,.15-.13.15l-.07,0a.16.16,0,0,0,.1-.1A.51.51,0,0,0,76,3h.16V2.62L76,2.8a.45.45,0,0,1-.13.1h0a1.32,1.32,0,0,0,.27-.39l-.26,0c-.09,0-.14.06-.14.12a.65.65,0,0,0,.06.34l.06.11a.88.88,0,0,1-.06.16.6.6,0,0,0-.06.22l.06,0,.07,0,0,0,0,0-.07.11a.51.51,0,0,0-.05.12.07.07,0,0,0,.06.08l.07,0a.2.2,0,0,0-.14.17,1.66,1.66,0,0,0,0,.31.2.2,0,0,0,.14,0l.07,0h0a1,1,0,0,1-.1.19l-.1.15S75.85,4.59,76,4.59ZM75.8,1.39a.86.86,0,0,0-.08.44h.15a0,0,0,0,0,0,0v0s0,0,0,0l-.08,0v.39l.13-.18A.54.54,0,0,1,76,2l0,.13a.61.61,0,0,1-.1.19H76c.11,0,.16,0,.16-.06v-1A.4.4,0,0,0,75.8,1.39Zm.35,6.25a1.19,1.19,0,0,0,.07-.31.24.24,0,0,0,0-.14.14.14,0,0,0-.11,0V6.1L76,6q.08,0,.08-.41a.27.27,0,0,0-.2.11.35.35,0,0,0-.1.23l0,0,0,0-.06.06v.46s.07.06.07.14a1.36,1.36,0,0,1,0,.23.62.62,0,0,0,0,.23.31.31,0,0,0,.11.22.29.29,0,0,1,.11.18.25.25,0,0,1-.06.11.56.56,0,0,0-.08.13l.06,0,.07,0S76.1,7.8,76.15,7.65Zm-.27-2.26a.43.43,0,0,0-.06.26l.11-.07a.34.34,0,0,0,.13-.12.29.29,0,0,0,0-.15A.25.25,0,0,0,75.88,5.38Zm1,2.94,0,0a.1.1,0,0,0,0-.07s-.06,0-.17-.11L76.54,8l-.11,0a.35.35,0,0,1-.16,0L76.36,8l.06-.06a.33.33,0,0,0,0-.15.23.23,0,0,0-.1-.11s-.06,0-.1.12a1.16,1.16,0,0,0-.09.19.39.39,0,0,0,.27.35,1.14,1.14,0,0,0,.49.13s.08,0,.11-.08Z"/>
                <path class="cls-2" d="M82.07,7.63l.22.07a1.28,1.28,0,0,1,.33.13.23.23,0,0,1,.11.21.63.63,0,0,1-.27.61L82,8.52a1.57,1.57,0,0,1-.48-.28l-.2-.13a.48.48,0,0,0-.24.11.56.56,0,0,1-.2.11,4,4,0,0,1-.46.18,1.4,1.4,0,0,1-.42.06,2.25,2.25,0,0,1-.84-.17,1.76,1.76,0,0,1-.71-.52A1.29,1.29,0,0,1,78.17,7a2,2,0,0,1,.08-.44,2.94,2.94,0,0,1,.14-.44A1.18,1.18,0,0,1,79,5.72a6,6,0,0,1,1-.24,4.88,4.88,0,0,0,.7-.18q.21-.08.21-.24a.75.75,0,0,0-.21-.54.76.76,0,0,0-.58-.22,1,1,0,0,0-.29,0l-.36.14a1.29,1.29,0,0,1-.47.15q-.28,0-.28-.56a.49.49,0,0,1,.31-.5,2.2,2.2,0,0,1,.8-.12l.25,0,.23,0a2.66,2.66,0,0,0,.47.05H81q.27,0,.27.2a.39.39,0,0,1,.19,0,.16.16,0,0,1,.06.15q.3,0,.43.49a3.64,3.64,0,0,1,.13.91,5.58,5.58,0,0,1-.08.82,5.49,5.49,0,0,0-.09.79,1.19,1.19,0,0,0,0,.19,1.18,1.18,0,0,1,0,.19v.1l.06.12A.1.1,0,0,0,82.07,7.63ZM78.51,7s-.05,0-.05.06v0l.08,0s.05,0,.05-.05V7A.15.15,0,0,0,78.51,7Zm.24.51a.55.55,0,0,0,.05-.19.53.53,0,0,0-.21,0,.22.22,0,0,0-.13.13.18.18,0,0,0,.07.09l.09.06S78.72,7.64,78.75,7.55Zm-.21-.92a.58.58,0,0,0,0,.13.3.3,0,0,0,.15,0l.13-.1-.1,0-.1,0S78.56,6.57,78.54,6.63Zm.41.14H78.9l-.22,0a.25.25,0,0,0-.15.08h.39A.14.14,0,0,0,79,6.76Zm-.36.51c.15,0,.22-.05.22-.16A.25.25,0,0,0,78.59,7.27Zm.48-.81a.24.24,0,0,0,.06-.11h-.29A.37.37,0,0,1,79,6.23l.26-.1L79.64,6a.51.51,0,0,0,.2-.17h0a1.45,1.45,0,0,0-.33,0,.17.17,0,0,0-.14.16l-.23.08a.81.81,0,0,0-.23.12.4.4,0,0,0-.13.19.38.38,0,0,0,.13.08l.14.05S79,6.51,79.07,6.46ZM79,7.57a.15.15,0,0,0-.16.15Q79,7.7,79,7.57ZM80.32,4a.85.85,0,0,0,.31.05q0-.24-.12-.24l-.09,0-.1,0H80a4.21,4.21,0,0,0-.54,0,3,3,0,0,0-.51.13.48.48,0,0,0,0,.13.31.31,0,0,0,0,.11,1.5,1.5,0,0,0,.38-.08.64.64,0,0,0,.33-.19l.11.08.06,0a.16.16,0,0,1,.1,0A1,1,0,0,1,80.32,4Zm-.06,3.69a2.09,2.09,0,0,0,.54-.23A.4.4,0,0,0,81,7.09v0a2.31,2.31,0,0,0-.1-.77A.45.45,0,0,0,80.44,6a.44.44,0,0,0-.16,0l-.15,0a.59.59,0,0,0-.3.13l-.25.17a.36.36,0,0,0-.11.13l-.09.18a1.19,1.19,0,0,1-.12.23A.18.18,0,0,1,79.1,7a.76.76,0,0,0,.17.52.63.63,0,0,0,.5.19A1.92,1.92,0,0,0,80.25,7.65Zm-.92.49a.42.42,0,0,0,.17.06.24.24,0,0,0-.08-.14C79.37,8,79.32,8,79.3,8a.13.13,0,0,0-.12.08Zm.61.12a.37.37,0,0,0,0-.13h-.05a.23.23,0,0,0-.2.13l.16.08S79.92,8.3,79.94,8.26Zm.33-2.6-.3.15.39-.05ZM80.67,8l0-.16a.67.67,0,0,0-.35.11.33.33,0,0,0-.18.28l.46-.12S80.65,8.09,80.67,8Zm0-2.34a.16.16,0,0,0-.1.08l.15,0,.16,0,.1,0,.11,0-.15-.07-.14,0A.35.35,0,0,0,80.67,5.67Zm.39-1.52c.11,0,.16-.07.16-.12s-.1-.11-.29-.11a.23.23,0,0,0-.17.08.26.26,0,0,0-.07.19h.11A1,1,0,0,0,81.06,4.15ZM80.93,8l.08-.1a.33.33,0,0,0,.08-.22v-.1L81,7.66,81,7.73a.1.1,0,0,0,0,.05h-.15V8ZM81.4,5.3l-.28-.06-.1.12Zm-.31-.83a.11.11,0,0,0,0,.07.13.13,0,0,0,.1,0,.37.37,0,0,0,.21,0,.17.17,0,0,0,.06-.15.34.34,0,0,0-.06-.17.16.16,0,0,0-.13-.1Zm.08,1.18.19,0,.18.06a.36.36,0,0,1-.16.15A.23.23,0,0,0,81.3,6a.36.36,0,0,0,0,.17,1,1,0,0,0,.05.31,1.49,1.49,0,0,1,0,.31,1.23,1.23,0,0,1,0,.25q.23-.05.34-.47a3.54,3.54,0,0,0,.11-.88,1.53,1.53,0,0,0,0-.38.85.85,0,0,0-.31.1l-.35.18A.13.13,0,0,0,81.17,5.65Zm.29-1a.41.41,0,0,0-.19.1.22.22,0,0,0-.07.16q.2,0,.4-.31Zm.24.24s0-.05-.06-.05a.4.4,0,0,0-.19.08.66.66,0,0,0-.18.15l.39.06a.18.18,0,0,1,0-.07.19.19,0,0,0,0-.07A.17.17,0,0,0,81.7,4.93ZM81.33,7.5l.06,0,.13-.09q.08-.07.08-.1s0,0,0,0a.34.34,0,0,0-.15,0,.31.31,0,0,0-.12.1Zm.14-.45a.23.23,0,0,0-.08.17A.2.2,0,0,0,81.63,7,.23.23,0,0,0,81.47,7.06Zm.07.73,0,0c.12,0,.18-.09.18-.28a.35.35,0,0,0-.16.05.15.15,0,0,0-.1.13A.1.1,0,0,0,81.54,7.78Zm.25.15h-.16a.15.15,0,0,0,.07.14A.16.16,0,0,0,81.79,7.93Zm.31.1c0-.06-.07-.08-.1-.08a.1.1,0,0,0-.08.05.21.21,0,0,0,0,.11C82,8.1,82.08,8.08,82.1,8Zm.31.32a.67.67,0,0,0,0-.16.08.08,0,0,0-.09-.06.52.52,0,0,0-.18,0,.22.22,0,0,0-.12.08Q82,8.35,82.41,8.35Z"/>
              </g>
            </g>
          </g>
        </g>
        <g>
          <path class="cls-2" d="M.86,3.48l-.25,0H.5c-.1,0-.11-.1,0-.16l.59-.49a.81.81,0,0,0,.1-.12A.63.63,0,0,0,1,2.6l-.26,0a.18.18,0,0,1-.11-.08s0-.08,0-.1l.9-.8-.14,0H1.21a.11.11,0,0,1-.08-.05.1.1,0,0,1,0-.09l.34-.16.34-.12a.13.13,0,0,0,.07-.06h-.2s-.06,0-.08,0A.15.15,0,0,1,1.55,1a.11.11,0,0,1,0-.09c.25-.21.5-.42.76-.62A1,1,0,0,1,2.93,0c.21,0,.41,0,.62,0L4.78.11l1,.07c.43,0,.86.08,1.3.09s.62,0,.93,0A3.1,3.1,0,0,1,9.25.43a7.09,7.09,0,0,1,.66.34l.24.14a.51.51,0,0,1,.09.1c-.06,0-.14.07-.16,0a.3.3,0,0,0-.26,0l-.35.06c.14.08.26.13.37.2l.5.35a.13.13,0,0,1,0,.11s-.06.06-.09.07L9.88,2l.1.09.48.35a1.47,1.47,0,0,1,.14.09.47.47,0,0,1,.07.11.45.45,0,0,1-.12.07l-.4.07v0l.14.12.51.45a.64.64,0,0,1,.11.09.15.15,0,0,1,0,.11s-.06,0-.09,0a1.2,1.2,0,0,0-.55.1l.26.34.28.37c.08.1.15.2.22.3a.17.17,0,0,1,0,.12s-.06,0-.08,0l-.47-.1-.34-.05c-.08,0-.13,0-.14.12a2.85,2.85,0,0,0,0,.63c0,.3,0,.61,0,.92s0,.54,0,.8,0,.52,0,.78,0,.5,0,.75a.71.71,0,0,1-.26.6,1.05,1.05,0,0,1-.36.18c-.27.06-.55.09-.83.13-.1,0-.2,0-.3,0L6.6,9.71c-.24,0-.48.06-.72.1l-.72.14a2.27,2.27,0,0,1-.71,0L4,9.93l-.48-.08c-.13,0-.17-.09-.17-.23,0-.33,0-.65,0-1s0-.56,0-.85,0-.8,0-1.2a2,2,0,0,0,0-.36A.23.23,0,0,0,2.9,6a1.7,1.7,0,0,0-.37.1.3.3,0,0,0-.18.3c0,.21,0,.42,0,.64s0,.52,0,.77,0,.53,0,.8,0,.33,0,.5a2.31,2.31,0,0,0,0,.24c0,.06,0,.09-.08.1a1.55,1.55,0,0,1-.5,0,1.09,1.09,0,0,1-.48-.14l0,0a1.64,1.64,0,0,1-.16-.39,4.84,4.84,0,0,1,0-1.06c0-.33,0-.66,0-1s0-.45,0-.68.06-.7.08-1.06c0-.16,0-.32,0-.48s0-.09-.09-.08l-.33.09a1.72,1.72,0,0,0-.26.05,1.78,1.78,0,0,0-.31.17c-.06,0-.11.06-.16,0s0-.09,0-.14c.12-.2.23-.4.36-.59s.25-.36.38-.54Zm1,.82c.08,0,.13.14.23,0l0,.1.12,0,0-.19h0s-.1-.07-.1-.08.11,0,.18,0a.46.46,0,0,0-.47.15c-.13,0-.3.27-.2.42l.12-.3A1.06,1.06,0,0,1,1.84,4.3Zm.07,5.06H2.1c.06,0,.09,0,.09-.08s0-.24,0-.37a.5.5,0,0,0-.07-.13L2,9l.1.11h0S2,9.17,2,9.21a.13.13,0,0,1-.11.14.42.42,0,0,0,0-.09s-.08-.07-.09-.11S1.64,9,1.53,9l0,.27.15,0ZM8.2,4.89a2,2,0,0,1-.1-.22c0-.13,0-.13-.18-.12s-.18,0-.17-.17,0,0,0-.08l-.25.21v0A.61.61,0,0,1,8,4.75a.87.87,0,0,0,.15.12l.08,0c0,.07,0,0,.07,0l.45-.37c0-.1,0-.11.13-.15s.1,0,.13.09a.92.92,0,0,0,.08.13,1.23,1.23,0,0,0,.13.19,1.12,1.12,0,0,0,.16.12c.11.08.11.08.25,0-.07-.05-.17-.1-.14-.2l-.1-.07c-.09-.09-.18-.19-.27-.27a.33.33,0,0,0-.52,0l-.19.22c0,.06-.1.07-.15,0l0,0h0l.09.21C8.29,4.86,8.29,4.9,8.2,4.89ZM1.65,4.27,2,4.07a.4.4,0,0,1,.56.11l.09.14c0,.06.08.08.15,0a3.59,3.59,0,0,1,.38-.21.7.7,0,0,1,.45,0,.37.37,0,0,1,.27.22c.07.16.1.16.25.07l.36-.2a.49.49,0,0,1,.6.09l.23.23c.06.06.11.07.18,0l.35-.31a.31.31,0,0,1,.39-.07l.63.33c.05,0,.1.06.16,0l.42-.3.17-.09a.2.2,0,0,1,.23,0l.4.34a.07.07,0,0,0,.11,0c.07-.08.14-.17.23-.24s.16-.16.26-.11a4.89,4.89,0,0,1,.46.3l.09.07.08-.32c.05-.22.07-.23.29-.24l0,0-.34-.39a.16.16,0,0,1,0-.1s0,0,.08-.06l.32-.13-.06-.08L9.59,3l-.4-.45s-.05-.08,0-.1a.18.18,0,0,1,.1-.06l.19,0-.08-.09-.42-.42a.17.17,0,0,1,0-.12s.06,0,.09,0l.35-.07-.09-.08-.56-.37C8.6,1.09,8.6,1,8.72,1L8.85.88v0L8.5.73A1.36,1.36,0,0,0,8,.65a7,7,0,0,1-.78,0c-.68,0-1.36-.06-2-.1a1.46,1.46,0,0,1-.34,0,2.76,2.76,0,0,0-.52,0c-.21,0-.43,0-.64,0A6.14,6.14,0,0,0,3,.52.59.59,0,0,0,2.65.7l.17.18.27.25a.1.1,0,0,1,0,.09A.18.18,0,0,1,3,1.28H3a1.49,1.49,0,0,0-.75.18c.1.13.21.24.32.35s0,.08,0,.09A.25.25,0,0,1,2.47,2s-.06,0-.09,0a1.67,1.67,0,0,0-.72.35v0L2,2.68a.19.19,0,0,1,0,.12s-.06,0-.09,0H1.92l-.55.25-.1.06,0,0,.08,0,.39.2a.09.09,0,0,1,0,.08.11.11,0,0,1-.08.06.86.86,0,0,0-.5.22c-.05,0-.08.11-.12.16l0,0,.38-.11c.09,0,.14,0,.14.09S1.65,4.16,1.65,4.27ZM9.41,5.82h0c0-.18,0-.36,0-.53a.28.28,0,0,0-.06-.18C9.23,5,9.09,4.91,9,4.8a.22.22,0,0,0-.34,0,3.73,3.73,0,0,0-.3.3c-.06.07-.1.09-.17,0s-.26-.22-.38-.35a.36.36,0,0,0-.44,0L7,5a.2.2,0,0,1-.29,0l-.44-.32a.42.42,0,0,0-.38,0l-.25.19c-.07.06-.12.13-.19.19a.15.15,0,0,1-.12,0A.84.84,0,0,1,5.08,5l-.26-.26a.18.18,0,0,0-.23,0l-.32.19A1,1,0,0,0,4.11,5a.1.1,0,0,1-.16,0,2,2,0,0,0-.46-.42.26.26,0,0,0-.31,0,1.71,1.71,0,0,0-.52.4c-.06.08-.12.07-.17,0l-.24-.31c-.11-.12-.12-.13-.25,0A.49.49,0,0,0,1.7,5c0,.14,0,.28,0,.42,0,.29-.05.58-.06.87q0,.91,0,1.83c0,.2,0,.41.06.61s.07.1.15.09.11,0,.1-.12,0-.17,0-.26c0-.24,0-.47,0-.71,0-.42,0-.84,0-1.26,0-.19,0-.38,0-.57a.29.29,0,0,1,.23-.28,1.51,1.51,0,0,1,.49-.08l.67,0A.39.39,0,0,1,3.68,6c0,.15,0,.31,0,.46s0,.3,0,.45c0,.33,0,.66,0,1s0,.81.07,1.21a.12.12,0,0,0,.07.08l.46,0c.38,0,.76,0,1.14,0s.68-.07,1-.1l.63,0c.35,0,.7-.1,1-.13a6.14,6.14,0,0,0,1-.16.23.23,0,0,0,.14-.39s0-.06,0-.08,0,0,0-.06q0-.32,0-.65c0-.21,0-.43,0-.64C9.37,6.55,9.39,6.18,9.41,5.82ZM7.53,9.52l0,0s0-.09-.07-.11-.06,0-.1.07H7.24s0-.08,0-.09.1-.08.15-.08.17,0,.19.12,0,.08,0,.14.11,0,.13-.07a3,3,0,0,0,.18-.33c0-.08,0-.09.11,0l-.18.38.41,0,0-.17-.12.07a.07.07,0,0,1-.06,0,.06.06,0,0,1,0-.06l.14-.15a.1.1,0,0,1,.08,0s0,0,0,.07a.5.5,0,0,1,0,.08l.18,0h0L8.8,9a9.91,9.91,0,0,0-1.65.19l.05.12h0L7,9.21,7,9.56Zm-2.05-.2H4v.34H4l.05-.09a.58.58,0,0,1,.08-.12.13.13,0,0,1,.1,0s0,.06,0,.09,0,.2.13.25.1,0,.15,0l.08-.09h0l0,.13H5c.15,0,.3,0,.35-.19,0,0,0,0,0-.07ZM9.84,5.65c0-.09,0-.18,0-.26s0-.32,0-.49A.55.55,0,0,1,10,4.45l0-.05a1.27,1.27,0,0,0-.24,0c-.07,0-.13.09-.25,0a1.35,1.35,0,0,1,.17-.11l.19-.06c0-.08,0-.11.08-.14A2.1,2.1,0,0,0,10.26,4L10,3.9C10,4,10,4,10,4s-.1,0-.16,0h0c-.1,0-.2,0-.23.07a1,1,0,0,0-.07.54l.17,0s.06,0,.09.05l-.05.06-.06,0c.12.16.12.16,0,.29l.14.05c.08,0,.09.11,0,.16a1.67,1.67,0,0,0-.2.15.2.2,0,0,0,0,.13s0,0,.07,0ZM1,3.19l.24-.11.7-.37a2.24,2.24,0,0,0-.32-.26c-.11-.06-.14-.11-.05-.21l-.13-.18a.5.5,0,0,0-.13.41l.11,0c.08,0,.08.11,0,.16L1,3C.91,3.06.88,3.1,1,3.19ZM9.34,9.35a.11.11,0,0,1,0-.17l.27-.36s.05,0,.08,0,0,.08,0,.1A.48.48,0,0,1,9.62,9l-.26.33a.5.5,0,0,0,.32-.19,1.06,1.06,0,0,0,.13-.29.13.13,0,0,0,0-.12,2.27,2.27,0,0,0-.24-.16.48.48,0,0,0,0,.06.17.17,0,0,1-.14.2L9,8.95l-.08.47Zm.52-7.89v0s-.08,0-.09,0a.9.9,0,0,0-.13.25c0,.09-.06.13-.15.1a.58.58,0,0,0-.42,0c.17.18.28.4.56.36a.74.74,0,0,1,.2,0l.17,0a.52.52,0,0,0-.29-.16A.13.13,0,0,1,9.62,2s0-.09.07-.11a.69.69,0,0,0,.15-.09c-.1-.07,0-.15,0-.23l-.07,0ZM9.51,7.83c0,.17,0,.31,0,.45s0,0,.06.06.09,0,.1.12.08.13.17.17,0-.15,0-.21,0-.43,0-.64c0,0,0-.09,0-.09s-.14,0-.15.08S9.62,7.89,9.51,7.83ZM1.34,4.19l0,0a.24.24,0,0,1,0,.05.4.4,0,0,0,0,.31c0,.18,0,.35,0,.53s0,.07,0,.12l.13,0,.08,0-.06-.06-.05,0L1.37,5l0,0,.14-.06-.14,0,0-.12,0,0a.16.16,0,0,0,.06-.22.31.31,0,0,1,0-.11c0-.07,0-.15,0-.22S1.49,4,1.31,4s-.19.11-.13.27Zm8.23-2,0,0,0,0s.09.07.05.12a.25.25,0,0,1-.13.06l-.17,0,.28.32.19,0,0,.13.15,0c.06,0,.1,0,.09.08L10,3h0l.1-.14L10,2.82s-.08,0-.09-.08,0-.08,0-.12h0l-.13,0a.78.78,0,0,1,.06-.12l.17-.2H9.77l-.1,0Zm.28,5v-.9c-.06,0-.12,0-.1.1s0,.08,0,.11l-.19-.11,0,.34.15-.05V6.62l.11,0a.1.1,0,0,1,.05.07s0,0-.06.05l-.08,0c.08.12.07.15-.05.2s-.08,0-.09.06,0,.12,0,.15.08.13.17.08Zm-7.63.86a.51.51,0,0,0,0-.07c0-.29,0-.57,0-.86,0-.12,0-.26-.08-.36s0,0,0-.05l0-.07a.09.09,0,0,0,0,.06c0,.17,0,.35,0,.52s0,.28,0,.41,0,.14.1.15.06.06.09.09L2.1,8ZM4.82,4.21l-.2,0a2,2,0,0,0-.56.32A.06.06,0,0,0,4,4.6a1.61,1.61,0,0,0,.07.17s0,.07.1,0l.31-.2.2-.13Zm5.49-.31,0,0-.26-.25s-.09,0-.11,0,0-.08,0-.13l0,0,.12-.33,0,0a.74.74,0,0,0-.07.15c0,.06,0,.07-.1.09l-.3.11s0,0,0,.06.12.24.28.28A4.19,4.19,0,0,1,10.31,3.9ZM3.6,8.5l0-1-.21.15,0,.83Zm3-3.93h.11a.16.16,0,0,1,.08.05.6.6,0,0,1,.06.13.06.06,0,0,1,0,.05H6.79l-.06-.05c-.08-.11-.08-.11-.22-.06l.11.1a.3.3,0,0,0,.36,0l.22-.18c.05,0,.12-.06.16-.1l.26-.24.11-.09v0l-.16,0-.12.08-.4.32c-.06.05-.1.05-.15,0a.84.84,0,0,0-.14-.13C6.67,4.43,6.64,4.45,6.61,4.58ZM1.83,1.4h0a.25.25,0,0,0,0,.09c0,.12,0,.13-.07.18a2.93,2.93,0,0,0-.28.18L1.52,2a1.09,1.09,0,0,1,.05-.19.13.13,0,0,1,.09-.07s.06,0,.08.08a.69.69,0,0,1,0,.13l0,0a.78.78,0,0,1,.07-.11,1.49,1.49,0,0,1,.17-.18.16.16,0,0,1,.11,0s0,0,0,.05l-.08.07-.09.07,0,0,.26-.09s0-.06,0-.07L2.17,1.6c-.05-.05-.1-.1-.19-.08s-.06,0-.08,0A.49.49,0,0,1,1.83,1.4ZM1.42,7.09l0-1.16c-.1.05-.13.1-.11.18s0,.08,0,.08-.08,0-.09.1,0,.13,0,.2l0,0,.06-.12,0,0v.13c.08.08.08.09,0,.18a.35.35,0,0,0-.12.37ZM2.83.15v0L3,.36A.12.12,0,0,0,3,.41h.33c.07,0,.1,0,.1-.1a.16.16,0,0,1,0-.06c0-.05,0-.08-.05-.08ZM9.31.62l0,0L9.12.71s-.07.07-.07.11S9,.94,8.95,1l-.16.1.33.22.15-.14-.07,0c0-.05,0-.11,0-.14s0-.15,0-.23H9.15L9.22.68Zm-7,5.16c-.17,0-.22.08-.23.25a2.13,2.13,0,0,0,0,.28s0,.09,0,.1.09,0,.11-.07a1.18,1.18,0,0,1,.13-.25.09.09,0,0,0,0-.1A1.66,1.66,0,0,1,2.3,5.78Zm0-4.57A2,2,0,0,0,2.43,1c0-.07.08-.05.13,0l.06,0L2.7.92,2.52.86c-.05,0-.09,0-.1-.09A.59.59,0,0,0,2.35.64c-.05.07-.05.07-.06.27s0,.15-.12.14l0,0L2,1.14l-.15.06L2,1.4C2.11,1.12,2.14,1.1,2.29,1.21ZM5.6,9.61h0l.05-.09.07-.09c.09-.11.17-.1.24,0l.08.13a.9.9,0,0,0,.18-.37L5.6,9.3ZM5.13,4.43l0,0,0,.33.17.14a.09.09,0,0,0,.14,0l.22-.26a.26.26,0,0,0,0-.07h0l-.12.13a.1.1,0,0,1-.17,0C5.26,4.6,5.19,4.51,5.13,4.43Zm-4.62,0A.26.26,0,0,1,.8,4.4l.1-.17v0l-.26.13h0l.1-.11L.56,4.12l-.33.57,0,0,.39-.16ZM6,.32l-.69,0s-.05.06-.05.1,0,.11,0,.11c.18,0,.37.08.54,0ZM7,9.17l-.56,0a.49.49,0,0,0,.41.32ZM1.2,3.31l-.08.1-.07-.09a.09.09,0,0,0-.07,0,.31.31,0,0,0-.08,0c.05,0,.12.05.14.09s0,.1-.07.14l-.17.21c.11,0,.18-.13.26-.05l.52-.29c-.1-.1-.18-.1-.27,0l-.06.09s-.06.09-.11,0,0-.08,0-.12a1.11,1.11,0,0,1,.11-.16ZM3.52,6a.19.19,0,0,0-.14-.19c-.16,0-.32,0-.49-.07,0,.09,0,.13.09.15a.55.55,0,0,1,.34.18Zm5-5.6,0,0c0,.07,0,.16.08.2A.46.46,0,0,0,9.09.49ZM6,4.51l.4.15c0-.06.08-.13.11-.19s0-.08,0-.09l-.18-.1h0c.06.07-.08.16.05.23,0,0-.12,0-.13,0a.92.92,0,0,1-.08-.19ZM4.43.24,4,.19v0L4,.27,4,.39l.26,0A.19.19,0,0,0,4.43.24ZM9.55,6.36l.3-.2a.07.07,0,0,0,0-.05c0-.1,0-.2,0-.32l-.09,0c.09.11.09.14,0,.21l-.19.1.12,0C9.61,6.24,9.49,6.23,9.55,6.36Zm-3.2,3a.48.48,0,0,0-.17.3l.44-.06Zm2.57-.29,0,0,0,0-.26.32s-.06.08-.12,0l0,0v0l.32,0ZM3,4.34a1.37,1.37,0,0,1-.19.16,1.61,1.61,0,0,1-.25.1l.14.2c0-.16.13-.23.22-.16L3,4.59S2.94,4.47,3,4.34ZM1.21,7.44l.07-.2c-.08,0-.11.26-.06.37l.21,0V7.2C1.35,7.28,1.36,7.42,1.21,7.44Zm1.14-7a1,1,0,0,0,.1.15.15.15,0,0,0,.09,0c0-.11.06-.21.09-.32l0,0Zm1.31,3.8,0,0h0a.56.56,0,0,0-.36,0c-.09,0-.11.07-.06.14s.1-.12.2-.12L3.3,4.4c.08,0,.14,0,.15-.08s0-.1.11-.06S3.61,4.25,3.66,4.24ZM9.77,7.56l-.25-.21v.4Zm-8.32.75,0-.2-.24,0v.23ZM7,.56C7,.41,7,.41,6.89.4H6.76c-.07,0-.07.05-.07.09s0,.08.07.08ZM5.65,4.68c.25-.11.3-.19.22-.35C5.73,4.39,5.71,4.54,5.65,4.68Zm4.5-1.37.09-.07s.11-.08.13-.06.06.09.08.14h0l.08-.1L10.26,3Zm0,1.2h0l.44-.34L10.45,4c0,.13,0,.12-.08.19A3,3,0,0,0,10.12,4.52Zm.45-.08c.06.05.12.08.14.13s.05.11.17.08l-.22-.34Zm-9.38,4v.21l.27-.08V8.45l-.09,0C1.34,8.35,1.25,8.45,1.18,8.42Zm2.7,1.12-.06.06-.11,0a.47.47,0,0,1,0-.11.74.74,0,0,1,0-.11.43.43,0,0,0,0-.08h0c0,.1-.06.2-.08.3s0,0,0,0l.26,0Zm-.5-2.09c.14,0,.22-.08.19-.18l-.08,0V7.19l-.11,0Zm2.47,2-.14.24.33,0ZM.62,4.05H.88S.92,4,.94,4l0,0L.76,3.87ZM7.85.53c0-.06,0-.12-.08-.13A.3.3,0,0,0,7.6.4s0,0,0,.07,0,.06.05.07ZM6,4.39l.23-.14a.2.2,0,0,0-.29,0ZM1.24,9l.14.2a.55.55,0,0,0,0-.17l0-.18ZM.87,4.5c.16,0,.24-.17.16-.34ZM1,2.26l0,0-.13.18.21.05h0Zm1,6.2c.12,0,.19,0,.16-.15s-.07,0-.11-.06,0,0-.05,0A1.47,1.47,0,0,0,2,8.46Zm8.35-5.91v0l-.2-.23-.08.11c.12,0,.11.09.06.18ZM2.09,1,2,.73,1.8.9Zm-1,1.24.1.17L1.28,2h0Zm9,1.3,0,0,.15,0V3.33l0,0ZM9.67.77l0,.17.22,0v0ZM3.35,6.36l0,.2h0l.11-.23,0,0ZM2.41,4.69l.08-.28C2.33,4.5,2.31,4.57,2.41,4.69ZM3.87.19H3.8L3.7.36C3.8.41,3.81.38,3.87.19ZM3.57,6.46h0l-.11.24.16,0Zm6-5.52V.78L9.33,1V1ZM5,4.7V4.49l-.16.07Zm.47,4.85-.09.22.18,0ZM1.3,7.92c.13,0,.16-.1.09-.19C1.27,7.84,1.27,7.84,1.3,7.92ZM2.17.86h0l0-.29-.11.1ZM3.53,9.21c.1,0,.12,0,.11-.08s0-.1,0-.15h0Zm.74.55,0-.18h0l-.09.16ZM5.12.28v0S5,.26,5,.28A1.16,1.16,0,0,0,5,.46H5Zm-2.23.84v0S2.82,1,2.8,1a.47.47,0,0,0-.12.1l0,0ZM.61,3.32l.21,0L.74,3.19Zm9.26-1.6h0l.16-.13c-.05-.07-.07-.08-.1,0A1.55,1.55,0,0,0,9.87,1.72ZM8,4.44v0l-.1-.09s-.05,0-.06,0,0,.07,0,.07Zm1.6-3h0l-.18.12.11.07ZM5,4.34,4.9,4.26l0,.15,0,0Zm-3.27.27,0,0,.14-.12-.1-.07Zm7.8,1.21.15-.1v0H9.56ZM1.63,2v.2C1.75,2.12,1.75,2.1,1.63,2ZM3.48,7c.12,0,.14,0,.09-.2ZM1.54,1.31l-.12.09v0l.15,0,0-.08Zm2,8c-.09,0-.09,0,0,.21ZM1.82,9l.09.13L2,9ZM3.64,4.57l0-.18,0,0-.07.1ZM1.27,8.86l0,0,.19-.15,0,0ZM2.71.49,2.87.41,2.79.33Zm7.11,7h0l0-.13-.1.08Zm-7.66.66L2,8C2,8.14,2.08,8.14,2.17,8.14ZM4.76.41l.1-.13C4.76.27,4.75.28,4.76.41ZM1.18,8.72l0,.13h0l.06-.11ZM2.49,6l.12-.05-.1-.09Z"/>
          <path class="cls-2" d="M4.51,6.16l0-.12a.3.3,0,0,0,0-.09c0-.17.07-.21.27-.23l.83-.07.67,0,1.25,0,1.09,0a.53.53,0,0,1,.27,0,.32.32,0,0,1,.12.2,3.45,3.45,0,0,1,0,.48c0,.17,0,.33,0,.5s0,.48,0,.72A.76.76,0,0,1,9,7.95a.57.57,0,0,1-.44.26l-.9.09-1,.08H6.41l-1.34,0H4.75a.26.26,0,0,1-.27-.25c0-.16,0-.31,0-.47,0-.36,0-.72,0-1.08,0-.07,0-.14,0-.21S4.52,6.24,4.51,6.16Zm3.2,1.51v0l.81-.12c.15,0,.2-.09.19-.22a2.4,2.4,0,0,0,0-.29,1.75,1.75,0,0,1,0-.64c0-.13,0-.25.05-.38s0-.1-.1-.09L8.27,6H7.44L6.73,6H6.51l-.61,0-.85.07A.12.12,0,0,0,5,6.24a.76.76,0,0,0-.06.25c0,.33,0,.66,0,1,0,.1,0,.19,0,.29s0,.11.1.1l.85-.06.69,0Zm.44.46a.43.43,0,0,1,0-.1.42.42,0,0,1,0-.1L8.2,8s.09.11.15.11a.82.82,0,0,0,.21,0,.55.55,0,0,0,.39-.64c-.07,0-.09,0-.08.08a.15.15,0,0,1-.13.2l-.32.06c-.05,0-.08,0-.08.08s0,.06-.08.07-.05-.07-.07-.11H8s-.07,0,0,.07A1.16,1.16,0,0,0,8,8S8,8,8,8l-.19-.1a1.28,1.28,0,0,1-.09.14.29.29,0,0,1-.08.05.31.31,0,0,1,0-.09l.15-.24H7.52c-.08,0-.1,0-.09.1s0,.18.07.28ZM4.77,6.47l0-.33c0-.1,0-.11.15-.09a1.11,1.11,0,0,0,.22,0l0-.26a2.89,2.89,0,0,0-.37,0s-.09.08-.11.13a.29.29,0,0,0,0,.13C4.69,6.22,4.63,6.35,4.77,6.47Zm1.86-.71v0H5.84c0,.15,0,.16.16.14L6,6h.13c.11,0,.26,0,.33-.11l0,0Zm.41,0c0,.07.17.06.08.18a2.64,2.64,0,0,1,.45,0c.14,0,.19-.06.25-.15Zm-.8,2.51.22-.32-.54,0c-.11,0-.14,0-.11.16h0L5.89,8a.1.1,0,0,1,.16,0Zm-.83,0h.12l.1-.3L5.1,8C5,8,5,8.07,5,8.19A1,1,0,0,1,5.12,8,.15.15,0,0,1,5.22,8s0,0,.06.07a.38.38,0,0,1,0,.07l.11,0ZM7,7.88l0,0-.42,0,.14.34h.1l0,0a.52.52,0,0,1-.09-.08.41.41,0,0,1,0-.11h.12s0,0,.08.08ZM5.55,6c-.05-.23-.07-.26-.18-.23S5.31,5.9,5.3,6Zm3.25.88c0,.12,0,.24,0,.35s.05,0,.08.07l0,0,0-.06a.07.07,0,0,1,0-.11C9,7,9,6.94,8.8,6.89ZM7.35,8.11C7.19,8.2,7.1,8.18,7,8l-.14.18.53,0ZM7.17,8h0a1.47,1.47,0,0,0,.08-.16s0,0,0-.07-.11,0-.12,0A.55.55,0,0,0,7.17,8Zm-.79.19H6.6L6.46,8ZM4.82,7.81h0l-.12.14L4.82,8h0Zm1,.42h.25C6,8.1,5.93,8.1,5.84,8.22Zm2-2.38c.18,0,.31,0,.34-.05s-.16.06-.23,0Zm.91-.06v0h.18s0-.1-.05-.1ZM4.65,7.33a.68.68,0,0,0,0,.11.13.13,0,0,0,0,.07s0,0,.05,0a.11.11,0,0,0,0-.08S4.69,7.36,4.65,7.33Zm0,.9c.07-.12.07-.14,0-.16Z"/>
          <path class="cls-2" d="M4.61,4.35l-.29.33s-.06,0-.08,0a.24.24,0,0,1,0-.08L4.5,4.4l.1-.07Z"/>
        </g>
      </g>
    </g>
  </g>
</svg>
